<svg xmlns="http://www.w3.org/2000/svg" width="41.001" height="42.694" viewBox="0 0 41.001 42.694"><path d="M25.119,42.694a3,3,0,0,1-2.994-3V30.813H18.877V39.7a3,3,0,0,1-2.994,3H6.643a3,3,0,0,1-3-3v-16.8H3a3,3,0,0,1-2.641-1.58L.347,21.3.206,21.01l-.092-.289a3,3,0,0,1,.8-2.98L18.42.842a2.991,2.991,0,0,1,4.167.005l17.5,16.9a3,3,0,0,1,.8,2.969l0,.014-.094.3-.141.283a2.992,2.992,0,0,1-.486.668A3.032,3.032,0,0,1,38,22.894h-.648V39.7a3,3,0,0,1-3,3ZM23.8,26.142A3,3,0,0,1,26.8,29.137v8.884h5.887v-16.8a3.013,3.013,0,0,1,1.559-2.625L20.5,5.329,6.764,18.594A3.013,3.013,0,0,1,8.32,21.218v16.8h5.887V29.137A3,3,0,0,1,17.2,26.142Z" fill="#a7a7a7"/></svg>