<svg xmlns="http://www.w3.org/2000/svg" width="25.745" height="22" viewBox="0 0 25.745 22"><g transform="translate(-669.898 -1317.279)"><path d="M692.878,1329.673c.257-.07.517-.134.772-.211a1.409,1.409,0,0,0,.854-.607,1.087,1.087,0,0,1,.247-.218l.31.015.194.217.028.279c-.155.341-.3.668-.454.988a1.119,1.119,0,0,1-.2.265c-.195.2-.391.4-.6.592a1.254,1.254,0,0,1-.3.2c-.191.092-.39.167-.585.251-.124.053-.244.113-.367.164-.268.112-.538.22-.819.334a2.961,2.961,0,0,0-.887.086,1.125,1.125,0,0,0-.46.2c-.137.1-.286.171-.415.247l-.452.931a1.22,1.22,0,0,0,.4.024,1.744,1.744,0,0,1,.23.019c.031,0,.059.037.09.039.177.012.355.023.533.026a1.415,1.415,0,0,0,.246-.046l.2-.232c.03-.194.059-.392.093-.589.026-.152.049-.173.243-.254l.154.189.247-.017.149.24a1.551,1.551,0,0,1,.9-.182,1.833,1.833,0,0,1,1.207.318,1.331,1.331,0,0,1,.5.337.238.238,0,0,0,.08.062c.312.105.371.357.371.642,0,.055,0,.111-.008.179l-.182.2a1.324,1.324,0,0,1-.58.109,4.661,4.661,0,0,0-1.194.139c-.161.039-.326.061-.5.093.083.179.249.194.387.251s.291.116.424.169c.308.06.61.067.907.12a3.7,3.7,0,0,0,.6.006l.252.09.167.322a1.567,1.567,0,0,1-.856.779,1.96,1.96,0,0,1-.835.22.541.541,0,0,0-.185.066,3,3,0,0,1-.879-.207.353.353,0,0,0-.1-.02l-.861-.123c-.176.137-.271.416-.577.478-.081-.051-.224.008-.322-.126-.03-.174.128-.347.066-.538a1.405,1.405,0,0,0-.593-.231,1.96,1.96,0,0,0-.973.551,4.025,4.025,0,0,0-.682.786,4.635,4.635,0,0,1-.435.549,2.74,2.74,0,0,1-.656.512,3.972,3.972,0,0,1-.773.4,1.993,1.993,0,0,1-1.007.209.565.565,0,0,0-.294.047,1.94,1.94,0,0,1-.785.155c-.2,0-.4.032-.6.024a2.51,2.51,0,0,0-.536.083c-.165-.013-.31-.031-.454-.033-.392-.008-.784,0-1.175-.015a1.841,1.841,0,0,1-.743-.188.465.465,0,0,0-.387-.026,1.9,1.9,0,0,1-.692.111,3.873,3.873,0,0,1-.834-.016c-.022,0-.046,0-.067,0a4.768,4.768,0,0,0-1.252-.139c-.2-.068-.392-.13-.583-.2a.525.525,0,0,1-.152-.07c-.253-.2-.552-.337-.814-.534-.233-.176-.446-.37-.665-.56-.135-.117-.25-.255-.374-.384a2.7,2.7,0,0,0-.341-.274l-.2.311c-.377-.074-.429-.145-.5-.682a3.605,3.605,0,0,0-1.275-.479c-.14.09-.135.24-.195.367l-.4.221c-.284-.123-.179-.444-.332-.636a.416.416,0,0,0-.092-.017c-.267.014-.535.044-.8.042a1.718,1.718,0,0,0-.556.09c-.1.079-.191.162-.293.231a1.06,1.06,0,0,1-.205.086.434.434,0,0,1-.476-.322,1.23,1.23,0,0,1,.164-.6.372.372,0,0,0,.048-.088,1.287,1.287,0,0,1,.651-.689,2.545,2.545,0,0,1,.605-.287,1.947,1.947,0,0,0,.282-.147c.277-.049.605-.11.934-.164s.643.094.977.045l.145-.155.313-.1.3.327a4.423,4.423,0,0,1,1.851.664.076.076,0,0,0,.038-.116c-.187-.419-.366-.84-.583-1.244a1.274,1.274,0,0,0-.094-.178,3.819,3.819,0,0,0-.91-.886.584.584,0,0,0-.085-.031l-.174.041a.764.764,0,0,1-.55-.09c-.043-.023-.069-.081-.108-.13l.156-.23c-.022-.031-.033-.068-.058-.083q-.429-.265-.862-.523c-.1-.058-.2-.108-.314-.171-.2-.044-.345.16-.548.173a.393.393,0,0,1-.333-.167l-.049-.267a3.061,3.061,0,0,1-.867-.526l-.7-1.083c-.034-.116-.078-.244-.108-.374a1.9,1.9,0,0,1-.044-.3.435.435,0,0,1,.292-.489l.235.014a7,7,0,0,0,.814.354,3.108,3.108,0,0,1,.653.323,6.111,6.111,0,0,0,.717.373h.235a.253.253,0,0,0,.01-.1c-.042-.127-.091-.252-.137-.374v-.172a1.03,1.03,0,0,0-.156-.569,3.638,3.638,0,0,1-.234-.564,2.053,2.053,0,0,1,.143-.978,1.677,1.677,0,0,1,1.251-1.105c.1-.023.141-.012.355.085a.537.537,0,0,1,.1.618,1.529,1.529,0,0,0-.119.565l.317.978.476.6c.121-.168.328-.162.5-.264a.98.98,0,0,1,.312.536l-.164.34a1.761,1.761,0,0,0,.985.663,4.406,4.406,0,0,1,.564.2c.114.042.113.045.289-.013,0-.029.024-.065.015-.091-.084-.255-.174-.506-.247-.716l-.6-.469-.011-.148.265-.177a.821.821,0,0,0-.083-.189,4.892,4.892,0,0,0-.419-.482,3.17,3.17,0,0,1-.706-1.126c-.026-.062-.046-.126-.076-.185a.414.414,0,0,0-.074-.084c-.178.025-.355.022-.457-.2v-.365a1,1,0,0,0-.262-.364,10.16,10.16,0,0,1-.892-.914,7.213,7.213,0,0,1-.568-.7,1.357,1.357,0,0,1-.213-.451,7.365,7.365,0,0,0-.31-1.028.306.306,0,0,1-.008-.032c.057-.275.057-.275.294-.427h.357c.063.112.13.215.181.325a1.387,1.387,0,0,0,.4.566.86.86,0,0,1,.164.251c.093.151.186.3.283.462l.224-.1a.351.351,0,0,1,.291.142.6.6,0,0,1,.124.411.571.571,0,0,0,.033.327,2.486,2.486,0,0,0,.624.5,5.044,5.044,0,0,1,.732.46,1.305,1.305,0,0,0,.248.136,1.1,1.1,0,0,0,.454.393l.362-.177a.2.2,0,0,1,.194.139c.038.092.072.188.11.288a2.025,2.025,0,0,1,.681.344c.248.077.346.338.557.466a3.013,3.013,0,0,0,.036-1.143.632.632,0,0,0-.057-.067.578.578,0,0,0-.081-.055l-.183-.421.233-.387a2.782,2.782,0,0,1-.065-.852c-.058-.167-.235-.259-.233-.475a.8.8,0,0,1,.075-.154.771.771,0,0,0,.111-.613c-.026-.164-.061-.327-.093-.5l-.209-.063c-.192-.252,0-.475.04-.715-.063-.245-.254-.437-.3-.7a8.462,8.462,0,0,0-.224-.824.721.721,0,0,1-.152-.434.893.893,0,0,1-.184-.794l.16-.22a.6.6,0,0,1,.49.081,1.366,1.366,0,0,1,.18.43.489.489,0,0,0,.12.235,2.536,2.536,0,0,1,.341.4,2.705,2.705,0,0,0,.368.409,1.238,1.238,0,0,0,.058.179,1.316,1.316,0,0,0,.113.168c.124.01.255-.048.387.1l.117.332c-.026.069-.046.133-.074.193a.476.476,0,0,0-.019.361,1.876,1.876,0,0,0,.288.6c.056.069.1.145.158.224l.2.064.206.2v.522a4.421,4.421,0,0,0,.289.705c.125.207.253.415.384.62.058.09.123.176.192.273a.408.408,0,0,0,.056-.076c.125-.312.247-.625.369-.937a.416.416,0,0,1,.042-.092,3.543,3.543,0,0,1,.92-1.047c.044-.176.086-.349.133-.521.008-.03.04-.053.066-.084a.5.5,0,0,1,.625.1c.525-.283.96-.708,1.443-1.007.105-.2-.034-.358,0-.54l.364-.19.317.046c.045-.026.071-.032.084-.049a7.8,7.8,0,0,1,.628-.743,3.456,3.456,0,0,0,.582-.933,1.847,1.847,0,0,0,.086-.358.91.91,0,0,1,.314-.536l.339-.019c.195.086.174.258.249.384a.851.851,0,0,1-.045.229,1.221,1.221,0,0,0-.09.49c-.016.233-.057.464-.089.695-.027.2-.058.4-.092.626l-.059.1c-.013.172-.026.328-.033.484a1.753,1.753,0,0,1-.176.677c-.115.241-.221.486-.315.737a1.188,1.188,0,0,1-.253.391,4.932,4.932,0,0,0-.7.886,1.235,1.235,0,0,1,.016.532c-.143.149-.332.064-.494.133a.9.9,0,0,0-.253.482,1.248,1.248,0,0,0-.368.747c-.025.151-.07.3-.118.506.127-.1.211-.161.294-.228s.171-.141.263-.218l-.059-.344a.189.189,0,0,1,.2-.126.386.386,0,0,0,.369-.188c.179-.244.359-.486.525-.739a3.46,3.46,0,0,0,.168-.362c.136-.269.281-.533.41-.8.077-.16.129-.331.2-.51a.459.459,0,0,1,.341-.129l.254.092a.866.866,0,0,1,.094.267c.007.549,0,1.1,0,1.648a2.694,2.694,0,0,1-.044.329c-.013.1-.023.2-.036.308.043-.007.083,0,.1-.018a3.978,3.978,0,0,1,.864-.625c.037-.025.072-.053.126-.093-.013-.113-.032-.233-.04-.354a.4.4,0,0,1,.176-.429l.582.107c.129-.146.251-.307.4-.445a8.009,8.009,0,0,0,.909-1.113,2.678,2.678,0,0,0,.259-.542,2.078,2.078,0,0,0,.074-.263l-.074-.215a.529.529,0,0,1,.442-.459.841.841,0,0,1,.479.355c.011.247.168.467.2.723a3.448,3.448,0,0,1,.036,1.132c-.014.077-.011.156-.02.234a2.576,2.576,0,0,1-.4,1.122,3.519,3.519,0,0,1-.751.849c-.4.315-.715.709-1.1,1.036-.093.08-.173.175-.23.233a.871.871,0,0,0-.048.555l-.179.263-.419-.04a.575.575,0,0,0-.287.349l-.232.132a1.956,1.956,0,0,1-.263.383.9.9,0,0,0-.217.519c-.019.1-.04.195-.066.317a.147.147,0,0,0,.126.143c.087.013.135.073.174.165l-.032.16-.572.5a5.03,5.03,0,0,0-.491,1.254c.167.012.247-.116.359-.173s.21-.127.32-.181.248-.1.358-.15l.153-.414.235-.094c.115.129.295.175.332.372.089-.007.166-.015.243-.02s.151-.009.243-.015l.452-.395c-.012-.156-.027-.309-.033-.464-.009-.193.048-.268.248-.339.1.094.175.226.335.258a3.588,3.588,0,0,0,.877-.812c.295-.327.286-.335.267-.78,0-.033,0-.068,0-.11l.137-.262c.04-.079.082-.157.131-.251a.582.582,0,0,1,.19.051,1.007,1.007,0,0,0,.275.167c.032-.016.063-.019.071-.034.2-.364.467-.682.642-1.058a1.208,1.208,0,0,0,.178-.536.678.678,0,0,1,.049-.158,1.908,1.908,0,0,0,.083-.6c-.011-.179,0-.358,0-.46l.207-.689.255-.139a.462.462,0,0,1,.4.184,1.386,1.386,0,0,1,0,.565.834.834,0,0,0-.031.2,3.57,3.57,0,0,1-.067.87,10.384,10.384,0,0,1-.155,1.09c-.1.345-.205.686-.313,1.027a4.552,4.552,0,0,1-.542,1.148,1.551,1.551,0,0,0-.114.27,1.228,1.228,0,0,1,.191.269,2.067,2.067,0,0,1,.066.391l-.137.17-.37-.088a.347.347,0,0,0-.2.161l-.252.394-.018.024Zm-4.779,6.2-.067.067-.068.068-.067.067-.068.067-.069.066c-.06.044-.147.07-.122.184a.226.226,0,0,0,.121-.185l.066-.069.067-.067.068-.067.068-.068.067-.067.014-.022Zm-1.01,1.953-.018.019.014-.023.017-.023Zm-10.375-1.483-.026-.018.029.014.022.123.035-.012Zm-.4-.342.012.018-.015-.014c-.068-.141-.2-.191-.378-.278A.792.792,0,0,0,676.312,1336Zm11.988-2.757a.7.7,0,0,0-.218.32c-.007.014.009.037.017.064l.112-.013.086-.375.018-.016Zm5.186-2.9a1.109,1.109,0,0,0-.453.108,2.753,2.753,0,0,1-1.237.251.228.228,0,0,0-.048.011,1.292,1.292,0,0,0-.457.446c.132-.008.243-.006.352-.024a2.306,2.306,0,0,0,.487-.1c.371-.15.733-.327,1.1-.486a.435.435,0,0,0,.252-.2l.017-.015Zm-7.677,4.782c-.159.242-.319.483-.477.726-.024.036-.032.083-.054.122a1.3,1.3,0,0,1-.127.2,2.847,2.847,0,0,0-.47.844c-.1.26-.154.535-.276.788a2.706,2.706,0,0,0-.093.289,1.766,1.766,0,0,0,.238-.219c.144-.21.281-.427.418-.645a1.666,1.666,0,0,0,.159-.294,3.284,3.284,0,0,1,.3-.744.709.709,0,0,0,.039-.129c.04-.1.088-.2.128-.308a2.473,2.473,0,0,0,.214-.63l.018-.016Zm1.48,2.555a.467.467,0,0,0,.15-.066c.231-.227.464-.454.681-.695.2-.223.376-.471.579-.693s.422-.422.639-.636c-.035-.08-.128-.062-.2-.1l-.253.049c-.187.225-.447.377-.552.662a2.526,2.526,0,0,0-.472.715l-.266.2-.3.566-.02.018Zm-11.649-1.483c.02.018.039.035.01.01l-.014,0c-.135-.237-.394-.355-.558-.569l.046-.263a.5.5,0,0,0-.117-.082,5.724,5.724,0,0,0-1.04-.207c-.3-.026-.6-.017-.9-.02-.2,0-.4.009-.605,0a1.877,1.877,0,0,0-.6.088c-.029.009-.05.048-.083.08a.665.665,0,0,0,.438-.034,2.857,2.857,0,0,0,.5.038c.163-.02.3.07.455.066a4.022,4.022,0,0,1,.436.026,1.093,1.093,0,0,1,.508.15,1.833,1.833,0,0,0,.589.237.646.646,0,0,1,.422.257.632.632,0,0,1,.388.182A.374.374,0,0,0,675.639,1336.207Zm10.369-1.414a.861.861,0,0,0,.141-.086c.183-.164.365-.33.542-.5.105-.1.2-.207.3-.3a.435.435,0,0,1,.122-.32,9.736,9.736,0,0,0,.87-1.427,7.345,7.345,0,0,1,.648-1.128c.077-.1.156-.2.28-.356a3.72,3.72,0,0,0-.391.189,2.867,2.867,0,0,0-.962,1.054c-.042.078-.1.149-.143.226s-.086.154-.129.232-.084.157-.126.236a6.074,6.074,0,0,0-.378.78,4.981,4.981,0,0,1-.316.662c-.14.254-.3.5-.452.745l-.013.01Zm-.741,3.5a.783.783,0,0,0,.244-.1,1.568,1.568,0,0,0,.5-.624.725.725,0,0,1,.077-.147c.207-.33.364-.688.571-1.02a6.666,6.666,0,0,1,.636-.9,1.823,1.823,0,0,1,.578-.5c.163-.075.327-.143.492-.213a.979.979,0,0,1,.424-.081c.128,0,.256,0,.385-.005a.2.2,0,0,0-.137-.1c-.338-.063-.677-.124-1.017-.18a.557.557,0,0,0-.446.1,5.52,5.52,0,0,0-.794.667,1.723,1.723,0,0,0-.341.607,2.121,2.121,0,0,1-.1.246,5.922,5.922,0,0,0-.412,1.023,1.8,1.8,0,0,1-.354.715,1.611,1.611,0,0,0-.3.51l-.016.019Zm2.226-14.139c-.035.026-.085.042-.1.077a5.306,5.306,0,0,0-.453.659c-.267.287-.532.575-.8.86-.131.139-.276.263-.4.409a4.627,4.627,0,0,1-.619.693c.114.443.224.872.357,1.384,0,.1.011.291.023.48,0,.014.03.026.062.051a4.424,4.424,0,0,1,.293-.629,9.531,9.531,0,0,1,.714-1.17.567.567,0,0,0,.055-.121c.041-.08.086-.157.128-.236a3.552,3.552,0,0,0,.616-1.536c0-.021.021-.04.025-.062a3.233,3.233,0,0,0,.1-.863c.013-.021.027-.042.006-.01C687.5,1324.105,687.5,1324.131,687.494,1324.155Zm-7.815,13.062.018.018-.02-.015-.031-.21a2.1,2.1,0,0,1-.217-.4,2.025,2.025,0,0,0-.249-.435,1.459,1.459,0,0,1-.134-.265c-.113-.277-.243-.548-.38-.814-.113-.217-.245-.424-.372-.635a4.319,4.319,0,0,1-.233-.368,2.725,2.725,0,0,0-.906-1.185.751.751,0,0,1-.12-.118c-.327-.354-.65-.71-.982-1.06a1.6,1.6,0,0,0-.335-.273,2.837,2.837,0,0,0-.432-.181c-.218-.084-.447-.15-.656-.254a7.45,7.45,0,0,1-.692-.411,2,2,0,0,0-.58-.245c-.324-.084-.643-.186-.973-.255a.935.935,0,0,1-.252-.094c-.177-.1-.354-.193-.521-.3a1.048,1.048,0,0,0-.443-.167,1.77,1.77,0,0,0,.515.65l.341.117a2.248,2.248,0,0,1,.283.094,1.139,1.139,0,0,0,.547.139c.263.15.516.319.789.444a3.981,3.981,0,0,1,.743.442,8.344,8.344,0,0,0,.706.445,3.053,3.053,0,0,1,.854.742,4.8,4.8,0,0,1,.62,1.105,4.858,4.858,0,0,1,.338.725c0,.021.026.036.039.054a2.122,2.122,0,0,1,.364.785,4.338,4.338,0,0,1,.182.814,6.512,6.512,0,0,1,.27,1.006l.325.446.7.544c.146.045.306.1.468.141s.338.068.55.109c-.1-.108-.166-.185-.238-.255-.055-.054-.117-.1-.178-.153a.793.793,0,0,1-.134-.1,9.37,9.37,0,0,1-.7-1.022c-.011-.02-.015-.043-.026-.063-.068-.129-.132-.259-.205-.384a3.978,3.978,0,0,1-.362-.719,1.192,1.192,0,0,0-.142-.3,5.048,5.048,0,0,1-.475-1,.386.386,0,0,1-.013-.109l.1-.126.155.007a.749.749,0,0,1,.312.363c.179.385.345.777.526,1.162a2.033,2.033,0,0,0,.4.616C679.144,1336.557,679.4,1336.9,679.679,1337.218Zm4.027-5.5a.866.866,0,0,0,.032.591.35.35,0,0,1,.011.133,2.816,2.816,0,0,1,0,.668c-.011.038.018.086.024.13a4.784,4.784,0,0,1,.081.6,5.256,5.256,0,0,1-.055.62l.044.159c-.022.2-.042.318-.047.439-.018.423-.029.848-.044,1.272-.01.3-.02.6-.031.948.187-.173.155-.384.242-.544.094-.176.172-.36.263-.539s.179-.333.283-.526a.907.907,0,0,1,.019-.2,3.119,3.119,0,0,0,.059-.9,3.51,3.51,0,0,1,.069-1.1.638.638,0,0,0,.011-.168,8.489,8.489,0,0,1,.045-1.571,3.124,3.124,0,0,0,.024-.638.9.9,0,0,1,.1-.45c-.014-.216-.034-.427-.036-.638s.015-.445.024-.681l-.1-.281a1.8,1.8,0,0,0-.1-.786c.031-.164-.087-.293-.1-.449a4.911,4.911,0,0,0-.131-.588c-.028-.12-.052-.24-.08-.36-.04-.173-.072-.349-.125-.518-.084-.265-.179-.528-.274-.789-.016-.042.013-.113-.074-.132a.98.98,0,0,0-.086.182,5.663,5.663,0,0,1-.421,1.16,10.2,10.2,0,0,1-.534,1.074c-.031.046-.054.1-.082.146a3.933,3.933,0,0,0-.269.789,2.19,2.19,0,0,0-.076.661c0,.09.006.18,0,.269a2.337,2.337,0,0,1-.009.47,5.36,5.36,0,0,0-.068.8,1.457,1.457,0,0,1-.055.429.711.711,0,0,0,0,.429,5.724,5.724,0,0,1,.118,1.026.883.883,0,0,1-.028.2.533.533,0,0,0-.016.2c.051.2.028.4.075.6.058.239.04.484.109.724.079.276.075.576.146.855a3.774,3.774,0,0,1,.1.491c.022.179.107.334.137.511a1.582,1.582,0,0,0,.345.661c0-.122,0-.186,0-.25-.015-.246-.039-.491-.045-.737a12.542,12.542,0,0,1,.045-2.014,2.8,2.8,0,0,0,0-.3c0-.18,0-.359.019-.537.016-.212.05-.422.064-.634s.011-.419.016-.689l.135-.24Zm-7.9-1.124a3.385,3.385,0,0,0,.441.272,1.613,1.613,0,0,1,.486.349,2.95,2.95,0,0,1,.381.509,2.488,2.488,0,0,0,.714.694,4.111,4.111,0,0,1,.477.465c.036.164.184.25.264.38a2.5,2.5,0,0,0,.148.295c.12.2.246.4.367.6a.454.454,0,0,1,.059.12,1.51,1.51,0,0,0,.2.414,4.411,4.411,0,0,1,.354.757,1.648,1.648,0,0,0,.262.464,3.6,3.6,0,0,1,.461.918,1.2,1.2,0,0,0,.146.3c.142.212.319.406.439.63a.911.911,0,0,0,.34.36,1.372,1.372,0,0,0,.541.25c.1.011.195.044.293.061s.193.026.3.039a.189.189,0,0,0-.14-.207.748.748,0,0,1-.318-.289c-.044-.064-.1-.124-.142-.186-.087-.116-.174-.233-.26-.35-.046-.063-.091-.127-.135-.192-.076-.111-.152-.221-.224-.333-.054-.086-.1-.177-.153-.261a4.04,4.04,0,0,1-.4-.811,7.18,7.18,0,0,0-.493-1.139,4.628,4.628,0,0,0-.525-.9.557.557,0,0,1-.068-.191l.149-.147c.07.037.129.066.186.1s.131.083.2.125c.2.272.268.621.505.819l.142.414.158.13.022.227c.2.328.411.648.6.978a1.95,1.95,0,0,0,.377.462l.141-.024a1.468,1.468,0,0,0-.029-.21,5.323,5.323,0,0,1-.133-.621,2.6,2.6,0,0,0-.141-.69.621.621,0,0,1-.026-.2,1.386,1.386,0,0,0-.3-.735,5.23,5.23,0,0,1-.5-.753c-.134-.258-.28-.512-.434-.758a1,1,0,0,0-.268-.3,5.5,5.5,0,0,1-.971-.874c-.167-.182-.348-.349-.524-.522a1.127,1.127,0,0,0-.65-.347,2.735,2.735,0,0,1-.754-.047,1.8,1.8,0,0,0-.565-.058,1.675,1.675,0,0,1-.757-.067A.183.183,0,0,0,675.809,1330.591Zm5.777-.576c.018-.1.026-.135.029-.169a4.167,4.167,0,0,1,.059-1.066c0-.009,0-.022,0-.032a3.486,3.486,0,0,0-.064-.66.665.665,0,0,1-.01-.231,1.164,1.164,0,0,0,.01-.2,10.064,10.064,0,0,0-.106-1.2c-.043-.134-.044-.284-.093-.422a2.242,2.242,0,0,1-.13-.69,1.282,1.282,0,0,0-.188-.6c-.208-.357-.43-.706-.646-1.059a.883.883,0,0,1-.08-.146c-.056-.145-.109-.293-.16-.44a4.137,4.137,0,0,0-.407-.728c-.016-.025-.05-.038-.079-.059-.009.027-.026.05-.021.068a2.833,2.833,0,0,1,.047.734c0,.325.006.65.011.975a.733.733,0,0,0,.019.234,1.469,1.469,0,0,1,.048.4c.012.143.062.282.075.424.019.211.022.424.026.635,0,.134-.007.267,0,.4.01.435.024.872.034,1.266l-.1.2a8.225,8.225,0,0,1,.2,1.462l.1.158c0,.338,0,.674,0,1.01a1.243,1.243,0,0,1-.023.2c-.034.218-.071.436-.1.626.074.207.265.242.378.363s.22.223.333.33.239.219.4.368c-.05-.568-.086-1.079-.143-1.587a4.879,4.879,0,0,1-.14-1.126,3.511,3.511,0,0,1-.043-.837,1.365,1.365,0,0,0-.049-.431.7.7,0,0,1,0-.407l.111-.044a.409.409,0,0,1,.155.225c.146.365.156.769.324,1.128.018.038,0,.09.013.134A2.879,2.879,0,0,0,681.586,1330.015Zm6.549-4.533c-.04.106-.07.19-.1.272-.106.258-.2.527-.325.772-.234.445-.492.876-.74,1.314-.072.127-.138.255-.215.378a1.442,1.442,0,0,0-.214.375c-.04.146-.2.245-.193.418-.138.125-.1.318-.18.463a5.424,5.424,0,0,0-.4.915,4.345,4.345,0,0,1-.237.489c0,.174.007.3,0,.418-.01.143-.032.286-.049.428-.008.075-.056.147-.058.22-.007.336,0,.673,0,1.009a.135.135,0,0,0,.041-.1,2.206,2.206,0,0,1,.12-.826,1.1,1.1,0,0,0,.038-.2,12.3,12.3,0,0,1,.487-1.709.359.359,0,0,1,.367-.289l.067.068-.047.249.063.231c-.029.157-.045.278-.072.4a1.239,1.239,0,0,1-.106.385,2.832,2.832,0,0,0-.285.887c-.072.281-.115.568-.179.851a1.244,1.244,0,0,0-.029.447c.041-.03.078-.042.089-.066.112-.231.218-.464.33-.695a1.514,1.514,0,0,0,.225-.99.241.241,0,0,1,.009-.088l.209-.477a6.942,6.942,0,0,1,.175-.7,6.344,6.344,0,0,0,.252-.682c.021-.087.062-.167.09-.253.1-.286.269-.538.353-.831.054-.194.137-.378.2-.57a2.037,2.037,0,0,0,.061-.329c.014-.1.019-.2.026-.282.051-.109.088-.2.139-.291a2.239,2.239,0,0,1,.331-.5,7.008,7.008,0,0,0,1.016-1.242.944.944,0,0,1,.164-.167c.14-.129.282-.255.422-.382a2.558,2.558,0,0,1,.22-.207,5.344,5.344,0,0,0,.723-.7c.1-.1.206-.2.31-.306a3.442,3.442,0,0,0,.679-.795c.029-.156.056-.288.077-.421a.918.918,0,0,0,0-.411c-.084.117-.142.212-.214.3-.229.26-.463.517-.695.774a1.3,1.3,0,0,0-.176.2,2.914,2.914,0,0,1-.633.732c-.083.073-.2.106-.274.187a2.82,2.82,0,0,1-.695.518,5.468,5.468,0,0,0-.478.362,2.1,2.1,0,0,0-.24.181A.888.888,0,0,1,688.135,1325.482Zm-5.789,1.375c.052-.058.1-.105.139-.157a.519.519,0,0,0,.063-.117c.111-.268.205-.543.333-.8a1.417,1.417,0,0,0,.176-.673,1.117,1.117,0,0,1,.054-.3,6.226,6.226,0,0,0,.139-.687c.033-.241.109-.476.162-.7.4-.213.516-.2.75.073a1.164,1.164,0,0,0,.156.6,1.209,1.209,0,0,1,.084.252c.049.135.1.271.152.406,0,.013.033.016.058.026.035-.139.065-.278.107-.414a3.033,3.033,0,0,1,.3-.592c.2-.351.412-.691.621-1.034a3.684,3.684,0,0,1,.607-.755,2.638,2.638,0,0,0,.609-.835,4.45,4.45,0,0,0,.355-1.078.993.993,0,0,0-.012-.208c-.048.026-.087.032-.1.055a6.147,6.147,0,0,0-.45.624,1.008,1.008,0,0,1-.3.356c-.217.158-.421.337-.646.478a10.414,10.414,0,0,0-.923.659,4.069,4.069,0,0,1-.734.468,2.24,2.24,0,0,0-.916.76,4.622,4.622,0,0,0-.417.8,4.2,4.2,0,0,0-.31,1.262.853.853,0,0,1-.019.133c-.05.2-.1.409-.141.56Zm-2.97,3.478a.6.6,0,0,0,.012-.082,12.632,12.632,0,0,0-.21-1.893.868.868,0,0,0-.084-.218c-.1-.211-.195-.422-.309-.668-.145-.148-.318-.324-.489-.5a1.443,1.443,0,0,0-.719-.4,2.6,2.6,0,0,1-.748-.282c-.135-.082-.255-.178-.384-.263-.043-.03-.088-.076-.146-.021a.606.606,0,0,1,.068.115,4.6,4.6,0,0,0,.605.992,2.152,2.152,0,0,0,.279.289,1.332,1.332,0,0,1,.307.472c.115.325.279.632.408.952a1.728,1.728,0,0,1,.241.957c0,.019.015.041.027.077l.183.08c-.012-.131-.019-.228-.031-.326a1.016,1.016,0,0,0-.035-.163.546.546,0,0,1,0-.329c.027-.082.075-.1.222-.1l.321.572c.08.214.159.434.244.651a.2.2,0,0,0,.173.139Zm9.422,3.372a2.345,2.345,0,0,1,.349-.928,1.383,1.383,0,0,0,.234-.587l.238-.5c.344-.365.7-.754,1.066-1.13a3.812,3.812,0,0,1,.8-.711,1.118,1.118,0,0,0,.179-.15c.208-.187.415-.373.647-.583a.676.676,0,0,1,.083-.141,1.524,1.524,0,0,0,.29-.562c.017-.051.071-.112,0-.183-.139.151-.271.3-.413.446a6.806,6.806,0,0,1-.674.651,5.251,5.251,0,0,0-.584.5,10.265,10.265,0,0,1-1.272,1.188,2.692,2.692,0,0,0-.893,1.233l-.051.127.144.089a1.9,1.9,0,0,1-.195.635,1.232,1.232,0,0,0-.211.558C688.6,1333.72,688.668,1333.783,688.8,1333.707Zm1.389.524-.02.045a1.711,1.711,0,0,1,.225.114,1.886,1.886,0,0,0,.435.309c.08.165.272.186.387.309a2.3,2.3,0,0,0,.443.3,3.31,3.31,0,0,0,1.047.413.113.113,0,0,0,.152-.066,1.519,1.519,0,0,0-.278-.16,1.283,1.283,0,0,1-.259-.152,9.588,9.588,0,0,0-.816-.633,1.56,1.56,0,0,0-.68-.344,1.149,1.149,0,0,1-.241-.1Zm-14.589-3.738c.014.01.026.022.04.031l.018-.017-.042-.036Zm12.8,2.581.006-.055h0Z"/><path d="M683.484,1330.415l.107-.116.255.132a1.032,1.032,0,0,1,.058.873l-.247.118a.515.515,0,0,1-.108-.038c-.045-.031-.084-.071-.141-.119C683.434,1330.99,683.458,1330.714,683.484,1330.415Z" transform="translate(-0.237 -0.228)"/><path d="M678.946,1332.908c.007-.142-.048-.3.13-.376.345.143.419.254.451.681l-.132.1C679.194,1333.219,679.194,1333.219,678.946,1332.908Z" transform="translate(-0.158 -0.267)"/><path d="M681.005,1326.586a2.575,2.575,0,0,1-.086,1.006l-.126.083c-.188-.1-.212-.3-.281-.454a1.7,1.7,0,0,1-.05-.738c.089-.118.107-.295.3-.357.034.034.085.066.106.11C680.921,1326.349,680.959,1326.466,681.005,1326.586Z" transform="translate(-0.185 -0.155)"/><path d="M677.079,1334.012c-.057-.043-.125-.071-.157-.122a1.4,1.4,0,0,1-.286-.642l.1-.079a1.315,1.315,0,0,1,.5.582A.245.245,0,0,1,677.079,1334.012Z" transform="translate(-0.118 -0.278)"/><path d="M687.312,1328.505l.155.125a1.574,1.574,0,0,1-.263.832.341.341,0,0,1-.25.2l-.157-.091a.379.379,0,0,1,.06-.371C687.006,1328.979,687.047,1328.69,687.312,1328.505Z" transform="translate(-0.295 -0.197)"/><path d="M684.855,1323.7a.207.207,0,0,1-.106-.211.657.657,0,0,1,.044-.194,1.887,1.887,0,0,1,.493-.73.218.218,0,0,1,.178.262.607.607,0,0,1-.072.254,2.69,2.69,0,0,1-.457.606C684.923,1323.7,684.893,1323.7,684.855,1323.7Z" transform="translate(-0.26 -0.093)"/><path d="M686.346,1321.67l.016.213-.535.58a.167.167,0,0,1-.23-.077.424.424,0,0,1,.189-.386c.118-.084.225-.179.337-.268A.725.725,0,0,1,686.346,1321.67Z" transform="translate(-0.275 -0.077)"/><path d="M678.283,1327.756a1.248,1.248,0,0,1,.168,1.07l-.195.036c-.037-.031-.062-.042-.07-.06a2.235,2.235,0,0,1-.122-.307,1.182,1.182,0,0,0-.232-.541l.072-.178Z" transform="translate(-0.139 -0.184)"/><path d="M686.307,1327.076l.171.022c.018.038.045.07.043.1a.95.95,0,0,1-.394.708c-.188-.061-.187-.2-.175-.362A1.182,1.182,0,0,1,686.307,1327.076Z" transform="translate(-0.281 -0.171)"/><path d="M687.049,1326.076a.652.652,0,0,1,.09-.024.215.215,0,0,1,.071.015c.012.026.042.062.034.083a1.809,1.809,0,0,1-.146.333,3.48,3.48,0,0,1-.253.32l-.185-.029c-.008-.041-.021-.067-.014-.083a1.408,1.408,0,0,1,.116-.238C686.85,1326.324,686.951,1326.2,687.049,1326.076Z" transform="translate(-0.293 -0.154)"/></g></svg>