<svg xmlns="http://www.w3.org/2000/svg" width="60" height="60" viewBox="0 0 60 60"><g transform="translate(0)"><path d="M702.378,2822.694H660.745v-.5a8.691,8.691,0,0,0-8.681-8.681h-.5v-41.634h.5a8.691,8.691,0,0,0,8.681-8.682v-.5h41.634v.5a8.692,8.692,0,0,0,8.682,8.682h.5v41.634h-.5a8.691,8.691,0,0,0-8.682,8.681Zm-40.643-1h39.653a9.7,9.7,0,0,1,9.171-9.17v-39.653a9.7,9.7,0,0,1-9.171-9.171H661.735a9.7,9.7,0,0,1-9.17,9.171v39.653A9.7,9.7,0,0,1,661.735,2821.691Z" transform="translate(-651.562 -2762.694)" fill="#c8961b"/><g transform="translate(13.489 19.782)"><path d="M3.151-1h24.72a4.156,4.156,0,0,1,4.151,4.151V15.285a4.156,4.156,0,0,1-4.151,4.151H3.151A4.156,4.156,0,0,1-1,15.285V3.151A4.156,4.156,0,0,1,3.151-1Zm24.72,18.429a2.147,2.147,0,0,0,2.144-2.144V3.151a2.147,2.147,0,0,0-2.144-2.144H3.151A2.147,2.147,0,0,0,1.007,3.151V15.285a2.147,2.147,0,0,0,2.144,2.144Z" transform="translate(1 1)" fill="#fff"/><path d="M-1-1H31.8V5.726H-1ZM29.791,1.007H1.007V3.72H29.791Z" transform="translate(1.225 5.045)" fill="#fff"/><path d="M6.742,1.007H0V-1H6.742Z" transform="translate(22.13 15.384)" fill="#fff"/></g></g></svg>