<svg xmlns="http://www.w3.org/2000/svg" width="10.364" height="20" viewBox="0 0 10.364 20"><g transform="translate(-478.324 -3151.136)"><g transform="translate(478.324 3151.136)"><path d="M481.4,3171.136c0-.085-.011-.17-.011-.253v-8.866h-3.063v-3.555h3.063v-.251c0-.931-.019-1.862.019-2.792a4.447,4.447,0,0,1,1.168-2.985,4.1,4.1,0,0,1,2.2-1.177,8.363,8.363,0,0,1,2.08-.1c.565.021,1.129.069,1.694.108.044,0,.087.016.14.025v3.17h-.2c-.7.011-1.393,0-2.087.036a1.257,1.257,0,0,0-1.319,1.326c-.035.856-.012,1.717-.014,2.576a.274.274,0,0,0,.021.057h3.488l-.457,3.557h-3.042c-.007.076-.016.131-.016.186V3171c0,.044.007.09.011.137Z" transform="translate(-478.324 -3151.136)" fill="#fff"/></g></g></svg>