<svg xmlns="http://www.w3.org/2000/svg" width="19.978" height="20.037" viewBox="0 0 19.978 20.037"><path d="M1180.128,684.867c.506.089,1.018.149,1.515.271a6.634,6.634,0,0,1,2.683,1.391,7.175,7.175,0,0,1,2.04,8.3c-.234.553-.561,1.068-.858,1.625a1.211,1.211,0,0,0,.6.4.584.584,0,0,0,.37-.044.466.466,0,0,1,.482-.019,2.582,2.582,0,0,1,.548.4q2.343,2.4,4.67,4.817a.906.906,0,0,1-.017,1.408q-.609.594-1.224,1.182a.9.9,0,0,1-1.365-.019q-2.369-2.442-4.73-4.9a2.112,2.112,0,0,1-.343-.537.471.471,0,0,1,.044-.464.458.458,0,0,0,.055-.346,5.283,5.283,0,0,0-.312-.607c-.577.325-1.091.659-1.643.915a6.86,6.86,0,0,1-3.542.6,7.193,7.193,0,0,1-4.845-11.841,6.926,6.926,0,0,1,3.314-2.188c.5-.15,1.03-.211,1.546-.312.063-.013.127-.021.19-.032Zm4.569,7.207a4.965,4.965,0,1,0-4.968,4.961A4.98,4.98,0,0,0,1184.7,692.074Z" transform="translate(-1172.529 -684.867)" fill="#fff"/></svg>