<svg xmlns="http://www.w3.org/2000/svg" width="60" height="60" viewBox="0 0 60 60"><path d="M967.18,2821.427H925.547v-.5a8.691,8.691,0,0,0-8.681-8.681h-.5V2770.61h.5a8.691,8.691,0,0,0,8.681-8.681v-.5H967.18v.5a8.691,8.691,0,0,0,8.682,8.681h.5v41.635h-.5a8.691,8.691,0,0,0-8.682,8.681Zm-40.643-1H966.19a9.7,9.7,0,0,1,9.171-9.17V2771.6a9.7,9.7,0,0,1-9.171-9.17H926.537a9.7,9.7,0,0,1-9.17,9.17v39.654A9.7,9.7,0,0,1,926.537,2820.424Z" transform="translate(-916.364 -2761.427)" fill="#c8961b"/><g transform="translate(5.588 19.22)"><path d="M953.264,2800.12H931.03v-4.945h-4.84v-2.007h6.847v4.944h18.221V2782.59H933.037v4.944H926.19v-2.007h4.84v-4.944h22.234Z" transform="translate(-921.92 -2780.583)" fill="#fff"/><path d="M963.635,2800.108H951.174v-15.941h6.783a5.686,5.686,0,0,1,5.679,5.679Zm-10.455-2.007h8.448v-8.255a3.677,3.677,0,0,0-3.672-3.672h-4.776Z" transform="translate(-921.836 -2780.571)" fill="#fff"/><path d="M20.227,1.007H0V-1H20.227Z" transform="translate(0 9.765)" fill="#fff"/><path d="M940.4,2793.3l-1.264-1.559,1.736-1.408-1.736-1.409,1.264-1.558,3.657,2.967Z" transform="translate(-921.876 -2780.56)" fill="#fff"/><circle cx="2.023" cy="2.023" r="2.023" transform="translate(33.263 16.511)" fill="#c8961b"/><path d="M2.026-1A3.026,3.026,0,1,1-1,2.026,3.03,3.03,0,0,1,2.026-1Zm0,4.045A1.019,1.019,0,1,0,1.007,2.026,1.021,1.021,0,0,0,2.026,3.045Z" transform="translate(33.26 16.508)" fill="#fff"/><circle cx="2.023" cy="2.023" r="2.023" transform="translate(12.586 16.511)" fill="#c8961b"/><path d="M2.026-1A3.026,3.026,0,1,1-1,2.026,3.03,3.03,0,0,1,2.026-1Zm0,4.045A1.019,1.019,0,1,0,1.007,2.026,1.021,1.021,0,0,0,2.026,3.045Z" transform="translate(12.583 16.508)" fill="#fff"/></g></svg>