<svg xmlns="http://www.w3.org/2000/svg" width="54.577" height="43.694" viewBox="0 0 54.577 43.694"><g transform="translate(-241.622 -516.19)"><path d="M249.782,554.424c-1.264,0-2.541,0-3.818,0-1.1,0-1.613-.509-1.618-1.6,0-2.172,0-4.344,0-6.591-.443,0-.843.006-1.24,0a1.347,1.347,0,0,1-1.474-1.474c-.017-1.6-.007-3.2-.007-4.8V518.076c0-1.484.408-1.886,1.91-1.886h34.352c1.537,0,1.932.393,1.932,1.928v6.263h.76c2.452,0,4.905-.015,7.357,0a8.165,8.165,0,0,1,8.156,6.892,9.517,9.517,0,0,1,.1,1.657q.01,9.82,0,19.643c0,1.443-.41,1.847-1.875,1.847h-3.6a6.255,6.255,0,0,1-2.447,4.235,5.915,5.915,0,0,1-3.7,1.225,6.2,6.2,0,0,1-6.108-5.432H262.068a6.26,6.26,0,0,1-2.683,4.371,5.889,5.889,0,0,1-3.556,1.057C252.783,559.8,250.832,558.033,249.782,554.424Zm27.3-35.431h-32.7v24.47h32.7Zm2.748,27.247H247.114V551.7c.941,0,1.834.02,2.722-.02a.737.737,0,0,0,.472-.4,6.18,6.18,0,0,1,11.284,0,.825.825,0,0,0,.589.4q8.088.033,16.181,0a.926.926,0,0,0,.6-.393c.386-.531.653-1.159,1.085-1.644a6.133,6.133,0,0,1,10.112,1.458c.107.223.308.557.482.568.926.057,1.86.026,2.836.026v-.714q0-9.051,0-18.1a5.439,5.439,0,0,0-5.724-5.75c-2.41-.009-4.818,0-7.228,0h-.694Zm-20.488,7.47a3.4,3.4,0,1,0-3.368,3.43A3.393,3.393,0,0,0,259.343,553.71Zm28.661.024a3.4,3.4,0,1,0-3.392,3.406A3.394,3.394,0,0,0,288,553.734Z" transform="translate(0)"/><path d="M259.751,527.249c0-1.279,0-2.556,0-3.836a1.4,1.4,0,0,1,1.57-1.585c1.725-.015,3.451-.028,5.176,0a4.056,4.056,0,0,1,4.154,4.174c.022,1.725.013,3.452,0,5.176a1.381,1.381,0,0,1-1.565,1.581q-3.867.02-7.732,0a1.417,1.417,0,0,1-1.6-1.615C259.746,529.847,259.751,528.548,259.751,527.249Zm2.757,2.716h5.429c0-1.393.017-2.733-.009-4.074a1.238,1.238,0,0,0-1.116-1.277c-1.421-.044-2.844-.013-4.3-.013Z" transform="translate(21.445 6.652)"/></g></svg>