<svg xmlns="http://www.w3.org/2000/svg" width="20" height="20.037" viewBox="0 0 20 20.037"><g transform="translate(-452.178 -3151.274)"><g transform="translate(452.178 3151.274)"><path d="M466.526,3171.311h-8.789a6.617,6.617,0,0,0-.675-.151,5.231,5.231,0,0,1-4.794-5.062c-.117-3.235-.122-6.484.005-9.719a5.058,5.058,0,0,1,4.906-5c3.334-.151,6.685-.136,10.019,0a5.112,5.112,0,0,1,4.816,4.412c.04.2.11.394.165.589v9.739a4.371,4.371,0,0,0-.16.506,5.313,5.313,0,0,1-4.422,4.482C467.239,3171.182,466.883,3171.244,466.526,3171.311Zm3.78-10.032h.007c0-1.465.052-2.93-.013-4.392-.106-2.32-1.368-3.675-3.683-3.754-2.95-.1-5.907-.093-8.858,0-2.2.067-3.548,1.247-3.656,3.421-.156,3.153-.149,6.326.007,9.48a3.357,3.357,0,0,0,3.618,3.369c2.977.074,5.96.083,8.935-.005a3.508,3.508,0,0,0,3.627-3.645C470.361,3164.262,470.306,3162.768,470.306,3161.279Z" transform="translate(-452.178 -3151.274)" fill="#fff"/><path d="M465.181,3159.094a5.158,5.158,0,1,1-5.141-5.14A5.167,5.167,0,0,1,465.181,3159.094Zm-5.15,3.363a3.332,3.332,0,1,0-3.338-3.333A3.323,3.323,0,0,0,460.031,3162.458Z" transform="translate(-450.041 -3149.142)" fill="#fff"/><path d="M462.446,3154.394a1.178,1.178,0,0,1-1.208,1.171,1.159,1.159,0,0,1-1.165-1.207,1.2,1.2,0,0,1,1.2-1.187A1.213,1.213,0,0,1,462.446,3154.394Z" transform="translate(-445.899 -3149.765)" fill="#fff"/></g></g></svg>