<svg xmlns="http://www.w3.org/2000/svg" width="35.676" height="43.694" viewBox="0 0 35.676 43.694"><path d="M8.38,43.694a5.469,5.469,0,0,1-3.939-1.7,6.066,6.066,0,0,1-1.6-4.149V13.576A4.319,4.319,0,0,1,4.32,5.2H8.94V4.451A4.426,4.426,0,0,1,13.36,0h8.952a4.425,4.425,0,0,1,4.424,4.453V5.2h4.621a4.319,4.319,0,0,1,1.478,8.378V37.844a6.064,6.064,0,0,1-1.6,4.149,5.445,5.445,0,0,1-3.933,1.7Zm-2.543-5.85a2.681,2.681,0,0,0,2.543,2.85H27.3a2.678,2.678,0,0,0,2.537-2.85V13.8h-24ZM3.018,9.5a1.3,1.3,0,0,0,1.3,1.3H31.356a1.3,1.3,0,0,0,0-2.6H4.32A1.3,1.3,0,0,0,3.018,9.5Zm9.343-6.084a1.41,1.41,0,0,0-.421,1.03V5.2h11.8V4.444A1.426,1.426,0,0,0,22.284,3H13.36A1.4,1.4,0,0,0,12.361,3.414Zm9.876,32.45v-18.9a1.5,1.5,0,0,1,3,0v18.9a1.5,1.5,0,1,1-3,0Zm-5.9,0v-18.9a1.5,1.5,0,0,1,3,0v18.9a1.5,1.5,0,1,1-3,0Zm-5.9,0v-18.9a1.5,1.5,0,0,1,3,0v18.9a1.5,1.5,0,1,1-3,0Z" transform="translate(0)" fill="#fff"/></svg>