<svg xmlns="http://www.w3.org/2000/svg" width="16.847" height="20" viewBox="0 0 16.847 20"><g transform="translate(-914.631 -3150.146)"><path d="M928.392,3153.561c-.588,3.809-3.023,5.943-6.261,5.943h-2.787c-.461,0-.762.307-.9,1.092l-1.106,7.016c-.087.55.027.8.362.8h3.546c.215-.02.363-.181.4-.457l.637-4.265c.108-.738.384-1.006.792-1.006h1.505c2.983,0,5.232-2.057,5.521-5.776A3.072,3.072,0,0,0,928.392,3153.561Z" transform="translate(1.356 1.73)" fill="#fff" opacity="0.6"/><path d="M921.829,3154.854h5.642a5.394,5.394,0,0,1,2.278.437c.041-.259.1-.5.119-.779a3.844,3.844,0,0,0-1.181-3.2c-1.256-1.107-3.144-1.162-4.736-1.162H918.3a1,1,0,0,0-1.134.94l-2.505,15.856c-.1.646.039.935.423.935h3.479c.249-.021.383-.209.437-.532l.779-4.948c0-.029.012-.045.018-.071l1.05-6.666A.861.861,0,0,1,921.829,3154.854Z" fill="#fff"/><path d="M918.963,3159.651h2.787c3.237,0,5.673-2.135,6.261-5.943a5.394,5.394,0,0,0-2.278-.437h-5.642a.861.861,0,0,0-.981.806l-1.05,6.666C918.2,3159.958,918.5,3159.651,918.963,3159.651Z" transform="translate(1.737 1.583)" fill="#fff" opacity="0.85"/></g></svg>