<svg xmlns="http://www.w3.org/2000/svg" width="62.068" height="20.001" viewBox="0 0 62.068 20.001"><g transform="translate(-821.848 -3153.047)"><g transform="translate(821.848 3153.047)"><path d="M856.29,3172.52c-1.394,0-2.789,0-4.18.016-.343,0-.5-.089-.562-.447-.134-.794-.324-1.576-.5-2.4-.163-.016-.316-.045-.468-.045-1.82,0-3.637.008-5.454-.014a.61.61,0,0,0-.7.487c-.222.69-.468,1.373-.747,2.042a.638.638,0,0,1-.439.355c-1.614.026-3.23.017-4.916.017.091-.232.155-.418.23-.6q3.549-8.465,7.1-16.935a2.455,2.455,0,0,1,2.73-1.819c1.271,0,2.54,0,3.848,0,.426,2.031.846,4.018,1.26,6L856.177,3172a1.637,1.637,0,0,0,.112.271Zm-6.085-6.886-1.464-7-.12-.011-2.548,7.007Z" transform="translate(-794.222 -3152.836)" fill="#fff"/><path d="M821.848,3153.528c.179-.114.356-.329.535-.331q4-.034,8-.009a2.355,2.355,0,0,1,2.462,2.125c.629,3.284,1.236,6.57,1.854,9.856.059.313.126.624.222,1.1.139-.3.222-.466.289-.634,1.568-3.947,3.142-7.895,4.686-11.853a.811.811,0,0,1,.918-.613c1.493.032,2.987.011,4.544.011a4.343,4.343,0,0,1-.139.477q-3.866,9.221-7.731,18.438a.606.606,0,0,1-.664.449c-1.392-.021-2.789-.034-4.18,0-.524.017-.717-.154-.845-.655-1.239-4.876-2.526-9.744-3.749-14.625a2.705,2.705,0,0,0-1.82-2.139c-1.453-.477-2.92-.907-4.384-1.356Z" transform="translate(-821.848 -3152.844)" fill="#fff"/><path d="M848.253,3153.919l-.854,3.974a24.663,24.663,0,0,0-2.9-.689,10.043,10.043,0,0,0-2.583.066,2.531,2.531,0,0,0-1.2.635,1.09,1.09,0,0,0-.032,1.7,8.385,8.385,0,0,0,1.424,1.009c.88.53,1.8.991,2.676,1.531,3.977,2.468,2.746,7.215.179,9.08a10.36,10.36,0,0,1-6.166,1.817,16.241,16.241,0,0,1-5.069-.744c-.527-.161-.749-.345-.578-.963.313-1.143.514-2.315.773-3.535.311.131.583.243.851.358a9.131,9.131,0,0,0,5.379.693,3.309,3.309,0,0,0,1.266-.539,1.393,1.393,0,0,0,.147-2.28,13.417,13.417,0,0,0-1.812-1.187c-.827-.5-1.71-.918-2.489-1.482-3.449-2.5-2.285-6.409-.217-8.179a9.785,9.785,0,0,1,6.647-2.141A12.422,12.422,0,0,1,848.253,3153.919Z" transform="translate(-802.993 -3153.047)" fill="#fff"/><path d="M829.908,3172.506l4.145-19.319h5.01c-.268,1.244-.519,2.44-.776,3.637q-1.63,7.591-3.249,15.18c-.083.4-.233.519-.629.511C832.937,3172.494,831.465,3172.506,829.908,3172.506Z" transform="translate(-808.338 -3152.815)" fill="#fff"/></g></g></svg>