<svg xmlns="http://www.w3.org/2000/svg" width="32.358" height="20" viewBox="0 0 32.358 20"><g transform="translate(-869.318 -3149.872)"><path d="M891.728,3161.187v-.388h-.1l-.117.266-.116-.266h-.1v.388h.071v-.292l.11.253h.074l.11-.253v.292Zm-.641,0v-.321h.129v-.065h-.33v.065h.129v.321h.072Z" transform="translate(9.636 4.882)" fill="#e8963a"/><path d="M886.227,3167.073h-8.75V3151.35h8.75Z" transform="translate(3.645 0.66)" fill="#ec692c"/><path d="M881.676,3159.872a9.983,9.983,0,0,1,3.819-7.861,10,10,0,1,0,0,15.723,9.983,9.983,0,0,1-3.819-7.862" transform="translate(0 0)" fill="#d72e2b"/><path d="M896.68,3159.872a10,10,0,0,1-16.179,7.862,10,10,0,0,0,0-15.723,10,10,0,0,1,16.179,7.861" transform="translate(4.996 0)" fill="#e99f40"/></g></svg>