<svg xmlns="http://www.w3.org/2000/svg" width="60" height="60" viewBox="0 0 60 60"><path d="M447.253,2822.694H405.62v-.5a8.691,8.691,0,0,0-8.681-8.681h-.5v-41.634h.5a8.691,8.691,0,0,0,8.681-8.682v-.5h41.634v.5a8.692,8.692,0,0,0,8.682,8.682h.5v41.634h-.5a8.691,8.691,0,0,0-8.682,8.681Zm-40.643-1h39.653a9.7,9.7,0,0,1,9.171-9.17v-39.653a9.7,9.7,0,0,1-9.171-9.171H406.61a9.7,9.7,0,0,1-9.17,9.171v39.653A9.7,9.7,0,0,1,406.61,2821.691Z" transform="translate(-396.437 -2762.694)" fill="#c8961b"/><g transform="translate(18.433 15.707)"><path d="M2.751-1H18.382a3.755,3.755,0,0,1,3.751,3.751V15.685a3.755,3.755,0,0,1-3.751,3.751H2.751A3.755,3.755,0,0,1-1,15.685V2.751A3.755,3.755,0,0,1,2.751-1ZM18.382,17.429a1.746,1.746,0,0,0,1.744-1.744V2.751a1.746,1.746,0,0,0-1.744-1.744H2.751A1.746,1.746,0,0,0,1.007,2.751V15.685a1.746,1.746,0,0,0,1.744,1.744Z" transform="translate(1 9.09)" fill="#fff"/><path d="M0,3.928a1,1,0,0,1-1-1V0A1,1,0,0,1,1.007,0V2.925A1,1,0,0,1,0,3.928Z" transform="translate(11.563 18.305)" fill="#fff"/><path d="M433.432,2786.994h-2.007v-1.573a5.065,5.065,0,0,0-10.13,0v1.573h-2.007v-1.573a7.072,7.072,0,0,1,14.143,0Z" transform="translate(-414.794 -2778.349)" fill="#fff"/><circle cx="1.573" cy="1.573" r="1.573" transform="translate(9.993 15.836)" fill="#fff"/></g></svg>