<svg xmlns="http://www.w3.org/2000/svg" width="1400" height="41.931" viewBox="0 0 1400 41.931"><path d="M-5,663.113H1395v-40.1a8.242,8.242,0,0,0-5.1,3.208c-2.916,4.375-4.375,2.917-7.291,1.458s-3.646,1.459-8.022,1.459-3.646-1.459-7.291-1.459a16.237,16.237,0,0,0-6.562,1.459h-38.646c-5.833,0-7.291-2.187-12.4-2.187s-5.833,1.458-8.386,2.916-6.2.73-7.656-1.458-2.187-2.187-2.187-2.187h-7.291s-5.1,0-5.1,1.458-2.187,2.188-2.187,2.188a3.914,3.914,0,0,1-4.375-2.187c-1.458-2.916-5.1-1.458-9.479-2.187s-4.375-.729-6.562,1.459-5.031,2.916-9.844,2.916-8.385-1.458-9.114-1.458-7.292-2.917-10.937-2.187-5.1,1.458-8.02-.729-5.1-1.458-9.479-2.916-7.292-.729-7.292,1.458-3.646,2.917-8.021,2.917-7.292-1.459-10.208.728-5.1,1.459-5.1,1.459-19.687.729-22.021.729c-2.406,0-4.229,0-6.417-2.916s-7.292.728-12.4,1.458a25.219,25.219,0,0,1-13.125-1.458c-3.646-1.459-4.375-2.188-5.834,0s-2.989,2.187-2.989,2.187h-17.937s-8.239,1.458-10.427,0-5.1-2.187-10.209-2.187-7.291,0-10.208-2.917-8.75-1.458-13.125,0-2.917,3.645-7.292,2.917-5.833-1.459-12.4.728-10.208,1.459-13.854,1.459-6.562,0-8.021-1.459-2.187-1.458-6.562-1.458-7.292,0-8.75.73-2.187,2.187-5.833,2.187.729-2.917-7.292-2.917-8.021,1.458-8.75,2.188-4.375,1.458-9.479,0-8.75-2.187-14.583,0-10.937.729-17.5.729-25.52,1.458-28.437,0-5.833-.729-10.937-.729-5.1-1.458-7.292-1.458-1.458,2.187-5.1,2.187-3.646-5.834-7.292-7.292-5.833,2.188-10.208,2.917-6.562,1.458-13.125,3.646-12.4.729-16.772-.729-10.937-1.458-14.583-3.645-6.562-1.458-7.292-.73-2.187,4.375-9.478.73-13.125-2.188-17.5-.73-3.647,3.647-9.48,3.647-12.4,1.458-15.312,1.458-8.75-3.646-10.937-1.458-2.917,1.458-8.75.728-9.48,0-12.4-1.458-6.562-3.646-11.667-4.375-9.479,1.458-13.125,2.917-6.562.729-7.292,0-4.375-3.646-7.291-.729-8.022,1.458-14.584,3.645a46.924,46.924,0,0,1-15.312,2.188c-2.916,0-6.562-3.646-10.208-3.646s-6.562-2.187-10.937-4.375-6.562,1.458-8.021,5.1-5.1,2.187-6.562.728-3.647-.728-5.834.729-4.375,0-8.75-.729a12.969,12.969,0,0,0-8.021,1.459H563.021c-6.562,0-8.75-2.187-12.4-2.187s-5.1.728-8.75,1.458-6.562,2.188-8.75,0-.73-1.458-5.833-1.458-8.021-2.917-8.021,0-2.916,2.187-2.916,2.187-2.917.729-4.375-1.459-3.647-1.458-7.292-2.187-6.563-.729-8.021,2.188-5.1,1.459-8.75,1.459a30.206,30.206,0,0,1-10.937-1.459c-4.375-1.458-8.022-2.187-11.667-1.458s-4.375,2.188-7.292,0-4.375-2.187-7.291-2.917-8.75-1.458-10.209,1.459-7.291,2.188-13.125,2.188-3.646,2.187-9.478,2.187-18.011.729-18.011.729-6.781.73-8.969-2.187-5.833-1.458-11.667,0-8.021.729-11.666,0-8.022-3.645-9.48-.728-2.917,2.916-12.4,2.187-10.209.729-14.73.729-5.687-1.458-6.417-2.187-1.458-.728-7.291-.728-8.75-1.459-10.937-2.917-9.479-2.188-14.584,1.458-8.021.729-10.208,0-8.75,1.459-10.937,2.188-5.833,1.459-5.833,1.459h-9.48c-3.645,0-4.375-3.646-7.292-3.646s-6.562.729-9.478.729-3.647,3.646-5.834,3.646-1.458,0-2.916-2.187-2.917,0-9.48-.728-4.375,2.916-9.261,2.916-8.239-5.1-14.072-2.916a40.436,40.436,0,0,1-11.23,2.406H149.511c-3.647,0-7.948-.948-12.323-.948a38.03,38.03,0,0,1-10.208-1.458c-2.917-.73-3.647,2.333-5.25,2.333s-1.312,1.313-4.959-4.521-6.562-2.187-8.75-.729-7.291,1.458-13.853,3.645-7.292,1.459-14.584,1.459-21.875-6.562-24.791-6.562-2.917,3.646-6.562,3.646-5.834-4.375-16.042-4.375-10.937,5.1-13.855,5.1-5.1.728-13.853.728A58.837,58.837,0,0,1-5,627.019v36.094Z" transform="translate(5 -621.182)" fill="#fff"/></svg>