<svg xmlns="http://www.w3.org/2000/svg" width="1400" height="41.932" viewBox="0 0 1400 41.932"><path d="M-5,2918.6H1395v-40.1a8.245,8.245,0,0,0-5.1,3.208c-2.916,4.375-4.375,2.917-7.291,1.459s-3.646,1.458-8.022,1.458-3.646-1.458-7.291-1.458a16.246,16.246,0,0,0-6.562,1.458h-38.646c-5.833,0-7.291-2.187-12.4-2.187s-5.833,1.458-8.386,2.917-6.2.729-7.656-1.459-2.187-2.187-2.187-2.187h-7.291s-5.1,0-5.1,1.459-2.187,2.188-2.187,2.188a3.916,3.916,0,0,1-4.375-2.187c-1.458-2.917-5.1-1.459-9.479-2.187s-4.375-.729-6.562,1.458-5.031,2.917-9.844,2.917-8.385-1.459-9.114-1.459-7.292-2.916-10.937-2.187-5.1,1.459-8.02-.729-5.1-1.459-9.479-2.917-7.292-.729-7.292,1.458-3.646,2.917-8.021,2.917-7.292-1.458-10.208.729-5.1,1.458-5.1,1.458-19.687.729-22.021.729c-2.406,0-4.229,0-6.417-2.917s-7.292.729-12.4,1.458a25.218,25.218,0,0,1-13.125-1.458c-3.646-1.458-4.375-2.187-5.834,0s-2.989,2.188-2.989,2.188h-17.937s-8.239,1.458-10.427,0-5.1-2.187-10.209-2.187-7.291,0-10.208-2.917-8.75-1.458-13.125,0-2.917,3.647-7.292,2.917-5.833-1.458-12.4.729-10.208,1.458-13.854,1.458-6.562,0-8.021-1.458-2.187-1.459-6.562-1.459-7.292,0-8.75.729-2.187,2.188-5.833,2.188.729-2.917-7.292-2.917-8.021,1.459-8.75,2.187-4.375,1.459-9.479,0-8.75-2.187-14.583,0-10.937.73-17.5.73-25.52,1.458-28.437,0-5.833-.73-10.937-.73-5.1-1.458-7.292-1.458-1.458,2.188-5.1,2.188-3.646-5.833-7.292-7.292-5.833,2.187-10.208,2.917-6.562,1.458-13.125,3.645-12.4.73-16.772-.728-10.937-1.459-14.583-3.647-6.562-1.458-7.292-.728-2.187,4.375-9.478.728-13.125-2.187-17.5-.728-3.647,3.646-9.48,3.646-12.4,1.458-15.312,1.458-8.75-3.645-10.937-1.458-2.917,1.458-8.75.729-9.48,0-12.4-1.459-6.562-3.646-11.667-4.375-9.479,1.459-13.125,2.917-6.562.729-7.292,0-4.375-3.646-7.291-.73-8.022,1.459-14.584,3.647a46.924,46.924,0,0,1-15.312,2.188c-2.916,0-6.562-3.646-10.208-3.646s-6.562-2.188-10.937-4.375-6.562,1.459-8.021,5.1-5.1,2.188-6.562.729-3.647-.729-5.834.728-4.375,0-8.75-.728a12.964,12.964,0,0,0-8.021,1.458H563.021c-6.562,0-8.75-2.187-12.4-2.187s-5.1.729-8.75,1.458-6.562,2.188-8.75,0-.73-1.458-5.833-1.458-8.021-2.917-8.021,0-2.916,2.188-2.916,2.188-2.917.729-4.375-1.458-3.647-1.459-7.292-2.187-6.563-.729-8.021,2.188-5.1,1.458-8.75,1.458a30.225,30.225,0,0,1-10.937-1.458c-4.375-1.459-8.022-2.187-11.667-1.459s-4.375,2.187-7.292,0-4.375-2.188-7.291-2.916-8.75-1.459-10.209,1.458-7.291,2.188-13.125,2.188-3.646,2.188-9.478,2.188-18.011.729-18.011.729-6.781.729-8.969-2.187-5.833-1.459-11.667,0-8.021.728-11.666,0-8.022-3.647-9.48-.729-2.917,2.917-12.4,2.188-10.209.729-14.73.729-5.687-1.459-6.417-2.187-1.458-.729-7.291-.729-8.75-1.458-10.937-2.917-9.479-2.187-14.584,1.459-8.021.729-10.208,0-8.75,1.458-10.937,2.188-5.833,1.458-5.833,1.458h-9.48c-3.645,0-4.375-3.646-7.292-3.646s-6.562.729-9.478.729-3.647,3.646-5.834,3.646-1.458,0-2.916-2.187-2.917,0-9.48-.729-4.375,2.917-9.261,2.917-8.239-5.1-14.072-2.917a40.433,40.433,0,0,1-11.23,2.406H149.511c-3.647,0-7.948-.948-12.323-.948a37.989,37.989,0,0,1-10.208-1.458c-2.917-.729-3.647,2.333-5.25,2.333s-1.312,1.313-4.959-4.521-6.562-2.187-8.75-.73-7.291,1.459-13.853,3.647-7.292,1.458-14.584,1.458-21.875-6.562-24.791-6.562-2.917,3.646-6.562,3.646-5.834-4.375-16.042-4.375-10.937,5.1-13.855,5.1-5.1.729-13.853.729A58.959,58.959,0,0,1-5,2882.5V2918.6Z" transform="translate(5 -2876.664)"/></svg>