<svg xmlns="http://www.w3.org/2000/svg" width="99.7" height="99.284" viewBox="0 0 99.7 99.284"><g transform="translate(-633.15 -421.785)"><path d="M668.626,512.642a4.545,4.545,0,0,1,3.319-1.539,4.683,4.683,0,0,1,1.422.079,4.886,4.886,0,0,1,3.033,2.449,4.156,4.156,0,0,1,.42,3.03c-.476,1.952-1.535,3.491-3.649,3.751a6.888,6.888,0,0,1-2.383.014,4.175,4.175,0,0,1-2.952-2.713,4.406,4.406,0,0,1-.266-2.934A5.65,5.65,0,0,1,668.626,512.642Zm2.611,6.554c1.936.471,3.112-.564,3.556-2.39.44-1.81.253-3.906-1.879-4.428-1.923-.467-3.1.583-3.546,2.408C668.946,516.513,669.2,518.7,671.237,519.2Z" fill="#fff"/><path d="M660.911,506.073a.379.379,0,0,1,.121.079,2.547,2.547,0,0,1,1.436,2.243c.1.621.279,2.684.647,3.072a1.051,1.051,0,0,0,.287.23c.537.28.943-.47,1.142-.853l.2-.384c.239-.46.394-.884-.075-1.324-.178-.158-.5-.409-.356-.691.16-.307.954-.022,1.184.1s.436.26.666.379c.332.174.691.327,1.038.508.28.147,1.011.526.8.923-.232.447-1.083-.483-1.972.7a10.375,10.375,0,0,0-.968,1.514c-.153.294-.293.6-.433.9-.2.416-.415.826-.628,1.235l-.241.462c-.273.524-.645,1.273-.314,1.853.113.19.506.654.393.871-.208.4-1.494-.257-1.891-.463l-.46-.241c-1.639-.853-4.069-2.216-2.968-4.326a2.6,2.6,0,0,1,2.164-1.347c.233-.009.465.013.691-.014.1-.011.173-.022.228-.126.18-.345-.127-1.286-.231-1.65a13.738,13.738,0,0,0-.9-2.518c-.163-.28-.452-.822-.285-1.14C660.322,505.8,660.732,505.979,660.911,506.073Zm.1,9.715.065.034c.716.372,1.573-1.085,1.833-1.584.273-.526.692-1.363-.023-1.738a2.715,2.715,0,0,0-.539-.183c-1.151-.257-1.508.208-2,1.156A1.728,1.728,0,0,0,661.01,515.788Z" fill="#fff"/><path d="M651.365,501.736c.293-.336.483-.747.776-1.083a.826.826,0,0,1,.826-.372,8.525,8.525,0,0,1,2.747,1.6,5.36,5.36,0,0,1,1.338,1.692c1.108,2.374,1.026,3.933-.734,5.944a4.5,4.5,0,0,1-5.6.582,11.8,11.8,0,0,1-1.615-1.2c-1.1-.961-2.243-2.525-1.052-3.881.169-.2.715-.794,1-.546.5.438-.812,2.284,1.045,3.911a3.416,3.416,0,0,0,4.534,0,11.4,11.4,0,0,0,.968-1,2.286,2.286,0,0,0,.713-1.755c0-.327.029-.648.009-.973a3.224,3.224,0,0,0-.991-1.81c-.108-.115-.221-.25-.34-.354a1.335,1.335,0,0,0-2.07.1c-1.056,1.207.355,1.656-.16,2.243-.334.379-.864-.088-1.137-.325-.379-.334-.711-.72-1.092-1.054-.3-.266-.641-.562-.506-1a.229.229,0,0,1,.056-.085C650.532,501.853,651,502.149,651.365,501.736Z" fill="#fff"/><path d="M639.233,495.517c.533-.167.449-.059.856.2.433.282.882.048,1.266-.21.178-.122.354-.275.546-.4,1.135-.767,3.5-2.347,4.854-2.322a3.78,3.78,0,0,1,2.714,1.7,4.588,4.588,0,0,1,.729,1.927c.188,1.927-1.139,2.929-2.572,3.9-.837.566-1.742,1.056-2.591,1.629-.873.589.271,1.329-.3,1.717-.431.292-.874-.261-1.092-.584-.273-.408-.445-.867-.711-1.261-.17-.251-.375-.477-.546-.729s-.5-1.02-.152-1.255a.33.33,0,0,1,.258-.034c.735.165.586,1.309,1.832.677a11.965,11.965,0,0,0,1.228-.76l.381-.258c.9-.6,2.327-1.606,2.53-2.387a2.591,2.591,0,0,0-.224-2.009,1.934,1.934,0,0,0-.776-.658c-1.275-.6-2.579.176-3.651.83-.614.381-1.228.76-1.851,1.18-.239.16-.776.524-.758.808.011.429.542,1.113.041,1.453-.334.226-.856-.519-1.05-.8l-.04-.061a12.534,12.534,0,0,1-1.056-1.846c-.025-.14-.041-.318.09-.409Z" fill="#fff"/><path d="M643.717,483.071c.151.407.242.82.388,1.212.242.65.519,1.273.811,1.889.39.84.713,1.706,1.035,2.573l.061.162c.086.23.409,1.1.165,1.189a.583.583,0,0,1-.329-.015c-.623-.185-.208-1.219-1.571-.865-.77.208-1.532.479-2.291.761-.663.246-1.3.514-1.956.79-.456.185-1.837.7-1.943,1.2-.065.363.117.774-.357.95-.27.1-.44.057-.546-.228-.061-.162-.081-.34-.142-.5-.1-.271-.291-.492-.392-.763-.136-.365-.136-.781-.274-1.146-.049-.135-.126-.262-.171-.384-.086-.23-.228-.733.083-.848.366-.136.919.891,2.092.609a17.635,17.635,0,0,0,2.2-.713l.582-.217c.528-.2,1.052-.406,1.55-.638,1.445-.677,1.733-.77,1.133-2.381-.282-.758-.632-1.492-1.539-1.568-.284-.018-1.085.065-1.207-.26s1.063-.873,1.306-.966C642.788,482.771,643.53,482.571,643.717,483.071Z" fill="#fff"/><path d="M642.237,474.307c.059.428.059.853.117,1.268.095.686.23,1.354.379,2.02.2.9.325,1.821.452,2.737l.022.171c.034.244.161,1.16-.1,1.2a.57.57,0,0,1-.318-.088c-.569-.315.063-1.234-1.345-1.184-.8.036-1.6.133-2.4.243-.7.1-1.384.219-2.081.346-.485.081-1.945.282-2.159.749-.143.341-.052.781-.553.851-.287.038-.443-.041-.485-.343-.023-.172-.005-.35-.028-.522-.04-.286-.178-.543-.216-.83-.054-.386.036-.792-.018-1.178-.018-.144-.068-.284-.086-.413-.034-.241-.061-.763.269-.81.385-.052.7,1.072,1.909,1.049a17.4,17.4,0,0,0,2.3-.214l.616-.086c.557-.077,1.115-.167,1.652-.287,1.557-.345,1.859-.372,1.624-2.076-.11-.8-.291-1.593-1.162-1.866-.273-.079-1.074-.174-1.121-.517s1.227-.622,1.485-.656C641.4,473.81,642.165,473.776,642.237,474.307Z" fill="#fff"/><path d="M640.54,463.784a4.533,4.533,0,0,1,2.015,3.053,4.621,4.621,0,0,1,.133,1.42,4.885,4.885,0,0,1-1.974,3.36,4.149,4.149,0,0,1-2.934.864c-2-.18-3.68-1-4.249-3.053a6.812,6.812,0,0,1-.368-2.354,4.178,4.178,0,0,1,2.245-3.322,4.411,4.411,0,0,1,2.864-.7A5.623,5.623,0,0,1,640.54,463.784Zm-6.095,3.552c-.178,1.984,1.02,2.992,2.891,3.162,1.854.169,3.9-.328,4.1-2.514.178-1.97-1.036-2.981-2.9-3.151C636.76,464.673,634.634,465.249,634.445,467.336Z" fill="#fff"/><path d="M646.68,448.482a4.529,4.529,0,0,1,.716,3.588,4.609,4.609,0,0,1-.411,1.363,4.889,4.889,0,0,1-3.094,2.369,4.163,4.163,0,0,1-3.046-.3c-1.783-.921-3.031-2.313-2.785-4.43a6.813,6.813,0,0,1,.548-2.318,4.167,4.167,0,0,1,3.331-2.231,4.4,4.4,0,0,1,2.913.433A5.632,5.632,0,0,1,646.68,448.482Zm-6.984.993c-.914,1.771-.183,3.157,1.485,4.019s3.739,1.166,4.746-.785c.909-1.758.164-3.151-1.5-4.013C642.844,447.882,640.657,447.613,639.7,449.475Z" fill="#fff"/><path d="M654.423,442.883c-.276.316-.707.458-.982.774-.1.12-.207.26-.32.391a.631.631,0,0,1-.871.142c-.316-.276-.043-.632.079-.928a.345.345,0,0,0-.115-.483,3.572,3.572,0,0,0-1.237-.58.973.973,0,0,0-.975.416c-.124.142-.223.322-.357.476s-.257.273-.381.415a.821.821,0,0,0-.248.571,2.272,2.272,0,0,0,.433,1.505c.4.35,1.345.061,1.7.363.3.267-.641,1.418-.84,1.645-.255.3-1.074,1.192-1.5.822-.589-.512.311-1.395-.135-2.4-.352-.785-.991-1.437-1.4-2.2-.257-.453-.5-.916-.769-1.358a9.462,9.462,0,0,1-1.35-2.764,1.614,1.614,0,0,1,.332-1,.725.725,0,0,1,.878-.173,17.131,17.131,0,0,1,1.647.726c.921.418,1.839.815,2.737,1.232,1,.465,2,1.133,3.146.921.253-.05.9-.248,1.11-.068C655.262,441.565,654.6,442.676,654.423,442.883Zm-7.17-1.645c-.216.251.174,1.32.413,1.528a1.061,1.061,0,0,0,1.345-.113.775.775,0,0,0,0-1.126C648.7,441.252,647.585,440.857,647.253,441.238Z" fill="#fff"/><path d="M658.051,429.395a9.532,9.532,0,0,0-.5.919,8.745,8.745,0,0,0-.291,2.723,1.569,1.569,0,0,0,.194.957,2.856,2.856,0,0,0,1.248.8c.616.273,2.663,1.183,3.238,1.025.339-.1.652-.4.926-.016.3.426-.526,1.11-.822,1.318-.4.282-.893.433-1.3.715-.215.149-.321.4-.533.548a.507.507,0,0,1-.735-.171c-.233-.33.483-1.043.061-1.645a1.842,1.842,0,0,0-1.914-.492,1.039,1.039,0,0,0-.339.7c-.092.521-.268,1.4.055,1.864.257.366.974.409,1.074.551.2.284-.792,1.031-.993,1.173-.26.181-.549.3-.8.47-.178.124-.309.288-.474.4s-.259.11-.374-.055a.546.546,0,0,1-.066-.571,2.678,2.678,0,0,0,.312-1.241,9.662,9.662,0,0,1,.074-1.374,8.731,8.731,0,0,1,.1-1.02,1.69,1.69,0,0,0-.045-1.343,2.138,2.138,0,0,0-.81-.753,7.531,7.531,0,0,0-1.045-.359,4.4,4.4,0,0,0-2.473-.436c-.242.084-.6.228-.781-.031a.839.839,0,0,1,.005-.673.754.754,0,0,1,.288-.343c.425-.3.9-.494,1.318-.785.249-.174.472-.384.72-.558.14-.1.508-.356.657-.142.307.436-.447.718-.217,1.05a10.268,10.268,0,0,0,1.571.855c.21.1.478.228.69.079.33-.233.359-1.221.31-1.593a1.632,1.632,0,0,0-.244-.675c-.282-.4-.688-.327-.828-.528-.273-.39.559-1.009.986-1.309l.212-.149c.307-.214,1.365-.941,1.607-.6A.633.633,0,0,1,658.051,429.395Z" fill="#fff"/><path d="M671.354,432.882c-.39.151-.837.074-1.227.225-.149.057-.3.131-.467.194a.627.627,0,0,1-.835-.282c-.149-.39.257-.577.5-.78.185-.165.214-.253.126-.481a3.64,3.64,0,0,0-.823-1.092.965.965,0,0,0-1.054-.088c-.176.067-.348.18-.537.252s-.355.122-.531.19a.817.817,0,0,0-.485.386,2.263,2.263,0,0,0-.323,1.532c.192.5,1.16.684,1.325,1.115.147.377-1.225.95-1.51,1.058-.363.14-1.505.551-1.706.025-.279-.729.928-1.085,1-2.18.057-.857-.2-1.731-.21-2.6-.015-.519-.015-1.045-.045-1.559a9.5,9.5,0,0,1,.1-3.072,1.631,1.631,0,0,1,.758-.724.725.725,0,0,1,.858.26,16.973,16.973,0,0,1,1.114,1.41c.616.8,1.242,1.577,1.84,2.369.661.874,1.238,1.934,2.346,2.282.246.077.914.205,1.014.46C672.713,432.112,671.612,432.782,671.354,432.882Zm-5.56-4.8c-.309.12-.463,1.246-.35,1.542a1.068,1.068,0,0,0,1.241.53.779.779,0,0,0,.531-.993C667.064,428.766,666.266,427.9,665.794,428.077Z" fill="#fff"/><path d="M688,434.721c-1.837.217-7.927-1.83-10.037-2.44a19.948,19.948,0,0,1-2.291-.674,3.989,3.989,0,0,1-1.067-.661,5.764,5.764,0,0,1-1.887-3.794,4.311,4.311,0,0,1,3.126-4.82,6.78,6.78,0,0,1,1.2-.228c3.157-.372,4.894,1.036,5.264,4.179a4.5,4.5,0,0,1-.322,2.571,6.335,6.335,0,0,1-.973,1.25c-.192.212-.627.6-.591.914.083.7,2.818,1.442,3.466,1.627a10.859,10.859,0,0,0,4.184.438c.49-.057.966-.2,1.469-.26.2-.025.519-.034.553.255C690.17,433.753,688.572,434.653,688,434.721Zm-7.6-8.794a3.361,3.361,0,0,0-3.484-2.907c-2.169.255-2.618,2.112-2.4,3.992.239,2.024,1.085,4.019,3.5,3.735a4.415,4.415,0,0,0,1.532-.456c1.187-.679,1.072-2.645.934-3.807C680.458,426.3,680.435,426.112,680.4,425.927Z" fill="#fff"/><path d="M694.367,423.537c-.228.508-.255.375-.722.5-.5.138-.623.632-.683,1.09-.03.214-.032.447-.061.677-.183,1.358-.571,4.177-1.492,5.177a3.785,3.785,0,0,1-3.076.9,4.6,4.6,0,0,1-1.927-.738c-1.568-1.141-1.435-2.8-1.207-4.515.133-1,.37-2.006.505-3.022.138-1.045-1.178-.681-1.085-1.37.067-.514.776-.478,1.164-.426.485.063.943.241,1.415.305.3.04.607.036.907.076.316.041,1.1.307,1.041.722a.324.324,0,0,1-.145.213c-.611.444-1.37-.429-1.724.923a11.592,11.592,0,0,0-.248,1.423l-.061.459c-.142,1.071-.345,2.809.106,3.479a2.583,2.583,0,0,0,1.65,1.167,1.931,1.931,0,0,0,1.011-.142c1.3-.555,1.581-2.047,1.8-3.286.124-.711.248-1.424.347-2.168.039-.285.124-.93-.1-1.106-.327-.276-1.194-.334-1.113-.934.052-.4.957-.3,1.3-.251l.072.011a12.52,12.52,0,0,1,2.083.436c.122.074.266.183.246.341Z" fill="#fff"/><path d="M700.356,434.935a7.341,7.341,0,0,1-1.437-.449c-.7-.271-1.4-.555-2.1-.828a6.137,6.137,0,0,0-.838-.278,8.052,8.052,0,0,1-1.02-.286c-.471-.183-.911-.447-.972-1.011a.24.24,0,0,1,.013-.151c.052-.133.623-.052.765-.059a1.746,1.746,0,0,0,.486-.169,4.742,4.742,0,0,0,1.482-2.307l.167-.431a25.279,25.279,0,0,0,1.153-3.38.462.462,0,0,0-.149-.336c-.194-.215-.828-.661-.7-1a.276.276,0,0,1,.093-.119c.3-.255,1.8.325,2.159.465.5.194.973.408,1.456.641a10.632,10.632,0,0,0,1.069.478c1.147.442,2.151.846,1.593,2.288-.094.244-.356.716-.679.589a.53.53,0,0,1-.259-.286c-.508-.971-.154-1.485-1.325-2.061a4.085,4.085,0,0,0-.411-.176c-.729-.282-1.083-.248-1.446.492a9.164,9.164,0,0,0-.375.849c-.2.51-.575,1.6.138,1.879a.316.316,0,0,0,.113.03,1.291,1.291,0,0,0,1.433-.5c.088-.106.153-.235.259-.35.059-.07.154-.155.262-.115.255.1.07.74.023.939a18.29,18.29,0,0,1-.486,1.934c-.083.217-.388.763-.686.65-.255-.1-.239-1.178-.395-1.456a1.219,1.219,0,0,0-.645-.5.772.772,0,0,0-1.076.343,10.2,10.2,0,0,0-.691,1.342,1.1,1.1,0,0,0,.4,1.5,6.326,6.326,0,0,0,1.4.758c.6.235,1.132.314,1.6-.248.235-.282.795-1.009,1.212-.849.23.091-.131,1.018-.194,1.181C701.487,434.615,701.112,435.057,700.356,434.935Z" fill="#fff"/><path d="M713.639,434.624c-.862,1.23-1.7,2.473-2.57,3.714-.307.438-1.806,2.575-2.386,2.169a.493.493,0,0,1-.09-.1,15.206,15.206,0,0,1-.088-3.518c.005-.86-.072-1.706-.079-2.575.011-.418.115-1.823-.228-2.063-.365-.257-.7.039-.92.359a30.431,30.431,0,0,0-2.133,3.315c-.131.842.591,1.295.343,1.65-.3.424-1.185-.2-1.469-.395-.19-.133-.357-.269-.537-.413-.323-.244-1.214-.835-.867-1.331.373-.531,1.05.541,1.562-.19l1.72-2.426c.48-.684,1-1.325,1.489-2.022.174-.248.555-.792.526-1.076-.054-.425-.865-.9-.641-1.223.275-.391.988.074,1.259.266a4.834,4.834,0,0,1,.616.5,2.69,2.69,0,0,1,.79,2.367c.016.858-.2,4.687.411,5.118.318.224.864-.505,1.137-.893l.124-.179c.223-.318.492-.625.724-.954a1.972,1.972,0,0,0,.434-1.776c-.1-.23-.411-.517-.23-.779.34-.483,1.4.138,1.757.386s1.479,1.232,1.14,1.718C715.2,434.61,714.228,433.787,713.639,434.624Zm.056-3.1a2.124,2.124,0,0,1-1.044-.242c-.6-.422-.224-1.618-.732-1.974a2.784,2.784,0,0,0-.449-.262.921.921,0,0,0-.738.045c-.146.057-.437.345-.613.221-.127-.122-.009-.517.108-.681a1.835,1.835,0,0,1,.977-.689,1.981,1.981,0,0,1,1.2-.18,2.518,2.518,0,0,1,.582.3c1.063.745-.682,1.548.345,2.271.26.182.792.379,1.016.058.115-.165-.075-.37.1-.616a.28.28,0,0,1,.4-.072c.376.266.018,1.054-.181,1.338A1.234,1.234,0,0,1,713.7,431.528Z" fill="#fff"/><path d="M718.234,447.026a4.549,4.549,0,0,1-3.6-.672,4.607,4.607,0,0,1-1.112-.889,4.9,4.9,0,0,1-1.05-3.755A4.169,4.169,0,0,1,713.89,439c1.518-1.313,3.276-1.954,5.147-.939a6.86,6.86,0,0,1,1.95,1.372,4.171,4.171,0,0,1,.832,3.923,4.4,4.4,0,0,1-1.487,2.545A5.64,5.64,0,0,1,718.234,447.026Zm1.674-6.855c-1.3-1.508-2.861-1.345-4.283-.115s-2.473,3.035-1.038,4.7c1.3,1.5,2.863,1.325,4.285.1C720.217,443.686,721.28,441.757,719.908,440.171Z" fill="#fff"/><path d="M722.32,460.458a2.186,2.186,0,0,1-.7-1.1c-.124-.355-.223-.734-.345-1.088-.289-.833-.749-1.591-1.038-2.422a3.546,3.546,0,0,1-.266-1.742c.034-.074.061-.173.142-.2.232-.079.887.84,1.081,1,.539.409,2.164-.108,3.092-.429l.408-.142c.424-.146.864-.284,1.3-.435.641-.221,1.842-.637,1.988-1.406.039-.244-.009-1.128.264-1.223.411-.142.846.9.946,1.187a2.163,2.163,0,0,1,.124.8.93.93,0,0,0,.045.4,7.2,7.2,0,0,0,.327.681,8.674,8.674,0,0,1,.418.986,4.55,4.55,0,0,1-1.858,5.533,8.585,8.585,0,0,1-1.137.47A5.05,5.05,0,0,1,722.32,460.458Zm6.608-5.145c-.264-.765-.675-.716-1.343-.483l-.968.336c-.957.329-1.95.505-2.891.833-.751.259-2.047.753-1.688,1.791a2.554,2.554,0,0,0,.309.58,4.356,4.356,0,0,0,.889,1.113c1,.8,2.361.42,3.44.047C728.587,458.869,729.623,457.319,728.928,455.313Z" fill="#fff"/><path d="M723.778,470.482a7.362,7.362,0,0,1-.257-1.483c-.079-.747-.145-1.494-.221-2.241a6.151,6.151,0,0,0-.138-.869,8.712,8.712,0,0,1-.21-1.038,1.265,1.265,0,0,1,.456-1.324.238.238,0,0,1,.138-.059c.144-.016.331.53.4.655a1.677,1.677,0,0,0,.37.352,4.734,4.734,0,0,0,2.726.264l.46-.05a25.232,25.232,0,0,0,3.529-.517.465.465,0,0,0,.231-.286c.1-.271.209-1.038.568-1.077a.283.283,0,0,1,.149.03c.364.148.533,1.742.573,2.13.057.53.082,1.049.095,1.586a10.591,10.591,0,0,0,.066,1.169c.128,1.219.228,2.3-1.307,2.46-.259.027-.8.011-.835-.334a.526.526,0,0,1,.138-.361c.629-.9,1.248-.815,1.225-2.119a4.456,4.456,0,0,0-.032-.447c-.081-.774-.273-1.074-1.1-1.058-.3,0-.62.022-.922.054-.547.056-1.688.221-1.609.981a.318.318,0,0,0,.027.113,1.286,1.286,0,0,0,1.1,1.045c.136.029.28.029.429.072.09.021.21.066.221.179.03.273-.625.4-.821.451a18.994,18.994,0,0,1-1.941.451c-.23.025-.855,0-.889-.313-.029-.271.937-.752,1.11-1.016a1.209,1.209,0,0,0,.149-.8.77.77,0,0,0-.8-.8,10.538,10.538,0,0,0-1.508,0c-.675.07-1.054.327-1.153,1.036a6.3,6.3,0,0,0-.036,1.584c.068.646.237,1.151.95,1.307.357.079,1.259.246,1.307.69.024.244-.964.348-1.138.366C724.581,471.339,724.015,471.211,723.778,470.482Z" fill="#fff"/><path d="M723.178,475.753c.126-1.351.921-3.033,2.518-2.884.3.027,1.327.239,1.289.643-.023.258-.418.44-.63.535-.833.373-2.033.957-2.132,2.009a1.373,1.373,0,0,0,1.277,1.41c.963.088,1.78-1.5,2.193-2.205.587-1,1.352-1.907,2.634-1.787a2.8,2.8,0,0,1,2.5,3.324c-.061.648-.447,1.99-1.2,2.11a3.744,3.744,0,0,1-.9-.011c-.259-.025-.99-.109-.957-.481.052-.562,1.882-1.2,1.961-2.038a2.256,2.256,0,0,0-.015-.307c-.075-.442-.21-1.006-.759-1.058a1.03,1.03,0,0,0-.288,0c-.928.147-1.228.569-1.652,1.37-.192.361-.346.738-.537,1.1a2.392,2.392,0,0,1-2.523,1.376A2.972,2.972,0,0,1,723.178,475.753Z" fill="#fff"/><path d="M721.391,486.145a2.169,2.169,0,0,1,.092-1.3c.113-.359.257-.722.37-1.081.266-.84.345-1.724.612-2.564a3.528,3.528,0,0,1,.823-1.559c.073-.038.154-.1.235-.079.235.074.214,1.2.273,1.451.19.65,1.8,1.2,2.74,1.5l.413.129c.428.135.864.287,1.306.426.648.2,1.862.585,2.437.055.176-.172.666-.912.941-.824.413.129.145,1.225.055,1.516a2.179,2.179,0,0,1-.377.714.9.9,0,0,0-.2.347,7.316,7.316,0,0,0-.142.742,9.116,9.116,0,0,1-.253,1.043,4.554,4.554,0,0,1-4.793,3.34,8.768,8.768,0,0,1-1.194-.3A5.057,5.057,0,0,1,721.391,486.145Zm8.381-.2c.243-.772-.118-.977-.792-1.19l-.98-.306c-.966-.3-1.868-.756-2.821-1.054-.758-.239-2.094-.614-2.423.433a2.551,2.551,0,0,0-.1.65,4.4,4.4,0,0,0,.051,1.426c.323,1.239,1.648,1.747,2.738,2.087C727.375,488.6,729.133,487.975,729.772,485.949Z" fill="#fff"/><path d="M716.582,495.111a7.375,7.375,0,0,1,.677-1.345c.381-.648.774-1.287,1.155-1.934a6.113,6.113,0,0,0,.411-.781,8.233,8.233,0,0,1,.447-.961,1.276,1.276,0,0,1,1.157-.795.259.259,0,0,1,.147.036c.124.075-.05.625-.068.768a1.7,1.7,0,0,0,.09.5,4.733,4.733,0,0,0,2.036,1.837l.4.234a25.327,25.327,0,0,0,3.148,1.688.457.457,0,0,0,.357-.092c.243-.158.787-.709,1.1-.526a.281.281,0,0,1,.1.111c.2.338-.609,1.719-.808,2.055-.27.461-.559.894-.868,1.332a10.465,10.465,0,0,0-.646.979c-.623,1.059-1.185,1.984-2.516,1.2-.226-.131-.648-.465-.472-.763a.532.532,0,0,1,.325-.212c1.041-.343,1.49.09,2.25-.971a4.336,4.336,0,0,0,.239-.379c.4-.672.42-1.027-.252-1.507-.246-.178-.513-.352-.774-.506-.474-.28-1.492-.828-1.88-.169a.3.3,0,0,0-.045.106,1.288,1.288,0,0,0,.259,1.5c.088.1.206.19.3.312.058.07.128.178.07.277-.138.237-.741-.052-.93-.128a18.406,18.406,0,0,1-1.83-.8c-.2-.117-.691-.507-.528-.781.14-.236,1.2-.047,1.5-.155a1.21,1.21,0,0,0,.594-.555.772.772,0,0,0-.163-1.12,10.309,10.309,0,0,0-1.214-.9,1.093,1.093,0,0,0-1.543.147,6.334,6.334,0,0,0-.975,1.252c-.33.56-.494,1.068-.014,1.618.24.276.867.948.641,1.334-.126.212-.984-.3-1.133-.384C716.715,496.28,716.338,495.84,716.582,495.111Z" fill="#fff"/><path d="M709.615,502.375c.109-.1.215-.172.3-.248.259-.231,1.026-.912,1.36-.535.384.431-.214,1.234.235,1.742.2.225,1.11,1.293,1.659,1.907l.363.41a3.674,3.674,0,0,1,.309.325c.4.454,1.034,1.185,1.246,1.424.248.28.505.07.767-.007.217-.058.467-.32.688-.072.328.368-.241,1.663-.521,1.912a.908.908,0,0,1-1.219.04c-.288-.322-.108-.271-.471-.681-.442-.5-1.972-2.264-2.415-2.76-.077-.086-.42-.494-.785-.9a8.126,8.126,0,0,0-.9-.921c-.338-.185-.808,0-1.088-.311C708.747,503.244,709.205,502.738,709.615,502.375Z" fill="#fff"/><path d="M705.172,513.107a8.732,8.732,0,0,1-1.069-2.854,5.865,5.865,0,0,1,.164-2.623,4.156,4.156,0,0,1,1.347-2.254c.037-.023.079-.065.14-.1.233-.146.646-.354.783-.133a.531.531,0,0,1-.128.607c-.118.142-.264.233-.379.375a3.378,3.378,0,0,0-.6,1.9,3.3,3.3,0,0,0,.217,1.327.7.7,0,0,0,.431.226c.23.043,1.46-.659,2.236-.616a2.719,2.719,0,0,1,1.932,1.293l.045.074a3.215,3.215,0,0,1,.11,3.063,2.957,2.957,0,0,1-.929.988l-.1.063a2.9,2.9,0,0,1-4.006-1.018l-.063-.1Zm3.683.334c.625-.39.542-1.717.16-2.329a1.957,1.957,0,0,0-2.1-.765,1.716,1.716,0,0,0-.546.188c-.495.325.02,1.69.3,2.13C707.09,513.286,708.122,513.9,708.855,513.441Z" fill="#fff"/><path d="M697.1,509.948a2.4,2.4,0,0,1,.445-.054,3.115,3.115,0,0,0,.607-.194c.564-.224.887-.585,1.451-.808.323-.126.853-.167,1.022.264s-.058.677-.426,1.708a8.494,8.494,0,0,0-.567,3.162,4.517,4.517,0,0,0,.183,1.87,1.518,1.518,0,0,0,.519.682,1.037,1.037,0,0,0,1.065.138c.079-.034.156-.079.224-.1.51-.2.611-.772.959-.91.268-.108.365-.1.462.143a2.16,2.16,0,0,1-.8,2.012,3.093,3.093,0,0,1-.842.583,2.108,2.108,0,0,1-2.489-.553,3.581,3.581,0,0,1-.243-.494,6.891,6.891,0,0,1-.289-2.652c.006-.377.539-2.638.483-3.019a.922.922,0,0,0-.057-.181c-.176-.444-.7-.3-.909-.214-.524.207-.826.855-1.189,1-.161.064-.274-.063-.328-.2C696.141,511.525,696.443,510.208,697.1,509.948Z" fill="#fff"/><path d="M689.279,516.747c-.255-1.318-.221-3.888.862-4.861a2.221,2.221,0,0,1,1.092-.489l.169-.034c.923-.174,1.614.614,2.246,1.322a6.435,6.435,0,0,1,1.083,2.636l.027.129c.038.182.058.428.079.6.2,1.963-.174,3.836-.966,4.425a2.556,2.556,0,0,1-1.1.549c-1.965.4-3.051-2.1-3.459-4.1Zm3.337,2.927c.849-.174,1.068-1.986.833-3.708-.009-.04-.005-.1-.014-.144l-.015-.07c-.21-1.031-1.032-3.25-2.009-3.051-1.13.233-1.067,2.634-.878,3.7l.052.255C690.87,518.043,691.684,519.864,692.616,519.674Z" fill="#fff"/><path d="M710.159,472.786l-.013-.344-.086-.306-1.81-.109-1.809-.109-1.81-.108-1.809-.109-.35-.029-.35-.028-.349-.029-.35-.028-.393-.031-.393-.031-.393-.031-.393-.031-.58-.011-.819-.019-.753-.1-.386-.248-.056-.193-.056-.192-.056-.192-.056-.193.01-.051.05-.026.056-.022.028-.04-.008-.091-.023-.1-.027-.095-.023-.089L697,469.6l-.288-.165-.329-.122-.274-.084-.151-.195-.151-.181-.162-.171-.179-.165-.381-.371-.353-.407-.346-.419-.357-.408.023-.146.013-.141.032-.137.076-.134.1-.071.124-.051.12-.048.085-.066.022-.078.016-.129.014-.135.016-.1.03-.146.007-.169-.036-.155-.1-.109H694.5l-.107.016-.118.016-.092,0-.065.084.056.106.051.092-.076.044-.112-.038-.137-.074-.128-.039-.089.068-.124.266-.151.187-.222.114-.336.043-.037.048-.041.037-.025.05.008.088h-.267l-.259.009-.249.056-.238.141-.1.123-.1.154-.11.125-.139.038-.149.035-.185.106-.191.123-.169.081-.064.029-.034.046-.013.062,0,.075-.028.085-.086.029-.111,0-.1.011-.156.166-.138.026-.142-.052-.17-.067-.262-.014-.212.083-.207.114-.251.078-.046.016h-.044l-.042-.015-.039-.03-.22-.073-.2-.047-.171-.083-.14-.178-.245-.486-.244-.487L687,466l-.243-.487-.19-.374-.128-.329-.02-.33.135-.377.026-.059.031-.058.033-.055.036-.054.4-.455.373-.442.311-.485.22-.584-.2-.371-.151-.407-.157-.4-.217-.339-.081-.052-.084-.047-.086-.04-.09-.035-.1-.026-.1-.022-.1-.021-.1-.02-.138-.035-.133-.052-.128-.063-.124-.072-.112-.049-.118-.016-.12.01-.119.035-.022.005-.022.005-.022.005-.022.005-.154-.019-.177,0-.155-.015-.155-.059-.247-.048-.14.009-.093.074-.138.207-.074.066-.143.033-.161-.009-.157-.041-.132-.067-.114-.129.015-.107.036-.1-.052-.1-.115-.031-.132.028-.141.011-.071-.041-.07-.041-.035-.036-.118-.075-.1-.331-.056-.363-.1-.316-.114-.186-.13-.178-.152-.156-.178-.117-.091-.05-.089-.055-.085-.06-.081-.065-.319-.386-.237-.5-.169-.535-.112-.5-.108-.313-.182-.191-.264-.111-.352-.076-.521-.116-.435-.159-.4-.237-.417-.347-.091-.085-.092-.086-.091-.086-.091-.085.067.367.132.409.12.426.034.417-.119.377-.241.345-.29.316-.268.291-.044.05-.044.049-.044.05-.044.05-.047.244-.086.2-.112.193-.126.236-.1.246-.1.229-.14.195-.223.139-.068.05-.072.043-.076.036-.078.029-.182.057-.187.053-.177.075-.152.12-.044.036-.042.04-.037.043-.033.048-.057.052-.056.053-.056.053-.056.053-.052.073-.052.072-.053.072-.052.07-.014.016-.013.017-.012.019-.01.019-.046.094-.049.089-.055.087-.059.084-.318.255-.361.015-.387-.109-.4-.118-.022,0-.022,0-.043,0-.208-.056-.187-.068-.182-.087-.191-.109-.245-.1-.233-.008-.238.041-.26.046-.028.008-.028.009-.027.01-.026.011-.62.267-.488.408-.377.526-.293.619-.061.172-.1.15-.134.105-.169.038-.172-.024-.157-.061-.135-.1-.1-.146-.081-.142-.1-.132-.1-.131-.073-.142-.028-.179,0-.186-.024-.169-.1-.13-.1-.067-.1-.067-.1-.071-.1-.075-.191-.1-.194-.106-.177-.129-.138-.17-.026-.385.121-.51.175-.517.133-.408-.005-.487-.339.158-.436.352-.3.1-.156-.049-.149.152-.13.231-.1.19-.119.2-.111.2-.11.2-.116.2-.076.147-.087.138-.089.136-.083.142-.062.214.047.206.128.174.176.126.032.018.029.02.029.023.026.026.127.12.119.133.106.144.089.152.038.113.027.115.014.117,0,.117-.07.128-.09.107-.1.093-.112.087-.113.125-.12.113-.129.1-.139.091-.144.056-.143.058-.143.061-.143.063-.186-.012-.122-.1-.077-.155-.052-.184-.026-.085-.02-.087-.016-.086-.01-.089-.014-.146-.022-.183-.042-.174-.073-.114-.124-.046-.136.01-.139.034-.131.024-.1.023-.1.023-.1.02-.1.018-.11.007-.109,0h-.109l-.11,0-.38-.016-.191-.009-.19-.009-.1,0-.1,0-.1,0-.1,0h-.162l-.152.03-.128.078-.093.14-.163.4-.237.42-.316.3-.4.033-.1-.033-.094-.036-.094-.039-.094-.038-.05.044-.049.044-.05.045-.05.044-.061.049-.061.049-.061.048-.061.049.19.237.04.178-.067.2-.127.283-.08.22-.065.228-.053.232-.044.231-.04.158-.044.156-.041.156-.032.16-.061.3-.049.31.026.284.165.219.075.055.04.058,0,.063-.05.067-.119.13-.035.154.021.168.051.168.035.035.035.035.035.034.035.034.024.024.024.024.024.024.025.023.079.086.077.089.074.091.07.093.046.169-.015.17-.046.166-.043.155.011.023.013.022.015.021.016.02.119.246-.029.231-.082.234-.04.255.07.238.158.126.214.072.238.08.162.257.16.338.2.27.267.057.163-.009.169-.01.164.009.143.047.04.045.04.044.041.044.04.044.381.447.357.464.344.475.341.482.071.114.045.124.015.131-.018.133-.026.131-.041.129-.05.124-.058.121-.091.167-.1.16-.107.152-.118.149-.058.117v.115l.015.124-.016.145-.031.218-.034.217-.034.217-.028.218-.035.209-.067.154-.11.125-.167.115-.023.047-.024.045-.026.045-.027.044-.059.05-.065.044-.07.036-.073.027-.16.091-.146.066-.154.027-.182-.026-.154-.035-.143-.009-.142.021-.149.055.079.345.109.336.05.337-.1.348-.021.033-.021.033-.02.032-.022.032-.236.086-.19-.017-.185-.05-.222-.012-.3.14-.148.226,0,.274.16.283.191.4-.077.364-.24.331-.3.295-.287.157-.3.043-.311,0-.326.032-.3.077-.235.1-.2.152-.18.2-.023.041.02.042.086.028.158.034.269.109.735.269,1.5.269,1.159.372.227.022.075-.025.081-.055.055-.056,0-.028.066.031.051.056.034.054.008.023.243.063.232.1.151-.113.156.092.162.122.173-.019-.159.157-.36-.041-.684-.2.209.227.378.169.422.134,1.206.669.428.264.778.568.187.135.077.043.1.076.12.1.285.091.224.183.222.1.63.128.426.079.1-.086.152-.086.509.011.681.16.322-.071.818.278,1.052.125.268-.135.7.124.222,0,.7.195.524.191.675.416.307.149.161-.033.2.325-.048.04.316.261.354.085.709.209.993.6.481.01,1.424.268.782.353.668.25L679,490l.266.054.249.022.217-.033.184-.137.276-.116.178-.167.346.05.458.093.867-.022.586.029.376-.242.913-.412-.026-.176.128-.112.121.055.12-.057.056-.08.146-.017.3-.209.249-.057.321-.193.409-.106.1-.128.835-.187.1-.088.359-.089.292-.081.257-.065.257-.033v-.136l.088-.072.185-.1.257-.049.314-.065.506-.033.554-.209.064-.152.322-.041.1-.144.876-.1.048-.112.677-.009.072-.12.032-.168.306-.112.171-.152.137-.072-.065-.24.29-.384.185-.112.37-.056.089-.1.153-.032.048-.048-.008-.128.145-.112.234-.072.016-.16.161-.128h.4l.121-.112.315.052.136-.061-.056-.088-.016-.072.072-.064.153-.016h.153l.234.048.435.008.548-.08.294-.073.512-.063.613-.12.891-.023.605.18.063-.063-.172-.272-.339-.127-1.054.033-.394-.115.339-.031.492-.117.357-.169-.07-.183-.09.022-.2.231-.112.082-.24.055-.145.016-.331.024-.4.024-.4-.04-.516-.12-.232-.087-.016-.12.132-.2.072-.067.14-.022.094-.072-.068-.216h.677l.115-.08.507-.747.228-.211.268-.141.308-.051.127.052.163.122.147.137.081.1.053.174.011.131.05.133.168.182.122.193-.1.127-.18.1-.125.115-.013.146.049.135.13.211.153-.126.193-.305.165-.061.325-.163-.012-.041.075-.087.132-.119.046-.022.136-.037.062-.031.034-.057.038-.189.081-.038.088-.019.094.021.1.08.18.105.451.132.123.129-.073.53-.443.311-1,.315-.144.113-.055.138.077.117.249.049.477.019.238-.021.2-.08.194.106.3.044.62.006H702.4l1.085.031.55.109.393.232.169.128,2.657,1.087.242-.5-.218-.08-.822-.177v-.082h.159v-.089l-.4-.238-.178-.081-.122-.023-.3.015-.222-.044-.47-.177-.3-.017v.075l.879.328-.314.087-.613-.264-1.061-.717.157-.012.1-.057,0-.065-.144-.03-.1-.038-.018-.07.049-.039.105.058h.079l.013-.19-.044-.216.021-.177.209-.073.251.039.164.1.258.279.4.315.469.268.493.141.471-.067.248-.126.23-.085.17.071.066.341.068.16.159.18.221.183.065-.126.1-.154.1-.154.089-.164.07-.207.048-.231.035-.236.028-.222-.035-.352-.141-.406-.18-.4-.151-.317-.094-.225-.094-.227-.1-.223-.12-.209-.107-.479.234-.5.366-.476.293-.4.1-.233.052-.238.016-.245-.008-.254-.035-.261-.053-.332-.028-.326.037-.243.145-.153.24-.148.258-.134.2-.108.167-.106.167-.106.167-.106.167-.106.05-.136.01-.245-.008-.256-.005-.168,0-.313.026-.327.128-.2.3.06,0-.084,0-.088v-.088l-.008-.082.017-.324Z" fill="#fff" fill-rule="evenodd"/></g></svg>