<svg xmlns="http://www.w3.org/2000/svg" width="30.582" height="9.795" viewBox="0 0 30.582 9.795"><g transform="translate(-333.552 -846.564)"><path d="M356.311,856.359c.061-.324.107-.566.153-.808a2.011,2.011,0,0,0-1.093-2.334,12.475,12.475,0,0,0-5.749-1.515c-11.668.1-3.338.049-15.007.035a4.423,4.423,0,0,1-1.063-.273,4.026,4.026,0,0,1,1.1-.328c12.023-.017,4.046-.031,16.068,0,1.93.006,3.474-.917,5.058-1.76a1.758,1.758,0,0,0,.74-1.861c-.031-.313-.121-.62-.189-.955,1.216.316,2.429,2.464,1.729,3.8-.294.564-.646.73-1.212.46-.091-.043-.189-.148-.265-.132a3.92,3.92,0,0,0-1.213.336.9.9,0,0,0,0,.813,1.805,1.805,0,0,0,1.2.327c1.162-.306,1.639-.056,1.713,1.144A3.335,3.335,0,0,1,356.311,856.359Z" fill="#c8961b"/><path d="M364.134,851.436c-.79.893-2.921,1.55-4.006.925-.322-.185-.787-.582-.752-.816a1.4,1.4,0,0,1,.794-.879C361.633,850.077,362.886,850.724,364.134,851.436Z" fill="#c8961b"/></g></svg>