<svg id="Layer_1" data-name="Layer 1" xmlns="http://www.w3.org/2000/svg" viewBox="0 0 96 96"><defs><style>.cls-1{fill:#e6e6e6;}.cls-2{fill:none;stroke:#ff6037;stroke-linecap:round;stroke-linejoin:round;stroke-width:2.65px;}</style></defs><title>icons</title><ellipse class="cls-1" cx="48" cy="77.54" rx="31.86" ry="1.75"/><path class="cls-2" d="M68.12,25.59c-8.64-3.23-16.74,3.73-19.07,7.85a.78.78,0,0,1-1.34,0c-2.34-4.12-10.43-11.07-19.08-7.85a15.2,15.2,0,0,0-9.69,15.35c1.23,15.53,29.44,34.77,29.44,34.77s28.2-19.24,29.44-34.77A15.2,15.2,0,0,0,68.12,25.59Z"/><polyline class="cls-2" points="24.51 51.56 43.07 51.56 47.05 59.85 51.03 38.63 53.68 51.56 72.24 51.56"/></svg>