<svg id="Layer_1" data-name="Layer 1" xmlns="http://www.w3.org/2000/svg" viewBox="0 0 96 96"><defs><style>.cls-1{fill:#e6e6e6;}.cls-2{fill:none;stroke:#ff6037;stroke-linecap:round;stroke-linejoin:round;stroke-width:2.65px;}</style></defs><title>icon-clientye</title><ellipse class="cls-1" cx="48" cy="77.54" rx="31.86" ry="1.75"/><path class="cls-2" d="M48,50.62a8.79,8.79,0,0,1-7-4.74c-2.25-4.49-2-5.44-2-5.44a2.58,2.58,0,0,1-2.6-1.3C35.18,37.48,35.5,33,35.5,33a1.31,1.31,0,0,1,2.08-.08"/><path class="cls-2" d="M58.33,32.87a1.32,1.32,0,0,1,2.09.08s.32,4.53-.86,6.19A2.6,2.6,0,0,1,57,40.44s.24,1-2,5.44a8.8,8.8,0,0,1-7,4.74"/><line class="cls-2" x1="40.65" y1="46.39" x2="40.65" y2="52.56"/><path class="cls-2" d="M40.65,52.56s-11.53,3-15.62,5.69S19,75.43,19,75.43H77s-2-14.51-6-17.18-15.62-5.69-15.62-5.69"/><line class="cls-2" x1="55.28" y1="46.39" x2="55.28" y2="52.56"/><path class="cls-2" d="M58.33,32.87c-7.14,1.54-15.5-6.6-15.5-6.6a32.46,32.46,0,0,1-5.25,6.6"/><path class="cls-2" d="M60.46,37.53A13.41,13.41,0,0,0,62.33,24C59.21,15.85,48.14,15,46,15s-3.43,3.35-3.43,3.35-2.49-2.5-4.21-1.87S28.08,29.27,35.46,37.53"/><polyline class="cls-2" points="36.69 53.69 43.04 62.71 48.47 57.19 40.65 52.56"/><polyline class="cls-2" points="59.79 54.34 53.9 62.71 48.47 57.19 55.74 52.88"/><polyline class="cls-2" points="44.39 61.33 46.12 64.84 48.47 64.84"/><polyline class="cls-2" points="52.55 61.33 50.82 64.84 48.47 64.84"/><line class="cls-2" x1="46.12" y1="64.84" x2="41.67" y2="75.43"/><line class="cls-2" x1="50.82" y1="64.84" x2="55.27" y2="75.43"/></svg>