<?xml version="1.0" encoding="utf-8"?>
<!-- Generator: Adobe Illustrator 25.2.1, SVG Export Plug-In . SVG Version: 6.00 Build 0)  -->
<svg version="1.1" id="Layer_1" xmlns="http://www.w3.org/2000/svg" xmlns:xlink="http://www.w3.org/1999/xlink" x="0px" y="0px"
	 viewBox="0 0 160 104.7" style="enable-background:new 0 0 160 104.7;" xml:space="preserve">
<style type="text/css">
	.st0{fill:#6C3544;}
</style>
<g>
	<g>
		<g>
			<path class="st0" d="M21.7,31.8c0.2,0.3,0.3,0.3,0.4,0.6c0.2,0.4-0.1,0.8-0.4,1c-0.3,0.2-0.6,0.5-0.8,0.6
				c-0.3,0.2-0.8,0.2-1.1,0.2c-0.4-0.1-0.7-0.3-1-0.5c-0.3-0.1-0.7,0-0.9-0.1c-0.3-0.1-0.5-0.5-0.9-0.6c-0.3-0.2-0.7-0.2-1-0.4
				c-0.3-0.2-0.7-0.2-1-0.4c-0.3-0.1-0.6-0.3-0.8-0.4s-0.6-0.2-0.9-0.4s-0.5-0.3-0.8-0.5c-0.3-0.1-0.5-0.3-0.8-0.4
				c-0.3-0.1-0.6-0.3-0.8-0.4S10.3,30,10,29.9c-0.4-0.1-0.7-0.2-1.1-0.4c-0.3-0.1-0.6-0.4-0.9-0.6c-0.3-0.2-0.8-0.1-1.1-0.3
				c-0.1,0-0.3-0.2-0.2-0.1c0.1,0.3,0.3,0.6,0.5,0.9c0.2,0.3,0.4,0.6,0.6,0.9C7.9,30.7,7.8,31,8,31.3c0.2,0.2,0.4,0.5,0.6,0.7
				c0.2,0.2,0.4,0.4,0.6,0.7c0.2,0.2,0.4,0.5,0.6,0.7c0.2,0.2,0.3,0.5,0.5,0.8c0.1,0.3,0,0.7,0.3,0.9c0.4,0.2,0.4,0.5,0.6,0.7
				c0.3,0.3,0.4,0.6,0.6,0.9c0.2,0.4,0.5,0.7,0.6,1c0.2,0.3,0.3,0.6,0.4,0.9c0.1,0.5-0.2,0.7-0.6,1c-0.3,0.2-0.7,0.4-0.9,0.5
				c-0.3,0.1-0.4,0.1-0.6-0.1c-0.4-0.4-0.2-0.5-0.5-1c-0.3-0.4-0.4-0.3-0.7-0.8c-0.3-0.4-0.2-0.5-0.4-1c-0.3-0.4-0.3-0.4-0.6-0.8
				c-0.3-0.4-0.4-0.3-0.7-0.8c-0.3-0.4-0.1-0.6-0.4-1c-0.3-0.4-0.5-0.3-0.8-0.8c-0.3-0.4-0.1-0.5-0.4-0.9c-0.3-0.4-0.3-0.5-0.5-0.9
				c-0.3-0.4-0.4-0.3-0.7-0.7c-0.3-0.4-0.3-0.4-0.6-0.8s-0.2-0.5-0.4-0.9c-0.3-0.4-0.3-0.4-0.6-0.8c-0.2-0.3-0.3-0.3-0.6-0.6
				c-0.2-0.3-0.2-0.3-0.4-0.7c-0.2-0.3,0-0.6,0.2-0.8c0.2-0.2,0.4-0.4,0.5-0.5c0.2-0.2,0.6-0.2,0.8-0.4c0.3-0.2,0.6-0.3,0.9-0.4
				c0.3-0.2,0.5-0.3,0.8-0.3c0.2,0,0.5-0.1,0.8,0.1c0.3,0.1,0.6,0.3,0.9,0.5c0.3,0.1,0.6,0.3,0.9,0.4c0.3,0.1,0.6,0.1,0.9,0.3
				c0.3,0.1,0.5,0.3,0.8,0.4c0.3,0.2,0.6,0.3,1,0.4c0.3,0.1,0.6,0.3,0.8,0.4c0.3,0.1,0.6,0.1,0.9,0.2c0.3,0.1,0.5,0.3,0.8,0.5
				c0.3,0.1,0.5,0.3,0.8,0.4c0.3,0.1,0.6,0.1,0.9,0.2c0.3,0.1,0.5,0.4,0.8,0.5c0.2,0.1,0.7,0.5,0.8,0.3c0.1-0.3-0.4-0.6-0.6-0.9
				c-0.2-0.3-0.3-0.7-0.5-1c-0.2-0.3-0.3-0.6-0.5-0.9c-0.2-0.3-0.5-0.6-0.7-0.9c-0.2-0.3-0.4-0.5-0.6-0.7c-0.2-0.2-0.2-0.6-0.4-0.8
				c-0.2-0.3-0.4-0.5-0.6-0.8c-0.2-0.3-0.3-0.5-0.5-0.8c-0.1-0.3-0.3-0.5-0.5-0.8c-0.1-0.3-0.4-0.5-0.4-0.8
				c-0.1-0.4,0.4-0.7,0.8-0.9c0.3-0.2,0.7-0.4,1.1-0.4c0.4-0.1,0.7,0.2,0.9,0.4c0.2,0.2,0.2,0.5,0.4,0.8c0.3,0.4,0.3,0.4,0.6,0.9
				c0.3,0.5,0.4,0.4,0.7,0.9c0.3,0.4,0.2,0.5,0.5,1c0.3,0.4,0.3,0.4,0.6,0.8c0.3,0.4,0.3,0.4,0.5,0.8c0.3,0.5,0.3,0.4,0.6,0.9
				c0.3,0.4,0.3,0.4,0.6,0.9c0.3,0.4,0.2,0.5,0.4,1c0.3,0.5,0.4,0.4,0.7,0.9c0.3,0.4,0.3,0.4,0.5,0.8c0.3,0.4,0.3,0.3,0.6,0.7
				C21.6,31.4,21.5,31.4,21.7,31.8z"/>
			<path class="st0" d="M42,23.8c-0.3,0.1-0.5,0.3-0.8,0.4c-0.3,0.2-0.6,0.3-0.9,0.3c-0.3,0-0.6,0-0.8-0.3c-0.2-0.4-0.5-0.5-0.7-0.9
				c-0.1-0.3-0.5-0.4-0.7-0.6c-0.2-0.2-0.3-0.4-0.5-0.6c-0.2-0.1-0.3-0.3-0.6-0.3c-0.6,0-0.6,0.1-1.1,0.3c-0.5,0.2-0.5,0.2-1.1,0.4
				c-0.5,0.2-0.4,0.3-0.9,0.5c-0.5,0.2-0.6,0.1-1.1,0.3c-0.4,0.2-0.4,0.2-0.7,0.4c-0.3,0.2-0.2,0.5-0.2,0.8c0,0.3,0,0.6,0.1,0.9
				c0.1,0.3,0.1,0.5,0.1,0.8c0,0.1,0.1,0,0,0.1c-0.2,0.3-0.2,0.7-0.2,1.2c0,0.3,0,0.6-0.4,0.8c-0.3,0.2-0.7,0.5-1.1,0.6
				c-0.4,0.2-0.8,0.2-1.1-0.1c-0.2-0.3-0.1-0.7-0.1-1c0-0.3-0.2-0.6-0.2-0.9c0-0.3,0-0.6,0-0.9c0-0.3,0-0.6,0-0.9c0-0.3,0-0.6,0-0.9
				c0-0.3,0-0.6,0-0.9c0-0.3-0.1-0.6-0.1-0.9c0-0.3,0.1-0.6,0.1-0.9c0-0.3-0.1-0.6-0.1-0.9c0-0.3-0.2-0.6-0.2-0.9
				c0-0.3,0.1-0.6,0.1-0.9c0-0.4-0.2-0.7-0.2-1.1c0-0.3,0-0.6,0-0.9c0-0.3-0.1-0.6-0.1-0.9c0-0.3,0.1-0.6,0.1-0.9c0-0.3,0-0.6,0-0.9
				c0-0.3-0.2-0.6,0-0.9c0.2-0.3,0.5-0.5,0.8-0.7c0.3-0.2,0.7-0.2,1-0.3c0.3-0.1,0.6-0.3,0.9-0.4c0.3,0,0.3,0,0.6,0.2
				c0.3,0.2,0.5,0.6,0.7,0.8c0.2,0.3,0.4,0.6,0.7,0.8c0.2,0.3,0.7,0.4,0.9,0.6c0.2,0.3,0.4,0.6,0.7,0.8c0.2,0.3,0.5,0.5,0.8,0.7
				c0.2,0.3,0.4,0.6,0.6,0.8c0.2,0.3,0.3,0.6,0.6,0.9c0.2,0.2,0.5,0.4,0.7,0.6c0.2,0.2,0.5,0.4,0.7,0.6s0.4,0.5,0.6,0.7
				c0.2,0.2,0.4,0.5,0.6,0.7c0.2,0.2,0.4,0.5,0.6,0.7c0.2,0.2,0.4,0.5,0.6,0.8c0.2,0.2,0.5,0.4,0.7,0.6c0.2,0.2,0.5,0.4,0.7,0.6
				c0.2,0.2,0.3,0.5,0.5,0.8C42.4,23.4,42.3,23.6,42,23.8z M34.3,18.3c-0.2-0.3-0.4-0.5-0.7-0.8c-0.2-0.3-0.4-0.6-0.7-0.8
				c-0.2-0.3-0.5-0.5-0.8-0.8c-0.2-0.3-0.3-0.8-0.7-0.8c-0.4,0-0.3,0.8-0.3,1.1c0.1,0.3,0,0.6,0.1,0.9c0,0.3,0.1,0.7,0.1,1.1
				c0,0.4,0,0.7,0.1,1.1c0,0.4,0,0.8,0.2,1.2c0.1,0.2,0.5,0,0.7,0c0.3-0.1,0.5-0.2,0.8-0.3c0.3-0.1,0.6-0.3,0.9-0.5
				c0.3-0.1,0.8-0.1,0.8-0.4C34.9,18.8,34.5,18.6,34.3,18.3z"/>
			<path class="st0" d="M60.4,5.4c-0.3,0.1-0.7,0.3-1,0.4c-0.3,0.1-0.7,0-1.1,0.1c-0.4,0.1-0.7,0.3-1,0.4c-0.3,0.1-0.7,0.2-1,0.3
				c-0.3,0.1-0.7,0-0.8,0.3c-0.1,0.3,0,0.6,0.1,1c0,0.4,0,0.8,0.1,1.1c0.1,0.4,0.2,0.7,0.2,1.1c0.1,0.4,0.1,0.7,0.2,1.1
				c0.1,0.4,0.3,0.7,0.4,1c0.1,0.3,0,0.6,0.1,0.9c0.1,0.3,0.3,0.7,0.3,1c0.1,0.3,0.2,0.6,0.3,0.9c0.1,0.3,0,0.6,0.1,0.9
				c0.1,0.3,0.2,0.6,0.2,0.9c0,0.3,0.2,0.6,0.2,0.9c0.1,0.3,0,0.6,0,0.9c0,0.3,0.3,0.6,0.2,0.8c-0.2,0.2-0.5,0.3-0.8,0.5
				c-0.2,0.1-0.6,0.1-0.8,0.1c-0.3,0-0.6,0.1-0.8-0.1c-0.2-0.3-0.2-0.7-0.3-1C55,18.5,55,18.1,55,17.7c-0.1-0.3,0-0.7-0.1-1
				c0-0.4-0.1-0.7-0.2-1c-0.1-0.3-0.3-0.6-0.4-1c-0.1-0.3-0.3-0.5-0.3-0.8c-0.1-0.4-0.1-0.7-0.1-1.1c-0.1-0.3,0-0.7-0.1-1.1
				c-0.1-0.3-0.3-0.6-0.3-1c-0.1-0.4-0.1-0.7-0.2-1C53.2,9.3,53,9,53,8.6c-0.1-0.3,0-0.6-0.2-0.8c-0.2-0.3-0.3-0.3-0.6-0.4
				c-0.5,0-0.5,0.2-1,0.3c-0.5,0.1-0.5-0.1-1.1,0.1c-0.5,0.1-0.5,0.1-0.9,0.2c-0.5,0.1-0.5,0.2-0.9,0.2c-0.4,0.1-0.4,0.1-0.8,0.1
				c-0.4,0-0.6-0.2-0.6-0.6c-0.1-0.3-0.1-0.5-0.2-0.8c-0.1-0.5,0.2-0.9,0.6-1c0.3-0.1,0.7-0.2,1.1-0.2c0.3-0.1,0.6-0.1,0.8-0.1
				c0.3-0.1,0.7-0.2,1-0.3c0.4,0,0.7-0.2,1-0.3c0.4-0.1,0.7,0,1.1-0.1c0.3-0.1,0.6-0.3,1-0.4c0.4-0.1,0.7-0.1,1.1-0.1
				c0.3-0.1,0.7-0.2,1-0.3c0.3-0.1,0.7-0.2,1.1-0.3c0.3-0.1,0.6,0,0.9-0.1c0.3-0.1,0.6-0.2,0.9-0.2c0.3-0.1,0.6-0.3,0.9-0.3
				C59.3,3.1,59.6,3,59.9,3c0.3,0,0.7,0.2,0.7,0.5c0.1,0.4,0.2,0.7,0.2,1.1C60.9,4.9,60.8,5.2,60.4,5.4z"/>
			<path class="st0" d="M74.7,16.3c0,0.3,0.1,0.6,0,0.9c-0.1,0.3-0.5,0.4-0.8,0.5c-0.3,0.1-0.6,0-1,0c-0.2,0-0.5,0-0.7,0
				C72,17.5,72,17.5,72,17.4c-0.1-0.5-0.1-0.5-0.1-1c0-0.5,0.1-0.5,0.1-1.1c0-0.5,0-0.5-0.1-1.1c0-0.5-0.2-0.5-0.2-1
				c0-0.5,0.1-0.5,0-1.1c0-0.5,0-0.5,0-1.1c0-0.5-0.2-0.5-0.2-1c0-0.5,0-0.5-0.1-1c0-0.5,0.2-0.5,0.1-1c0-0.5-0.1-0.5-0.1-1
				c0-0.5-0.1-0.5-0.1-0.9c0-0.5,0-0.5,0-1.1c0-0.5-0.1-0.5-0.2-0.9c0-0.5,0-0.5,0-1c0-0.3-0.1-0.4,0.1-0.7c0.2-0.4,0.6-0.6,1-0.7
				c0.3,0,0.6,0.1,0.8,0.1C73.2,2,73.5,2,73.6,2.3c0.2,0.3,0.1,0.7,0.1,1c0.1,0.3,0,0.6,0,0.9c0,0.3,0,0.6,0.1,1c0,0.3,0,0.6,0.1,1
				c0,0.3,0.2,0.6,0.3,0.9c0,0.3-0.1,0.6-0.1,0.8s0,0.5,0.1,0.8c0,0.3,0.1,0.7,0.2,1c0,0.4,0,0.7,0.1,1c0,0.4-0.1,0.7,0,1.1
				c0.1,0.3,0,0.6,0.1,0.9c0,0.3,0,0.6,0.1,0.9c0,0.3,0,0.6,0,0.9c0,0.3,0.2,0.6,0.2,0.9C74.7,15.7,74.7,16,74.7,16.3z"/>
			<path class="st0" d="M97.9,11.7c-0.1,0.3,0.1,0.7,0,1c-0.1,0.3-0.3,0.6-0.4,0.9c-0.1,0.2-0.2,0.4-0.3,0.7c-0.2,0.3-0.3,0.7-0.6,1
				c-0.2,0.3-0.4,0.6-0.6,0.8c-0.2,0.2-0.5,0.5-0.8,0.7c-0.3,0.2-0.6,0.4-0.9,0.6c-0.3,0.2-0.6,0.2-1,0.4c-0.3,0.1-0.7,0.2-1,0.2
				c-0.3,0.1-0.7,0.2-1,0.2c-0.3,0-0.5-0.2-0.8-0.2c-0.3,0-0.7,0.1-1,0.1c-0.3-0.1-0.6-0.1-0.9-0.2c-0.3-0.1-0.5-0.3-0.8-0.5
				c-0.3-0.1-0.6-0.1-0.9-0.3c-0.2-0.1-0.4-0.3-0.6-0.4c-0.2-0.2-0.4-0.5-0.6-0.7c-0.2-0.3-0.5-0.5-0.6-0.7
				c-0.1-0.3-0.3-0.6-0.5-0.8c-0.1-0.3-0.2-0.7-0.4-1c-0.1-0.3-0.1-0.6-0.2-0.9c-0.1-0.3-0.1-0.6-0.1-0.9c0-0.3-0.3-0.5-0.3-0.8
				c0-0.4,0.1-0.7,0-1.1c0-0.4,0-0.8,0-1.1c0-0.3,0.2-0.5,0.3-0.8c0.1-0.3,0.2-0.6,0.3-0.9c0.1-0.3,0.2-0.6,0.3-0.9
				c0.1-0.3,0.2-0.6,0.4-0.9c0.2-0.3,0.4-0.5,0.6-0.8c0.2-0.3,0.4-0.5,0.6-0.7c0.2-0.2,0.5-0.5,0.8-0.7c0.2-0.2,0.5-0.4,0.8-0.5
				C87.6,2.3,87.9,2,88.2,2c0.2-0.1,0.5-0.1,0.8-0.1c0.3-0.1,0.7-0.1,1.1-0.2c0.3,0,0.7,0.1,1.1,0.1c0.4,0,0.7-0.1,1.1-0.1
				c0.3,0.1,0.6,0.3,1,0.4c0.3,0.1,0.7,0.1,1,0.2C94.5,2.5,94.7,2.8,95,3c0.3,0.2,0.6,0.4,0.8,0.7c0.2,0.2,0.4,0.4,0.6,0.7
				C96.7,4.5,96.8,4.7,97,5c0.2,0.3,0.3,0.7,0.5,1c0.1,0.3,0.4,0.6,0.5,1C98,7.3,98,7.6,98.1,8c0,0.3,0,0.6,0,0.9
				c0,0.3,0.1,0.6,0,0.9c0,0.3,0.1,0.6,0,0.9C98.1,11.1,98,11.4,97.9,11.7z M95.2,9.5c0-0.3,0-0.6-0.1-0.9c0-0.3-0.1-0.6-0.2-0.9
				c0-0.3-0.1-0.6-0.2-0.9c-0.1-0.2-0.3-0.4-0.5-0.6c-0.2-0.2-0.4-0.5-0.6-0.6c-0.2-0.2-0.5-0.5-0.7-0.6c-0.3-0.2-0.6-0.1-0.9-0.2
				c-0.3-0.1-0.6-0.2-0.9-0.2c-0.3,0-0.7,0-1,0c-0.3,0.1-0.6,0.2-0.9,0.4c-0.3,0.2-0.7,0.3-0.9,0.5c-0.2,0.2-0.5,0.5-0.7,0.8
				c-0.2,0.3-0.4,0.6-0.5,0.9c-0.2,0.3-0.2,0.7-0.3,1c-0.1,0.3-0.2,0.5-0.2,0.7c0,0.3,0,0.6,0,0.9c0,0.3,0,0.6,0,0.9
				c0,0.3,0,0.6,0.1,0.9c0.1,0.3,0.1,0.7,0.2,1c0.1,0.3,0.3,0.5,0.5,0.8c0.2,0.2,0.3,0.5,0.6,0.8c0.2,0.2,0.4,0.4,0.7,0.5
				c0.3,0.2,0.6,0.2,0.9,0.3c0.3,0.1,0.6,0.2,0.9,0.3c0.3,0,0.7,0,1-0.1c0.4,0,0.7-0.1,1-0.3c0.3-0.1,0.6-0.2,0.8-0.4
				c0.2-0.2,0.4-0.5,0.6-0.7c0.2-0.2,0.5-0.4,0.6-0.7c0.2-0.3,0.2-0.6,0.3-0.9c0.1-0.3,0.2-0.6,0.3-0.9c0.1-0.4,0.2-0.7,0.2-1.1
				C95.2,10,95.2,9.8,95.2,9.5z"/>
			<path class="st0" d="M119,21.9c-0.1,0.4,0,0.4-0.2,0.7c-0.2,0.5-0.6,0.4-1,0.3c-0.3-0.1-0.7-0.1-1-0.2c-0.4-0.1-0.7-0.4-0.8-0.7
				c-0.2-0.3-0.2-0.7-0.3-1.1c-0.1-0.3-0.4-0.5-0.5-0.8c-0.1-0.3,0-0.7-0.1-1.1c-0.1-0.3-0.3-0.7-0.4-1c-0.1-0.3-0.3-0.7-0.4-1
				c-0.1-0.3-0.2-0.6-0.3-0.9c-0.1-0.3-0.2-0.6-0.3-0.9c-0.1-0.3-0.1-0.6-0.2-0.9c-0.1-0.3-0.2-0.6-0.2-0.9
				c-0.1-0.3-0.1-0.6-0.2-0.9c-0.1-0.3-0.2-0.5-0.4-0.8c-0.2-0.3-0.3-0.7-0.4-1.1C112,10.4,112,10,112,9.7c-0.1-0.4-0.4-0.7-0.5-1
				c0-0.1-0.1-0.3-0.1-0.2c-0.2,0.3-0.3,0.7-0.4,1c-0.1,0.3-0.2,0.7-0.3,1c-0.1,0.3-0.4,0.5-0.5,0.8c-0.1,0.3-0.1,0.6-0.2,0.9
				c-0.1,0.3-0.1,0.6-0.1,0.9c-0.1,0.3-0.1,0.6-0.1,0.9c-0.1,0.3-0.2,0.6-0.3,0.9c-0.1,0.3-0.5,0.5-0.5,0.8c0.1,0.4-0.1,0.6-0.1,0.9
				c0,0.4-0.2,0.7-0.3,1.1c-0.1,0.4-0.2,0.8-0.3,1.2c-0.1,0.3-0.2,0.6-0.4,0.9c-0.2,0.4-0.7,0.3-1.1,0.2c-0.4-0.1-0.7-0.2-1-0.4
				c-0.3-0.2-0.3-0.2-0.3-0.5c0-0.5,0.3-0.5,0.4-1c0.1-0.5,0-0.5,0.1-1c0.1-0.5,0.3-0.5,0.4-1c0.1-0.5,0.1-0.5,0.2-1
				c0.1-0.5,0-0.5,0.1-1c0.1-0.5,0.4-0.4,0.5-1c0.1-0.5-0.1-0.6,0.1-1.1c0.1-0.5,0.3-0.4,0.4-0.9c0.1-0.5,0.2-0.5,0.3-1
				c0.1-0.4,0-0.5,0.1-1c0.1-0.5,0.1-0.5,0.2-0.9c0.1-0.4,0.3-0.4,0.4-0.9c0.1-0.5,0.1-0.5,0.2-0.9c0.1-0.4,0-0.4,0.1-0.8
				c0.1-0.4,0.1-0.4,0.2-0.7c0.1-0.3,0.5-0.4,0.8-0.4c0.3,0,0.6,0,0.7,0.1c0.3,0.1,0.5,0.3,0.8,0.4c0.3,0.1,0.6,0.3,0.9,0.4
				c0.3,0.1,0.6,0.2,0.8,0.4c0.2,0.2,0.4,0.3,0.5,0.6c0.1,0.3,0.2,0.7,0.2,1c0.1,0.3,0.2,0.6,0.3,0.9c0.1,0.3,0.3,0.6,0.4,0.9
				c0.1,0.3,0.1,0.6,0.2,0.9c0.1,0.3,0.2,0.7,0.3,1c0.1,0.3,0.1,0.6,0.2,0.9c0.1,0.3,0.3,0.5,0.5,0.8c0.1,0.3,0.1,0.6,0.2,0.9
				c0.1,0.3,0.1,0.6,0.3,0.9c0.1,0.3,0.3,0.5,0.4,0.8c0.1,0.3,0.1,0.6,0.2,0.9c0.1,0.3,0,0.9,0.3,0.8c0.3-0.1,0.2-0.7,0.3-1
				c0.1-0.4,0.3-0.7,0.4-1c0.1-0.3,0.3-0.7,0.3-1c0.1-0.4,0.1-0.7,0.2-1.1c0.1-0.3,0.1-0.6,0.2-0.9c0.1-0.3,0.3-0.6,0.4-0.9
				c0.1-0.3,0.1-0.7,0.2-0.9c0.1-0.3,0.2-0.6,0.2-0.9c0.1-0.3,0.2-0.6,0.3-0.9c0.1-0.3,0.1-0.6,0.3-0.9c0.3-0.3,0.8-0.2,1.2,0
				c0.4,0.1,0.7,0.3,1,0.5c0.3,0.3,0.3,0.6,0.3,1c-0.1,0.3-0.2,0.5-0.3,0.8c-0.1,0.5-0.1,0.5-0.3,1c-0.1,0.5,0,0.6-0.2,1.1
				c-0.1,0.5-0.3,0.5-0.4,1c-0.1,0.5-0.1,0.5-0.2,1c-0.1,0.5-0.1,0.5-0.3,1c-0.1,0.5-0.1,0.5-0.3,1.1c-0.1,0.5-0.1,0.5-0.3,1
				c-0.1,0.5-0.3,0.5-0.4,1c-0.1,0.5,0,0.6-0.2,1.1c-0.1,0.4-0.1,0.4-0.2,0.9c-0.1,0.4,0,0.5-0.1,0.9
				C119.2,21.5,119.1,21.4,119,21.9z"/>
			<path class="st0" d="M138.4,31.7c-0.3-0.1-0.6-0.2-0.9-0.3c-0.3-0.1-0.6-0.3-0.8-0.5c-0.2-0.2-0.4-0.5-0.3-0.8
				c0.2-0.4,0-0.7,0.2-1.2c0.1-0.3,0-0.6,0-0.9c0-0.3,0.1-0.5,0.1-0.8c0-0.2,0-0.5-0.2-0.7c-0.4-0.4-0.4-0.4-1-0.6
				c-0.5-0.2-0.5-0.3-1-0.5c-0.5-0.2-0.5-0.1-1-0.4c-0.5-0.3-0.4-0.4-0.9-0.6c-0.4-0.2-0.4-0.2-0.8-0.3c-0.3-0.1-0.5,0.2-0.7,0.4
				c-0.2,0.2-0.4,0.4-0.6,0.7c-0.2,0.2-0.3,0.4-0.5,0.6c-0.1,0.1,0,0.1,0,0.1c-0.4,0.1-0.7,0.4-1,0.6c-0.2,0.2-0.5,0.4-0.9,0.2
				c-0.3-0.1-0.8-0.2-1.2-0.4c-0.4-0.2-0.7-0.5-0.6-0.9c0.1-0.4,0.5-0.5,0.7-0.8c0.2-0.2,0.4-0.5,0.6-0.7c0.2-0.2,0.5-0.4,0.7-0.7
				c0.2-0.2,0.5-0.4,0.7-0.7c0.2-0.2,0.5-0.4,0.7-0.6c0.2-0.2,0.5-0.4,0.7-0.7c0.2-0.2,0.4-0.5,0.6-0.7c0.2-0.2,0.5-0.3,0.8-0.5
				c0.2-0.2,0.4-0.5,0.6-0.7c0.2-0.2,0.3-0.5,0.5-0.8c0.2-0.2,0.5-0.3,0.7-0.5c0.3-0.3,0.4-0.6,0.7-0.8c0.2-0.2,0.5-0.4,0.7-0.6
				c0.2-0.2,0.4-0.5,0.7-0.7c0.2-0.2,0.5-0.4,0.7-0.6c0.2-0.2,0.5-0.4,0.7-0.6c0.2-0.2,0.4-0.6,0.7-0.6c0.3-0.1,0.7,0,1,0.1
				c0.3,0.1,0.6,0.3,0.9,0.5c0.3,0.1,0.6,0.2,0.9,0.4c0.2,0.2,0.2,0.3,0.3,0.5c0,0.4-0.1,0.7-0.1,1.1c0,0.4-0.2,0.7-0.2,1
				c0,0.4,0.2,0.7,0.1,1.1c0,0.4-0.1,0.7-0.2,1c0,0.4,0,0.7,0,1.1c-0.1,0.3-0.2,0.7-0.2,1c-0.1,0.3-0.2,0.7-0.3,1c0,0.3,0,0.6,0,0.9
				c0,0.3,0,0.6,0,0.9c0,0.3-0.1,0.6-0.1,0.9c0,0.3-0.1,0.6-0.2,0.9c0,0.3-0.1,0.6-0.1,0.9c0,0.3-0.2,0.6-0.2,0.9c0,0.3,0,0.6,0,0.9
				c0,0.3,0,0.6,0,0.9c0,0.3-0.2,0.5-0.3,0.9C139,31.7,138.7,31.8,138.4,31.7z M137.4,22.3c0.1-0.3,0.1-0.7,0.2-1
				c0.1-0.4,0.1-0.7,0.1-1.1s0.1-0.7,0.1-1.1c0-0.4,0.4-0.8,0.2-1.1c-0.2-0.3-0.7,0.3-1,0.5c-0.2,0.2-0.4,0.4-0.7,0.7
				c-0.2,0.3-0.4,0.6-0.7,0.8c-0.2,0.3-0.5,0.5-0.8,0.8c-0.2,0.3-0.7,0.5-0.7,0.9c-0.1,0.2,0.3,0.4,0.5,0.5c0.3,0.2,0.5,0.3,0.8,0.4
				c0.3,0.1,0.6,0.2,0.9,0.3c0.3,0.1,0.6,0.5,0.8,0.4C137.4,23.1,137.3,22.6,137.4,22.3z"/>
			<path class="st0" d="M156.8,43.2c-0.2,0.2-0.4,0.3-0.7,0.3c-0.3,0-0.4,0.1-0.6,0c-0.4-0.2-0.3-0.4-0.7-0.7
				c-0.4-0.3-0.4-0.3-0.9-0.6c-0.4-0.3-0.4-0.3-0.8-0.6c-0.4-0.3-0.4-0.3-0.8-0.6c-0.4-0.3-0.5-0.2-0.9-0.5
				c-0.4-0.3-0.4-0.3-0.7-0.6c-0.5-0.3-0.5-0.3-0.9-0.6c-0.4-0.3-0.3-0.3-0.7-0.6c-0.4-0.3-0.4-0.3-0.7-0.6
				c-0.4-0.3-0.3-0.3-0.7-0.6c-0.4-0.3-0.4-0.3-0.8-0.5c-0.3-0.2-0.4-0.1-0.7-0.4c-0.2-0.2-0.2-0.5-0.1-0.8c0.1-0.2,0.2-0.4,0.4-0.6
				c0.4-0.4,0.4-0.4,0.7-0.8c0.3-0.4,0.3-0.4,0.6-0.8c0.3-0.4,0.2-0.5,0.5-0.9c0.3-0.5,0.3-0.5,0.6-0.9c0.3-0.4,0.4-0.3,0.8-0.8
				c0.3-0.4,0.2-0.5,0.5-0.9c0.3-0.4,0.3-0.4,0.6-0.8c0.3-0.4,0.3-0.4,0.6-0.8c0.3-0.5,0.4-0.4,0.7-0.8c0.3-0.4,0.3-0.4,0.6-0.7
				c0.3-0.5,0.3-0.5,0.6-1c0.3-0.4,0.3-0.4,0.5-0.7c0.3-0.4,0.4-0.3,0.7-0.7c0.2-0.3,0-0.5,0.3-0.6c0.3-0.2,0.8,0,1.1,0.2
				c0.3,0.2,0.5,0.4,0.7,0.6c0.2,0.2,0.3,0.5,0.2,0.7c-0.1,0.4-0.2,0.4-0.5,0.8c-0.3,0.4-0.2,0.5-0.5,0.9c-0.3,0.4-0.5,0.3-0.7,0.7
				c-0.3,0.4-0.2,0.5-0.5,0.8c-0.3,0.4-0.3,0.4-0.6,0.8c-0.3,0.4-0.4,0.3-0.7,0.8c-0.3,0.4-0.1,0.5-0.4,0.9
				c-0.3,0.4-0.4,0.3-0.7,0.7c-0.3,0.4-0.2,0.5-0.5,0.8c-0.3,0.4-0.4,0.3-0.7,0.7c-0.3,0.4-0.3,0.4-0.6,0.8
				c-0.3,0.4-0.2,0.4-0.5,0.8c-0.2,0.2-0.5,0.2-0.4,0.5c0.1,0.3,0.6,0.4,0.9,0.7c0.3,0.2,0.5,0.5,0.8,0.7c0.3,0.2,0.6,0.4,0.9,0.6
				c0.3,0.2,0.5,0.6,0.8,0.8c0.3,0.2,0.7,0.3,0.9,0.5c0.3,0.2,0.6,0.5,0.9,0.6c0.3,0.2,0.6,0.4,0.9,0.6c0.2,0.2,0.5,0.4,0.7,0.6
				c0.2,0.2,0.5,0.4,0.7,0.5c0.2,0.2,0.4,0.4,0.7,0.6c0.3,0.3,0.1,0.5,0.1,0.9C157.4,42.7,157,42.9,156.8,43.2z"/>
		</g>
		<g>
			<path class="st0" d="M7.4,81.6c-0.2,0.2-0.3,0.5-0.6,0.6c-0.3,0.1-0.6-0.1-0.9-0.2c-0.3-0.2-0.5-0.4-0.7-0.6
				c-0.2-0.2-0.4-0.3-0.5-0.5c-0.1-0.1,0-0.2,0-0.3c0.2-0.4,0.3-0.4,0.6-0.8c0.3-0.4,0.4-0.3,0.7-0.8c0.3-0.4,0.3-0.4,0.6-0.9
				c0.3-0.4,0.2-0.5,0.5-0.9c0.3-0.4,0.4-0.4,0.7-0.8c0.3-0.4,0.3-0.4,0.6-0.8c0.3-0.4,0.2-0.5,0.5-0.9c0.3-0.4,0.3-0.4,0.6-0.8
				c0.3-0.4,0.5-0.3,0.7-0.7c0.3-0.4,0.2-0.4,0.5-0.8c0.3-0.4,0.2-0.4,0.5-0.8c0.3-0.4,0.3-0.4,0.7-0.9c0.3-0.4,0.2-0.4,0.5-0.8
				c0.3-0.4,0.3-0.4,0.6-0.8c0.2-0.3,0.2-0.4,0.5-0.5c0.4-0.2,0.9-0.1,1.2,0.2c0.2,0.2,0.4,0.4,0.6,0.6c0.1,0.2,0.3,0.4,0.3,0.6
				c-0.1,0.3-0.3,0.6-0.5,0.8c-0.1,0.3-0.4,0.5-0.6,0.7c-0.2,0.3-0.4,0.5-0.5,0.8c-0.2,0.2-0.4,0.5-0.6,0.8
				c-0.2,0.2-0.2,0.6-0.4,0.9c-0.2,0.2-0.5,0.4-0.6,0.6c-0.2,0.2-0.3,0.4-0.5,0.6c-0.2,0.3-0.3,0.6-0.5,0.9
				c-0.2,0.3-0.4,0.6-0.6,0.9c-0.2,0.3-0.5,0.5-0.7,0.8c-0.1,0.3-0.4,0.5-0.5,0.7c-0.2,0.2-0.4,0.5-0.5,0.7
				c-0.2,0.3-0.4,0.5-0.6,0.7c-0.2,0.3-0.2,0.6-0.4,0.9C7.8,81.1,7.6,81.4,7.4,81.6z"/>
			<path class="st0" d="M35.7,88.2c-0.1,0.3-0.3,0.6-0.5,0.9c-0.1,0.3-0.3,0.6-0.4,0.9c-0.1,0.3-0.2,0.7-0.3,1
				c-0.1,0.3-0.4,0.6-0.6,0.9c-0.1,0.3-0.2,0.7-0.4,1c-0.1,0.3-0.1,0.6-0.2,0.9c-0.1,0.3-0.3,0.5-0.5,0.8c-0.1,0.3-0.1,0.6-0.4,0.8
				c-0.3,0.2-0.7-0.1-1.1-0.3c-0.3-0.1-0.8-0.1-0.9-0.4c-0.2-0.3-0.1-0.4-0.1-0.7c0.1-0.4,0.1-0.7,0.3-1.1c0.1-0.3,0.4-0.6,0.6-0.9
				c0.1-0.3,0.2-0.7,0.4-1c0.1-0.3,0.3-0.6,0.4-1c0.1-0.3,0.3-0.6,0.4-1c0.1-0.3,0.3-0.5,0.4-0.8c0.1-0.3,0.1-0.6,0.2-0.9
				c0.2-0.3,0.3-0.6,0.4-0.8s0.2-0.6,0.3-0.9c0.1-0.3,0.4-0.5,0.5-0.8c0.1-0.3,0.2-0.6,0.2-0.9c0-0.1-0.2-0.2-0.4-0.1
				c-0.3,0.2-0.4,0.6-0.6,0.9c-0.2,0.3-0.4,0.6-0.7,0.8c-0.2,0.3-0.6,0.4-0.8,0.7c-0.2,0.3-0.4,0.6-0.7,0.8
				c-0.2,0.3-0.5,0.5-0.7,0.8c-0.2,0.2-0.4,0.5-0.7,0.7c-0.2,0.2-0.4,0.5-0.6,0.7c-0.2,0.2-0.4,0.4-0.6,0.7
				c-0.2,0.2-0.4,0.5-0.6,0.7c-0.2,0.2-0.5,0.4-0.7,0.6c-0.2,0.2-0.4,0.4-0.6,0.7c-0.2,0.2-0.4,0.5-0.6,0.6
				c-0.3,0.2-0.6,0.2-0.9,0.1c-0.3-0.1-0.5-0.2-0.7-0.5c-0.2-0.3-0.2-0.7-0.2-1c0-0.4-0.1-0.7-0.1-1.1c0-0.3,0.1-0.6,0.1-0.9
				c0-0.3,0.2-0.5,0.2-0.8c0-0.4-0.2-0.7-0.2-1c0-0.4,0-0.7,0-1.1c0-0.3,0.1-0.7,0.1-1c0-0.3,0.2-0.6,0.2-0.9c0-0.3,0.1-0.6,0-0.8
				c0-0.3-0.2-0.6-0.2-1c0-0.3,0.1-0.6,0.1-1c0-0.3,0-0.7,0-1c0-0.3,0-0.8-0.2-0.7c-0.3,0.1-0.3,0.6-0.4,1s-0.3,0.6-0.5,1
				c-0.2,0.3-0.4,0.6-0.5,1c-0.1,0.3-0.2,0.6-0.3,0.9c-0.1,0.3-0.4,0.6-0.5,1c-0.1,0.3-0.2,0.6-0.3,0.9c-0.1,0.3-0.1,0.6-0.3,0.9
				c-0.2,0.3-0.4,0.5-0.5,0.8c-0.1,0.3-0.2,0.6-0.3,0.9c-0.1,0.3-0.2,0.6-0.3,0.9c-0.1,0.3-0.2,0.6-0.4,0.8c-0.3,0.3-0.8,0.1-1.1,0
				c-0.4-0.2-0.8-0.2-1-0.5c-0.2-0.4-0.1-0.4,0-0.8c0.1-0.5,0.1-0.5,0.3-1c0.2-0.5,0.2-0.5,0.4-1c0.2-0.5,0.3-0.4,0.5-0.9
				c0.2-0.5,0.2-0.5,0.4-1.1c0.2-0.5,0.2-0.5,0.4-1c0.2-0.5,0-0.5,0.2-1c0.2-0.5,0.3-0.4,0.4-0.9c0.2-0.5,0.1-0.5,0.3-0.9
				c0.2-0.4,0.2-0.4,0.4-0.9c0.2-0.5,0.3-0.4,0.5-1c0.2-0.4,0.2-0.4,0.4-0.9c0.2-0.4,0.1-0.5,0.3-0.9c0.2-0.5,0.3-0.4,0.5-0.9
				c0.1-0.3,0.1-0.3,0.3-0.7c0.2-0.4,0.5-1,1-0.7c0.3,0.1,0.6,0.3,0.9,0.5c0.3,0.1,0.7,0.2,1.1,0.4c0.3,0.2,0.6,0.4,0.7,0.7
				c0.1,0.2,0.3,0.5,0.2,0.8c0,0.3-0.1,0.7-0.1,1.1c0,0.4,0,0.7,0,1.1c0,0.4,0,0.7,0,1.1c0,0.4-0.1,0.7-0.1,1.1
				c0,0.4,0.1,0.7,0.1,1.1c0,0.3-0.1,0.6-0.1,0.9c0,0.3,0,0.6,0,0.9c0,0.4,0,0.7,0,1.1c0,0.3-0.1,0.6-0.1,0.9c0,0.2,0,0.5,0,0.8
				c0,0.2-0.1,0.5,0.1,0.4c0.3-0.2,0.5-0.6,0.7-0.8c0.2-0.3,0.6-0.5,0.8-0.7c0.2-0.3,0.3-0.6,0.6-0.9c0.2-0.3,0.5-0.5,0.8-0.7
				c0.2-0.3,0.5-0.5,0.7-0.8c0.2-0.3,0.4-0.6,0.7-0.8c0.2-0.2,0.5-0.4,0.7-0.6c0.2-0.2,0.4-0.5,0.6-0.7c0.2-0.2,0.4-0.5,0.6-0.7
				c0.2-0.2,0.4-0.5,0.6-0.7c0.2-0.2,0.4-0.6,0.7-0.7c0.3-0.1,0.7,0.1,1.1,0.2c0.3,0.1,0.6,0.4,1,0.5c0.3,0.1,0.6,0.2,0.9,0.3
				c0.3,0.1,0.6,0.2,0.8,0.4c0.2,0.2,0.1,0.5,0,0.8c-0.1,0.3-0.2,0.6-0.3,0.9c-0.1,0.3-0.2,0.5-0.3,0.8c-0.1,0.3-0.3,0.6-0.4,0.9
				c-0.1,0.3-0.1,0.7-0.3,1c-0.1,0.3-0.4,0.6-0.5,0.9c-0.1,0.3-0.2,0.7-0.3,1C36.1,87.6,35.8,87.9,35.7,88.2z"/>
			<path class="st0" d="M60,91.7c-0.1,0.3-0.3,0.5-0.5,0.8c-0.2,0.3-0.3,0.6-0.6,0.9c-0.2,0.2-0.3,0.5-0.5,0.7
				c-0.3,0.2-0.6,0.4-0.9,0.5c-0.3,0.1-0.7,0.2-1,0.3c-0.3,0.1-0.7,0-1,0c-0.3,0-0.6,0.1-0.9,0c-0.3,0-0.6-0.1-0.9-0.2
				c-0.3-0.1-0.6-0.1-0.9-0.2c-0.3-0.1-0.6-0.1-0.9-0.2c-0.3-0.1-0.6-0.2-0.9-0.3c-0.3-0.1-0.7,0-1,0c-0.3,0-0.5-0.2-0.8-0.2
				c-0.3,0-0.5-0.1-0.7,0.1c-0.3,0.2-0.4,0.6-0.5,0.9c-0.1,0.4,0,0.8-0.1,1.2c-0.1,0.3-0.2,0.7-0.3,1c-0.1,0.4-0.2,0.7-0.3,1
				c-0.1,0.3,0.1,0.8-0.1,1c-0.3,0.4-0.8,0.3-1.2,0.2c-0.4-0.1-0.7-0.2-1-0.3c-0.3-0.2-0.2-0.3-0.3-0.6c0-0.3,0.1-0.7,0.1-1
				c0-0.4,0-0.7,0.1-1.1c0-0.3,0.1-0.7,0.2-1c0-0.4,0.1-0.7,0.1-1c0.1-0.4,0.2-0.7,0.3-1.1c0.1-0.3,0-0.7,0.1-1.1
				c0.1-0.3,0.2-0.6,0.3-0.9c0.1-0.3,0.2-0.6,0.2-0.9c0.1-0.3,0-0.6,0.1-0.9c0.1-0.3,0.2-0.6,0.3-0.9c0.1-0.3,0.1-0.6,0.2-0.9
				c0.1-0.3-0.1-0.6,0-0.9c0.1-0.3,0.2-0.6,0.3-0.9c0.1-0.3,0.2-0.6,0.2-0.9c0-0.3-0.1-0.6,0-0.8c0.2-0.4,0.6-0.5,1-0.6
				c0.5,0,0.5,0.1,1.1,0.2c0.5,0.1,0.5,0.3,1,0.4c0.5,0.1,0.5,0,1,0.1c0.5,0.1,0.4,0.2,0.9,0.3c0.5,0.1,0.5,0.1,1,0.2
				c0.5,0.1,0.5,0,0.9,0.1c0.5,0.1,0.5,0,0.9,0.1c0.4,0.1,0.4,0.1,0.9,0.3c0.5,0.1,0.5,0,1,0.1c0.3,0.1,0.3,0.1,0.6,0.2
				c0.3,0.2,0.6,0.4,0.9,0.6c0.3,0.2,0.6,0.4,0.9,0.6c0.2,0.2,0.4,0.5,0.6,0.8c0.2,0.3,0.1,0.6,0.2,0.9c0.1,0.3,0.3,0.6,0.3,1
				c0,0.3,0,0.7-0.1,1.1C60.3,91,60.2,91.3,60,91.7z M57.4,89.2c-0.1-0.3-0.3-0.5-0.5-0.7c-0.3-0.3-0.6-0.4-0.9-0.6
				c-0.3-0.2-0.6-0.4-1-0.4c-0.3-0.1-0.7-0.1-1-0.1c-0.3,0-0.6-0.2-1-0.2c-0.4,0-0.7,0-1-0.1c-0.3-0.1-0.6-0.1-1-0.2
				c-0.4-0.1-0.7-0.2-1.1-0.2c-0.4,0-0.6,0.2-0.8,0.5c-0.2,0.3,0.1,0.6,0,0.9c0,0.3-0.2,0.6-0.3,0.9c-0.1,0.3-0.3,0.6-0.3,1
				c0,0.2,0.1,0.5,0.1,0.7c0,0.3,0,0.5,0.4,0.5c0.3,0,0.6,0,0.9,0.1c0.3,0.1,0.6,0.2,1,0.3c0.3,0.1,0.6,0.2,1,0.2
				c0.3,0.1,0.6,0.1,1,0.2c0.4,0.1,0.7,0,1.1,0.1c0.4,0,0.8,0.1,1.1,0.1c0.4,0,0.8,0,1.1-0.2c0.3-0.1,0.4-0.4,0.5-0.6
				c0.2-0.3,0.3-0.7,0.3-1C57.4,89.9,57.5,89.6,57.4,89.2z"/>
			<path class="st0" d="M84.1,96.2c0,0.3,0.1,0.7,0,1c-0.1,0.3-0.3,0.6-0.4,0.9c-0.1,0.2-0.2,0.5-0.3,0.7c-0.2,0.3-0.3,0.7-0.5,1
				c-0.2,0.3-0.3,0.6-0.6,0.9s-0.5,0.5-0.8,0.7c-0.3,0.2-0.5,0.5-0.8,0.6c-0.3,0.2-0.6,0.3-1,0.4c-0.3,0.1-0.7,0.2-1,0.3
				c-0.3,0.1-0.7,0.3-1,0.3c-0.3,0-0.6-0.2-0.8-0.2c-0.3,0-0.7,0.2-1,0.1c-0.3,0-0.6-0.1-0.9-0.2c-0.3-0.1-0.6-0.3-0.8-0.4
				c-0.3-0.1-0.6-0.1-0.9-0.2c-0.2-0.1-0.4-0.2-0.6-0.4c-0.3-0.2-0.5-0.4-0.6-0.7c-0.2-0.3-0.5-0.4-0.7-0.7
				c-0.2-0.3-0.4-0.5-0.5-0.8c-0.2-0.3-0.3-0.7-0.4-1c-0.1-0.3-0.2-0.6-0.2-0.9c-0.1-0.3-0.1-0.6-0.2-0.9c-0.1-0.3-0.3-0.5-0.3-0.8
				c0-0.4,0-0.7,0-1.1c0-0.4-0.1-0.8-0.1-1.1c0-0.3,0.2-0.6,0.2-0.9c0.1-0.3,0.1-0.6,0.2-0.9c0.1-0.3,0.1-0.6,0.2-0.9
				c0.1-0.3,0.2-0.6,0.3-0.9c0.1-0.3,0.3-0.5,0.5-0.8c0.2-0.3,0.3-0.6,0.5-0.8c0.2-0.3,0.5-0.5,0.8-0.7c0.2-0.2,0.5-0.4,0.7-0.5
				c0.2-0.2,0.5-0.4,0.8-0.5c0.2-0.1,0.5-0.1,0.8-0.2c0.3-0.1,0.7-0.2,1.1-0.2c0.3-0.1,0.7,0,1.1,0c0.4,0,0.7-0.2,1.1-0.1
				c0.3,0.1,0.7,0.3,1,0.3c0.3,0.1,0.7,0,1.1,0.2c0.3,0.1,0.6,0.4,0.8,0.6c0.3,0.2,0.6,0.4,0.9,0.6c0.2,0.2,0.5,0.4,0.6,0.6
				c0.2,0.2,0.4,0.4,0.5,0.6c0.2,0.3,0.4,0.6,0.5,0.9c0.1,0.3,0.4,0.6,0.5,1c0.1,0.3,0.1,0.7,0.2,1.1c0.1,0.3,0.1,0.6,0.1,0.9
				c0.1,0.3,0.1,0.6,0.1,0.9c0,0.3,0.1,0.6,0.1,0.9C84.2,95.6,84.1,95.9,84.1,96.2z M81.2,94.2c0-0.3-0.1-0.6-0.1-0.9
				C81,93,81,92.7,80.9,92.4c-0.1-0.3-0.1-0.6-0.2-0.9c-0.1-0.2-0.4-0.4-0.5-0.6c-0.2-0.2-0.4-0.4-0.7-0.6c-0.3-0.2-0.5-0.4-0.8-0.5
				c-0.3-0.1-0.6-0.1-1-0.2c-0.3-0.1-0.6-0.2-0.9-0.2c-0.3,0-0.7,0-1,0.1c-0.3,0.1-0.6,0.3-0.9,0.4c-0.3,0.2-0.6,0.4-0.9,0.6
				c-0.2,0.3-0.4,0.6-0.6,0.8c-0.2,0.3-0.3,0.6-0.5,0.9s-0.2,0.7-0.2,1c0,0.3-0.1,0.5-0.2,0.8c0,0.3,0.1,0.6,0.1,0.9
				c0,0.3,0,0.6,0,0.9c0,0.3,0.1,0.6,0.1,0.9c0.1,0.3,0.1,0.7,0.2,1c0.1,0.3,0.4,0.5,0.5,0.7c0.2,0.2,0.4,0.5,0.6,0.7
				c0.2,0.2,0.4,0.3,0.7,0.4c0.3,0.2,0.6,0.2,0.9,0.3c0.3,0.1,0.6,0.2,0.9,0.2c0.3,0,0.7-0.1,1-0.1c0.4-0.1,0.7-0.2,1-0.3
				c0.3-0.1,0.6-0.2,0.8-0.4c0.2-0.2,0.3-0.5,0.5-0.7c0.2-0.3,0.4-0.5,0.6-0.7c0.1-0.3,0.1-0.6,0.2-0.9c0.1-0.3,0.2-0.6,0.2-0.9
				c0-0.4,0.2-0.7,0.2-1.1C81.3,94.7,81.2,94.5,81.2,94.2z"/>
			<path class="st0" d="M108,100.4c-0.3,0.1-0.6,0-0.9,0.1c-0.3,0-0.6,0.2-0.9,0.1c-0.3-0.2-0.5-0.5-0.8-0.7
				c-0.2-0.3-0.5-0.5-0.7-0.8c-0.3-0.3-0.5-0.5-0.8-0.8c-0.2-0.2-0.5-0.5-0.7-0.7c-0.2-0.2-0.3-0.5-0.6-0.8
				c-0.2-0.2-0.5-0.4-0.7-0.6c-0.2-0.2-0.4-0.4-0.6-0.6c-0.3-0.3-0.6-0.2-1,0c-0.3,0.1-0.7,0.2-1,0.2c-0.4,0-0.8-0.1-1.2,0
				c-0.4,0.1-0.8,0.2-0.9,0.5c-0.2,0.5,0,0.5,0.1,1c0,0.5,0.1,0.5,0.2,1c0.1,0.5,0.1,0.5,0.1,1.1c0.1,0.5-0.1,0.5,0,1
				c0.1,0.4,0.2,0.4,0.2,0.8c0,0.5-0.3,0.7-0.8,0.7c-0.3,0-0.7,0.1-1,0.1c-0.5,0.1-0.7-0.2-0.8-0.6c-0.1-0.3-0.3-0.7-0.3-1.1
				c0-0.4,0.1-0.8,0-1.1c-0.1-0.3-0.2-0.7-0.2-1c0-0.4,0-0.7,0-1.1c-0.1-0.4-0.1-0.7-0.1-1.1c0-0.3-0.2-0.7-0.3-1
				c-0.1-0.4,0-0.7-0.1-1.1c-0.1-0.4-0.2-0.7-0.2-1.1c0-0.4-0.2-0.7-0.2-1c0-0.3-0.1-0.6-0.1-1c0-0.3,0-0.6,0-0.9
				c0-0.3,0-0.6-0.1-0.8c-0.3-0.4,0.1-0.6-0.2-1c-0.3-0.6-0.5-0.8-0.2-1.3c0.2-0.3,0.8-0.1,1.1-0.2c0.3-0.1,0.6-0.4,1-0.4
				c0.3-0.1,0.7-0.1,1-0.2c0.3,0,0.7,0.1,1,0.1c0.3,0,0.6-0.2,1-0.2c0.3,0,0.6,0,0.9,0c0.3,0,0.6-0.1,0.9-0.2c0.3,0,0.6-0.1,0.9-0.2
				c0.3,0,0.5,0.1,0.8,0c0.4,0,0.7-0.2,1.1-0.2c0.4,0,0.7,0.2,1.1,0.3c0.3,0.1,0.6,0.3,1,0.4c0.3,0.2,0.7,0.3,0.9,0.5
				c0.2,0.2,0.4,0.5,0.5,0.8c0.2,0.2,0.4,0.4,0.5,0.7c0.1,0.3,0.2,0.7,0.2,1.1c0.1,0.3,0.1,0.7,0.1,1c0,0.3,0,0.6-0.1,1
				c0,0.3,0,0.6-0.1,0.9c-0.1,0.3-0.2,0.6-0.3,0.8c-0.2,0.4-0.4,0.7-0.6,0.9c-0.3,0.2-0.7,0.3-0.9,0.5c-0.2,0.2-0.6,0.3-0.6,0.5
				c0,0.3,0.4,0.5,0.6,0.8c0.2,0.3,0.5,0.5,0.7,0.8c0.2,0.2,0.4,0.4,0.7,0.6c0.2,0.2,0.3,0.5,0.5,0.7c0.2,0.3,0.5,0.5,0.8,0.8
				c0.3,0.2,0.4,0.6,0.7,0.8c0.2,0.2,0.5,0.4,0.4,0.7C108.7,100.3,108.3,100.4,108,100.4z M103.9,88.8c-0.2-0.2-0.5-0.4-0.8-0.5
				c-0.2-0.1-0.5-0.2-0.8-0.1c-0.3,0-0.6,0.1-0.8,0.1c-0.3,0-0.6,0-1,0c-0.3,0-0.6,0.1-1,0.1c-0.3,0-0.6,0.1-0.9,0.1
				c-0.4,0.1-0.7,0.2-1,0.2c-0.4,0.1-0.7,0.1-1,0.3c-0.3,0.2-0.3,0.6-0.3,0.9c0,0.3,0.1,0.7,0.2,1c0.1,0.4,0.1,0.7,0.2,1.1
				c0.1,0.4,0,0.8,0.2,1c0.1,0.2,0.5,0,0.7,0c0.3,0,0.6-0.1,0.9-0.1c0.3,0,0.7-0.1,1-0.1c0.3,0,0.7-0.1,1-0.1c0.3,0,0.6,0,0.9-0.1
				c0.3,0,0.6-0.1,0.9-0.3c0.3-0.1,0.6-0.2,0.9-0.3c0.3-0.1,0.7-0.3,0.9-0.5c0.2-0.3,0.2-0.7,0.2-1.1c0-0.4,0.1-0.8-0.1-1.3
				C104.2,89.1,104.1,88.9,103.9,88.8z"/>
			<path class="st0" d="M129.2,81c-0.3,0.2-0.6,0.4-1,0.5c-0.3,0.1-0.7,0.1-1,0.2c-0.3,0.1-0.6,0.4-1,0.5c-0.3,0.1-0.7,0.2-1,0.4
				c-0.3,0.1-0.7,0.1-0.8,0.4s0.1,0.6,0.2,0.9c0.1,0.4,0.1,0.8,0.2,1.1c0.1,0.3,0.2,0.7,0.3,1c0.1,0.3,0.2,0.7,0.3,1
				c0.1,0.3,0.4,0.6,0.5,1c0.1,0.3,0.1,0.6,0.1,0.9c0.1,0.3,0.3,0.7,0.4,1c0.1,0.3,0.2,0.6,0.3,0.9c0.1,0.3,0.1,0.6,0.2,0.9
				c0.1,0.3,0.2,0.6,0.3,0.9c0.1,0.3,0.2,0.5,0.3,0.8c0.1,0.3,0,0.6,0.1,0.9c0,0.3,0.3,0.5,0.2,0.8c-0.1,0.2-0.5,0.4-0.8,0.5
				c-0.2,0.1-0.6,0.1-0.8,0.1c-0.3,0-0.6,0.2-0.8-0.1c-0.2-0.3-0.3-0.7-0.4-1c-0.1-0.4-0.2-0.7-0.3-1.1c-0.1-0.3-0.1-0.7-0.2-1
				c-0.1-0.4-0.1-0.7-0.2-1c-0.1-0.3-0.3-0.6-0.5-0.9c-0.1-0.2-0.3-0.5-0.4-0.8c-0.1-0.3-0.1-0.7-0.2-1.1c-0.1-0.3-0.1-0.7-0.2-1
				c-0.1-0.3-0.3-0.6-0.4-1c-0.1-0.3-0.2-0.7-0.3-1c-0.1-0.3-0.2-0.7-0.4-1c-0.1-0.2-0.1-0.6-0.3-0.8c-0.2-0.3-0.3-0.3-0.6-0.3
				c-0.5,0-0.5,0.3-1,0.4s-0.6,0-1.1,0.2c-0.4,0.1-0.4,0.1-0.9,0.2c-0.5,0.1-0.5,0.2-0.9,0.3C117,85,117,85,116.6,85
				c-0.4,0-0.6-0.2-0.7-0.5c-0.1-0.3-0.2-0.5-0.3-0.8c-0.1-0.5,0.1-0.9,0.5-1.1c0.3-0.2,0.7-0.2,1.1-0.3c0.3-0.1,0.6-0.1,0.8-0.2
				c0.3-0.2,0.6-0.3,0.9-0.4c0.4-0.1,0.7-0.2,1-0.4c0.3-0.1,0.7-0.1,1.1-0.2c0.3-0.1,0.6-0.4,1-0.5c0.3-0.1,0.7-0.1,1.1-0.2
				c0.3-0.1,0.6-0.3,1-0.4c0.3-0.1,0.7-0.2,1-0.4c0.3-0.1,0.6-0.1,0.9-0.2c0.3-0.1,0.6-0.2,0.9-0.3c0.3-0.1,0.6-0.3,0.8-0.4
				c0.3-0.1,0.6-0.2,0.8-0.3c0.3,0,0.7,0.2,0.8,0.5c0.1,0.3,0.3,0.7,0.3,1.1C129.7,80.4,129.6,80.7,129.2,81z"/>
			<path class="st0" d="M153.6,78c0.2,0.3,0.5,0.7,0.6,1c0.1,0.3,0.1,0.7,0.1,1.1c0.1,0.4,0.2,0.7,0.2,1c-0.1,0.4-0.3,0.7-0.4,1
				c-0.1,0.3-0.2,0.6-0.4,0.9c-0.2,0.3-0.4,0.6-0.7,0.8c-0.2,0.2-0.5,0.5-0.7,0.8c-0.3,0.2-0.6,0.4-0.9,0.7c-0.3,0.2-0.6,0.3-1,0.5
				s-0.6,0.4-0.9,0.6c-0.3,0.2-0.7,0.1-1.1,0.2c-0.3,0.1-0.7,0.2-1,0.2c-0.3,0.1-0.6,0.2-0.9,0.2c-0.3,0-0.6,0-0.9,0
				c-0.3,0-0.7-0.1-1.1-0.1c-0.3-0.1-0.6-0.2-0.8-0.4c-0.2-0.2-0.6-0.4-0.6-0.7c0.1-0.4,0.4-0.7,0.5-1.1c0.1-0.3,0.3-0.9,0.8-0.9
				c0.3,0,0.7,0.3,1,0.3c0.4,0.1,0.7,0.1,1.1,0.1c0.4,0,0.7,0.1,1.1,0c0.3,0,0.5-0.3,0.8-0.4c0.3-0.1,0.7,0,0.9-0.2
				c0.3-0.2,0.5-0.4,0.7-0.6c0.2-0.2,0.4-0.4,0.7-0.6c0.3-0.3,0.6-0.5,0.8-0.8c0.2-0.3,0.4-0.7,0.3-1.2c-0.1-0.3-0.2-0.5-0.4-0.7
				c-0.1-0.2-0.3-0.4-0.6-0.4c-0.3-0.2-0.7-0.1-1-0.1c-0.4,0-0.7-0.1-1,0c-0.3,0.1-0.7,0.1-1,0.3c-0.3,0.1-0.6,0.3-1,0.4
				c-0.3,0.1-0.6,0.4-0.8,0.5c-0.3,0.1-0.7,0.1-1,0.2c-0.3,0.1-0.5,0.1-0.8,0.2c-0.4,0.1-0.7,0.1-1,0.1c-0.4,0-0.8,0-1.1-0.1
				c-0.3-0.1-0.5-0.4-0.8-0.5c-0.3-0.2-0.6-0.2-0.8-0.4c-0.3-0.3-0.4-0.7-0.6-1c-0.2-0.3-0.3-0.7-0.4-1c-0.1-0.4-0.3-0.8-0.3-1.2
				c0-0.3,0.1-0.6,0.2-0.9c0.1-0.3,0.1-0.6,0.2-0.9c0.1-0.3,0.4-0.5,0.6-0.7c0.1-0.3,0.2-0.6,0.5-0.8c0.2-0.2,0.4-0.5,0.6-0.7
				c0.2-0.1,0.4-0.3,0.7-0.4c0.3-0.2,0.7-0.3,1-0.5c0.3-0.1,0.5-0.4,0.8-0.6c0.3-0.1,0.6-0.2,0.9-0.3c0.3-0.1,0.6-0.1,1-0.1
				c0.3-0.1,0.6-0.1,0.9-0.1c0.3,0,0.6,0,0.9,0.1c0.3,0,0.6,0.1,0.8,0.1c0.3,0.1,0.5,0.4,0.6,0.6c0,0.3-0.2,0.6-0.3,0.9
				c0,0.3-0.1,0.7-0.2,0.9c-0.2,0.2-0.4,0.2-0.8,0.2c-0.3,0-0.7-0.1-1-0.1c-0.3,0-0.6,0.2-0.9,0.2c-0.3,0.1-0.6,0.2-0.9,0.3
				c-0.3,0.1-0.6,0.3-0.8,0.4c-0.3,0.2-0.6,0.3-0.8,0.5c-0.2,0.2-0.4,0.3-0.6,0.6c-0.3,0.3-0.4,0.6-0.4,1c0,0.3,0,0.6,0.2,0.9
				c0.2,0.3,0.4,0.6,0.7,0.7c0.3,0.1,0.6,0.1,0.9,0c0.3-0.1,0.7-0.1,1-0.2c0.3-0.1,0.7-0.2,1-0.3c0.3-0.1,0.7-0.2,1-0.4
				c0.3-0.1,0.6-0.3,0.9-0.4c0.3-0.1,0.6-0.1,0.9-0.2c0.4-0.1,0.7-0.2,1-0.2c0.4-0.1,0.7-0.1,1,0c0.3,0,0.6,0.2,0.9,0.3
				c0.3,0.1,0.7,0.1,0.9,0.3c0.2,0.2,0.5,0.4,0.7,0.6C153.5,77.4,153.5,77.7,153.6,78z"/>
		</g>
		<g>
			<path class="st0" d="M60.9,46.9c-0.1,0.4-0.1,0.7-0.2,1.1c-0.1,0.3-0.2,0.7-0.3,1c-0.1,0.3-0.3,0.6-0.4,0.9c-0.1,0.3,0,0.7-0.1,1
				s-0.5,0.5-0.6,0.7c-0.2,0.3-0.2,0.7-0.3,1.1c-0.1,0.3-0.2,0.7-0.3,1c-0.1,0.3-0.1,0.6-0.2,0.9c-0.1,0.3-0.2,0.6-0.3,0.9
				c-0.1,0.2-0.3,0.4-0.4,0.7c-0.1,0.4-0.1,0.7-0.2,1c-0.1,0.3-0.2,0.6-0.3,0.9c-0.1,0.3-0.3,0.5-0.4,0.8c-0.1,0.3-0.2,0.5-0.3,0.8
				c-0.1,0.3-0.2,0.6-0.3,0.9c-0.1,0.2-0.2,0.4-0.5,0.4c-0.3,0-0.8,0.1-1.1,0c-0.3-0.1-0.6-0.3-0.7-0.8c0-0.4-0.1-0.7-0.2-1
				c-0.1-0.4-0.1-0.7-0.2-1.1c-0.1-0.4-0.2-0.7-0.3-1c-0.1-0.4-0.3-0.7-0.4-1c-0.1-0.3-0.3-0.7-0.4-1c-0.1-0.3-0.1-0.7-0.2-1
				c-0.1-0.3-0.3-0.6-0.4-0.9c-0.1-0.3-0.2-0.6-0.3-0.9c-0.1-0.3,0.1-0.9-0.2-0.8c-0.4,0.1-0.3,0.7-0.4,1c-0.2,0.3-0.5,0.6-0.6,0.9
				c-0.1,0.3-0.2,0.7-0.3,1c-0.1,0.3-0.1,0.6-0.2,0.9c-0.1,0.3-0.1,0.7-0.2,1c-0.1,0.3-0.3,0.6-0.4,0.9c-0.1,0.3,0,0.7-0.1,1
				c-0.1,0.3-0.4,0.5-0.5,0.8c-0.1,0.3-0.2,0.6-0.3,0.9c-0.1,0.3,0,0.6-0.1,0.8c-0.2,0.3-0.6,0.2-0.9,0.2s-0.7,0.1-0.9-0.1
				c-0.3-0.2-0.3-0.6-0.5-1c-0.1-0.3-0.1-0.6-0.2-0.9c-0.1-0.3-0.3-0.6-0.4-0.9c-0.1-0.3-0.3-0.6-0.4-0.9c-0.1-0.3,0-0.7-0.1-1
				c-0.1-0.3-0.2-0.6-0.3-0.9c-0.1-0.3-0.2-0.6-0.3-0.9c-0.1-0.3-0.3-0.5-0.4-0.8c-0.1-0.3-0.3-0.7-0.4-1c-0.1-0.3-0.1-0.6-0.1-0.9
				c-0.1-0.3-0.1-0.7-0.2-0.9c-0.1-0.3-0.3-0.5-0.4-0.8c-0.1-0.3-0.3-0.6-0.4-0.9c-0.1-0.3-0.1-0.6-0.2-0.9
				c-0.1-0.3-0.1-0.6-0.2-0.9c-0.1-0.3-0.3-0.6-0.3-0.9c0-0.3-0.3-0.7-0.2-1c0.3-0.4,0.9-0.2,1.4-0.2c0.4,0,0.7,0.1,1.1,0.2
				c0.3,0.1,0.5,0.4,0.7,0.7c0.1,0.3,0.2,0.6,0.3,0.9c0.1,0.3,0,0.6,0.1,0.9c0.1,0.3,0.3,0.5,0.4,0.7c0.1,0.3,0.1,0.7,0.2,1.1
				c0.1,0.3,0.2,0.7,0.2,1.1c0.1,0.4,0.3,0.7,0.4,1.1c0.1,0.4,0,0.7,0.1,1.1c0.1,0.3,0.2,0.6,0.3,0.9c0.1,0.3,0.3,0.5,0.5,0.7
				c0,0.1,0,0.2,0.1,0.1c0.2-0.3,0.2-0.6,0.3-1c0.1-0.3,0.4-0.6,0.5-1c0.1-0.3,0.2-0.7,0.3-1c0.1-0.4,0.3-0.7,0.4-1
				c0.1-0.3,0.2-0.7,0.3-1c0.1-0.3,0.1-0.7,0.2-1c0.1-0.3,0.2-0.6,0.3-0.9c0.1-0.3,0.2-0.5,0.3-0.8c0.1-0.4,0.2-0.9,0.4-1.3
				c0.2-0.3,0.5-0.6,0.9-0.6c0.3,0,0.7,0,1,0.1c0.3,0.1,0.5,0.4,0.6,0.7c0.1,0.4,0.2,0.7,0.3,1.1c0.1,0.4,0.2,0.7,0.3,1.1
				c0.1,0.4,0.2,0.7,0.3,1.1c0.1,0.3,0.3,0.6,0.4,0.9c0.1,0.3,0.1,0.7,0.2,1c0.1,0.3,0.2,0.6,0.3,0.9c0.1,0.3,0.3,0.5,0.4,0.8
				c0.1,0.3,0,0.7,0.1,1c0.1,0.2,0.1,0.6,0.2,0.8c0.1,0.1,0.3,0.4,0.4,0.2c0.2-0.3,0.3-0.7,0.4-1c0.1-0.4,0.1-0.7,0.2-1
				c0.1-0.3,0.3-0.6,0.4-0.9c0.1-0.3,0.2-0.7,0.3-1c0.1-0.4,0.1-0.7,0.3-1c0.1-0.4,0.3-0.6,0.5-1c0.1-0.3,0.2-0.6,0.3-0.9
				c0.1-0.3,0.2-0.7,0.3-1c0.1-0.4,0-0.8,0.2-1.1c0.2-0.3,0.5-0.4,0.9-0.4c0.4,0,0.8-0.1,1.1,0c0.4,0,0.8,0,0.8,0.4
				C61.4,46.2,61.1,46.5,60.9,46.9z"/>
			<path class="st0" d="M73.2,59.7c0,0.3,0,0.6-0.1,0.9c-0.2,0.3-0.6,0.3-0.9,0.4c-0.3,0-0.6,0-1-0.1c-0.2,0-0.5,0-0.7-0.1
				c-0.1-0.1-0.1-0.1-0.2-0.2c-0.1-0.5,0-0.5,0-1c0-0.5,0.1-0.5,0.1-1.1c0-0.5,0-0.5,0-1.1c0-0.5-0.2-0.5-0.2-1
				c0-0.5,0.1-0.5,0.1-1.1c0-0.5,0-0.5,0-1.1c0-0.5-0.1-0.5-0.1-1.1c0-0.5,0-0.5,0-1c0-0.5,0.2-0.5,0.2-1c0-0.5,0-0.5,0-1
				c0-0.5,0-0.5,0-0.9c0-0.5,0-0.5,0-1.1c0-0.5-0.1-0.5-0.1-0.9c0-0.5,0-0.5,0-1c0-0.3-0.1-0.4,0.1-0.7c0.2-0.4,0.6-0.6,1.1-0.6
				c0.3,0,0.6,0.1,0.8,0.2c0.2,0.1,0.5,0.1,0.6,0.4c0.1,0.3,0.1,0.7,0.1,1c0,0.3-0.1,0.6,0,0.9c0,0.3,0,0.6,0,1c0,0.3,0,0.6,0,1
				c0,0.3,0.2,0.6,0.2,0.9c0,0.3-0.2,0.6-0.2,0.8s0,0.5,0,0.8c0,0.3,0.1,0.7,0.1,1c0,0.4,0,0.7,0,1.1c0,0.4-0.1,0.7-0.1,1.1
				c0,0.3,0,0.6,0,0.9c0,0.3,0,0.6,0,0.9c0,0.3,0,0.6,0,0.9c0,0.3,0.2,0.6,0.2,1C73.3,59.1,73.3,59.4,73.2,59.7z"/>
			<path class="st0" d="M96.2,59.6c0,0.4,0.1,0.4,0,0.8c-0.1,0.5-0.5,0.6-0.9,0.6c-0.3,0-0.7,0.1-1,0.1c-0.4,0-0.8-0.2-1-0.5
				c-0.3-0.3-0.4-0.6-0.6-1c-0.2-0.3-0.5-0.4-0.7-0.6c-0.2-0.3-0.2-0.7-0.4-1c-0.2-0.3-0.4-0.6-0.6-0.9c-0.2-0.3-0.4-0.6-0.6-0.9
				c-0.2-0.3-0.3-0.5-0.5-0.8c-0.2-0.3-0.4-0.5-0.5-0.8c-0.2-0.3-0.3-0.6-0.4-0.8c-0.2-0.3-0.3-0.5-0.5-0.8
				c-0.2-0.3-0.3-0.6-0.5-0.8c-0.2-0.3-0.4-0.5-0.6-0.7c-0.3-0.3-0.5-0.6-0.7-1c-0.2-0.3-0.3-0.7-0.5-1c-0.2-0.3-0.6-0.5-0.8-0.8
				c-0.1-0.1-0.2-0.3-0.2-0.2c-0.1,0.3-0.1,0.7-0.1,1.1c0,0.4,0,0.7,0,1.1c0,0.3-0.2,0.6-0.2,0.9c0,0.3,0.1,0.6,0.1,0.9
				c0,0.3,0.1,0.6,0.1,0.9c0,0.3,0.1,0.6,0.1,0.9s0,0.6,0,0.9c0,0.3-0.4,0.6-0.3,0.9c0.2,0.4,0.1,0.6,0.2,0.9c0.1,0.4,0,0.8,0,1.1
				c0,0.4,0,0.8,0,1.2c0,0.4-0.1,0.7-0.1,1c-0.1,0.5-0.6,0.5-1.1,0.5c-0.4,0-0.8,0-1.1-0.1c-0.3-0.1-0.4-0.1-0.5-0.4
				c-0.1-0.5,0.1-0.5,0.1-1.1c0-0.5-0.2-0.5-0.2-1c0-0.5,0.2-0.5,0.2-1.1c0-0.5-0.1-0.5-0.1-1c0-0.5-0.1-0.5-0.1-1
				c0-0.5,0.2-0.5,0.2-1.1c0-0.5-0.2-0.5-0.2-1.1c0-0.5,0.2-0.5,0.2-1c0-0.5,0-0.5,0-1c0-0.5-0.2-0.5-0.2-1c0-0.5,0-0.5,0-1
				c0-0.5,0.1-0.5,0.1-1c0-0.5,0-0.5,0-1c0-0.4-0.1-0.4-0.1-0.8c0-0.4,0-0.4,0-0.8c0-0.3,0.4-0.5,0.6-0.6c0.3,0,0.5-0.2,0.7-0.1
				c0.3,0,0.6,0.2,0.9,0.2c0.3,0,0.7,0.1,1,0.1c0.3,0,0.6,0,0.9,0.2c0.2,0.1,0.5,0.2,0.7,0.5c0.2,0.3,0.3,0.6,0.5,0.9
				c0.2,0.3,0.3,0.6,0.5,0.8c0.2,0.3,0.4,0.5,0.6,0.7c0.2,0.3,0.3,0.6,0.5,0.8c0.2,0.3,0.4,0.6,0.6,0.9c0.2,0.3,0.3,0.6,0.5,0.8
				c0.2,0.3,0.5,0.4,0.7,0.7c0.2,0.3,0.3,0.6,0.4,0.8c0.2,0.2,0.3,0.5,0.5,0.8c0.2,0.2,0.4,0.4,0.6,0.7c0.2,0.2,0.2,0.6,0.4,0.8
				c0.1,0.2,0.3,0.8,0.5,0.7c0.3-0.2,0-0.7,0-1.1c0-0.4,0.1-0.7,0.1-1.1c0-0.4,0.1-0.7,0.1-1.1c0-0.4-0.1-0.7-0.1-1.1
				c0-0.3-0.1-0.6-0.1-1c0-0.3,0.1-0.6,0.1-0.9c0-0.3-0.1-0.7-0.1-1c0-0.3,0-0.6,0-1c0-0.3,0-0.6,0-0.9c0-0.3,0-0.7,0.1-0.9
				c0.2-0.4,0.7-0.4,1.2-0.3c0.4,0,0.8,0.1,1.1,0.2c0.4,0.2,0.5,0.5,0.5,0.9c0,0.3-0.1,0.6-0.1,0.9c0,0.5,0,0.5,0,1
				c0,0.6,0.1,0.6,0.1,1.1c0,0.5-0.1,0.5-0.1,1.1c0,0.5,0.1,0.5,0.1,1.1c0,0.5,0,0.5,0,1c0,0.6,0,0.6,0,1.1c0,0.5,0,0.5,0,1.1
				c0,0.5-0.2,0.5-0.2,1.1c0,0.6,0.1,0.6,0.1,1.1c0,0.5,0,0.5,0,1c0,0.5,0.1,0.5,0.1,0.9C96.3,59.1,96.2,59.1,96.2,59.6z"/>
			<path class="st0" d="M118.2,60.7c-0.2,0.1-0.5,0.1-0.8,0.1c-0.5-0.1-0.5,0-1,0c-0.5,0-0.5-0.1-1-0.1c-0.6,0-0.6,0.1-1.1,0.1
				s-0.5-0.1-1.1-0.1c-0.5,0-0.5,0.2-1,0.2c-0.5,0-0.5-0.2-1-0.2s-0.5,0.1-1,0.1c-0.5,0-0.5,0-1,0c-0.5,0-0.5,0.1-1,0.1
				c-0.5,0-0.5-0.1-1-0.1c-0.4,0-0.4,0.1-0.8,0.1c-0.3,0-0.4,0.2-0.7,0c-0.3-0.2-0.3-0.3-0.4-0.6c-0.1-0.5,0-0.5,0-1.1
				c0-0.5,0-0.5,0-1c0-0.5-0.1-0.5-0.1-1c0-0.5,0.1-0.5,0.1-1.1c0-0.5,0-0.5,0-1c0-0.5-0.1-0.5-0.1-1c0-0.5,0-0.5,0-1.1
				c0-0.5,0-0.5,0-1c0-0.5,0-0.5,0-1c0-0.5,0-0.5,0-1c0-0.5,0-0.5,0-1c0-0.4,0.1-0.4,0.1-0.8c0-0.5-0.1-0.5-0.1-1
				c0-0.4-0.1-0.4-0.1-0.9c0-0.3,0-0.3,0-0.6c0.1-0.5,0.5-0.6,1-0.6c0.3,0,0.7-0.1,1-0.1c0.4-0.1,0.7,0.1,1.1,0.1s0.7,0,1.1,0
				c0.4,0,0.7-0.2,1.1-0.2c0.4,0,0.7,0.1,1.1,0.1c0.3,0,0.6-0.1,0.9,0c0.3,0,0.7,0,1,0c0.3,0,0.6,0.1,0.9,0.1s0.6-0.2,0.9-0.1
				c0.3,0,0.6,0.2,0.9,0.2c0.3,0,0.6,0,0.9,0c0.3,0,0.6-0.2,0.8-0.1c0.4,0.2,0.4,0.7,0.4,1.2c0,0.3,0.1,0.7,0,1
				c-0.1,0.3-0.3,0.2-0.6,0.2c-0.3,0.1-0.7,0-1,0c-0.3,0-0.7,0-1,0c-0.3,0-0.6,0.1-1,0.1c-0.3,0-0.6,0-0.9,0c-0.3,0-0.6-0.1-1-0.1
				c-0.3,0-0.6-0.1-0.9-0.1c-0.3,0-0.6,0.1-0.9,0.1c-0.3,0-0.6,0.2-0.9,0.2c-0.3,0-0.6-0.1-1-0.1c-0.3,0-0.7-0.1-0.9,0.1
				c-0.3,0.3-0.2,0.8-0.2,1.2c0,0.4,0.1,0.8,0.1,1.1c0,0.4-0.1,0.7,0.1,0.9c0.3,0.2,0.7,0.2,1.1,0.2c0.3,0,0.7,0.1,1,0.1
				c0.4,0,0.7-0.1,1.1-0.1c0.3,0,0.6,0,1,0c0.4,0,0.7,0,1.1,0c0.3,0,0.5,0.1,0.8,0.2c0.3,0.1,0.4,0.4,0.4,0.7c0,0.3,0.1,0.6,0.1,0.8
				c0,0.3,0,0.6-0.2,0.8c-0.3,0.2-0.7,0.2-1,0.3c-0.4,0.1-0.7,0.1-1.1,0.1c-0.4,0-0.7,0.1-1.1,0.1c-0.4,0-0.7-0.1-1.1-0.1
				c-0.3,0-0.6,0-1,0c-0.3,0-0.6,0-0.8,0.1c-0.5,0.2-0.7,0.6-0.7,1.1c0,0.3,0.1,0.6,0.1,0.9c0,0.3,0.2,0.5,0.2,0.7
				c0,0.5-0.3,1,0.1,1.2c0.3,0.1,0.7-0.1,1.1-0.1c0.4,0,0.7,0.1,1.1,0.1c0.4,0,0.7,0,1.1,0c0.4,0,0.7,0.1,1.1,0.1
				c0.3,0,0.6-0.1,1-0.1c0.3,0,0.7,0,1.1,0.1c0.3,0,0.6,0,0.9,0c0.3,0,0.6,0.2,0.9,0.2c0.3,0,0.6,0,0.9,0c0.3,0,0.5,0,0.8,0.1
				c0.3,0.1,0.3,0.5,0.3,0.9c0,0.3,0.3,0.6,0.2,0.9C118.8,60.4,118.5,60.6,118.2,60.7z"/>
		</g>
	</g>
</g>
</svg>
