<?xml version="1.0" encoding="utf-8"?>
<!-- Generator: Adobe Illustrator 24.3.0, SVG Export Plug-In . SVG Version: 6.00 Build 0)  -->
<svg version="1.1" id="Layer_1" xmlns="http://www.w3.org/2000/svg" xmlns:xlink="http://www.w3.org/1999/xlink" x="0px" y="0px"
	 viewBox="0 0 393.8 102.3" style="enable-background:new 0 0 393.8 102.3;" xml:space="preserve">
<style type="text/css">
	.st0{fill:#00AF4C;}
	.st1{fill:#004A8A;}
</style>
<g>
	<path class="st0" d="M117,2.2h5.8c1.6,0,2.9,0.5,3.7,1.2c0.6,0.6,0.9,1.3,0.9,2.2v0c0,1.9-1.2,2.9-2.4,3.3c1.7,0.4,3.2,1.4,3.2,3.4
		v0c0,2.4-2,3.8-5,3.8H117V2.2z M122.7,8.7c2.1,0,3.6-1,3.6-2.9v0c0-1.5-1.3-2.6-3.5-2.6H118v5.5H122.7z M123.1,15.3
		c2.4,0,3.9-1.1,3.9-2.9v0c0-1.7-1.5-2.7-4.3-2.7H118v5.7H123.1z"/>
	<path class="st0" d="M131.6,2.2h1v14.1h-1V2.2z"/>
	<path class="st0" d="M137,2.2h10v1h-9v5.5h8.1v1H138v5.7h9.1v1H137V2.2z"/>
	<path class="st0" d="M150.5,2.2h1l9.7,12.2V2.2h1v14.1h-0.8l-9.9-12.5v12.5h-1V2.2z"/>
	<path class="st0" d="M165.1,2.2h1.2l5.5,12.9l5.5-12.9h1.1l-6.2,14.2h-0.9L165.1,2.2z"/>
	<path class="st0" d="M181.4,2.2h10v1h-9v5.5h8.1v1h-8.1v5.7h9.1v1h-10.1V2.2z"/>
	<path class="st0" d="M194.9,2.2h1l9.7,12.2V2.2h1v14.1h-0.8l-9.9-12.5v12.5h-1V2.2z"/>
	<path class="st0" d="M210.9,2.2h1v14.1h-1V2.2z"/>
	<path class="st0" d="M216.3,2.2h4.7c4.4,0,7.5,3,7.5,7v0c0,4-3.1,7-7.5,7h-4.7V2.2z M221,15.3c3.9,0,6.4-2.7,6.4-6v0
		c0-3.3-2.5-6.1-6.4-6.1h-3.6v12.1H221z"/>
	<path class="st0" d="M231.4,9.2L231.4,9.2c0-3.9,2.8-7.3,7.1-7.3c4.3,0,7.1,3.4,7.1,7.2v0c0,3.8-2.8,7.3-7.1,7.3
		C234.2,16.5,231.4,13.1,231.4,9.2z M244.4,9.2L244.4,9.2c0-3.5-2.5-6.4-6-6.4c-3.5,0-6,2.8-6,6.3v0c0,3.5,2.5,6.3,6,6.3
		C242,15.5,244.4,12.7,244.4,9.2z"/>
	<path class="st0" d="M260.5,2.1h1l6.6,14.2h-1.1l-1.8-3.9h-8.3l-1.8,3.9h-1.1L260.5,2.1z M264.6,11.3l-3.7-8.1l-3.7,8.1H264.6z"/>
	<path class="st0" d="M271,2.2h1v13.1h8.3v1H271V2.2z"/>
	<path class="st1" d="M69.7,53.9l3.1-3.6c2.8,2.4,5.5,3.8,9.1,3.8c3.1,0,5.1-1.4,5.1-3.6v-0.1c0-2.1-1.2-3.2-6.5-4.4
		c-6.2-1.5-9.6-3.3-9.6-8.6v-0.1c0-5,4.1-8.4,9.9-8.4c4.2,0,7.6,1.3,10.5,3.6l-2.7,3.8c-2.6-1.9-5.2-3-7.8-3c-3,0-4.7,1.5-4.7,3.4
		v0.1c0,2.2,1.3,3.2,6.9,4.5c6.1,1.5,9.3,3.7,9.3,8.5v0.1c0,5.4-4.3,8.6-10.3,8.6C77.3,58.5,73.1,57,69.7,53.9z"/>
	<path class="st1" d="M98.3,29.2h5.1v28.9h-5.1V29.2z"/>
	<path class="st1" d="M109.2,53.9l3.1-3.6c2.8,2.4,5.5,3.8,9.1,3.8c3.1,0,5.1-1.4,5.1-3.6v-0.1c0-2.1-1.2-3.2-6.5-4.4
		c-6.2-1.5-9.6-3.3-9.6-8.6v-0.1c0-5,4.1-8.4,9.9-8.4c4.2,0,7.6,1.3,10.5,3.6l-2.7,3.8c-2.6-1.9-5.2-3-7.8-3c-3,0-4.7,1.5-4.7,3.4
		v0.1c0,2.2,1.3,3.2,6.9,4.5c6.1,1.5,9.3,3.7,9.3,8.5v0.1c0,5.4-4.3,8.6-10.3,8.6C116.8,58.5,112.6,57,109.2,53.9z"/>
	<path class="st1" d="M144,33.9h-9.2v-4.7h23.4v4.7h-9.2v24.2H144V33.9z"/>
	<path class="st1" d="M163.7,29.2h21.4v4.5h-16.3v7.5h14.5v4.5h-14.5v7.8h16.5v4.5h-21.6V29.2z"/>
	<path class="st1" d="M191.3,29.2h5.4l8.8,13.7l8.8-13.7h5.4v28.9h-5.1V37.3L205.5,51h-0.2l-9-13.5v20.6h-5V29.2z"/>
	<path class="st1" d="M237.4,29h4.7l12.7,29.1h-5.4l-2.9-7h-13.7l-3,7h-5.2L237.4,29z M244.6,46.6l-5-11.6l-5,11.6H244.6z"/>
	<path class="st1" d="M272.1,29.2h10.8c9.1,0,15.4,6.2,15.4,14.4v0.1c0,8.1-6.3,14.4-15.4,14.4h-10.8V29.2z M282.9,53.4
		c6.1,0,10-4.1,10-9.7v-0.1c0-5.7-4-9.8-10-9.8h-5.7v19.6H282.9z"/>
	<path class="st1" d="M304.4,29.2h21.4v4.5h-16.3v7.5H324v4.5h-14.5v7.8H326v4.5h-21.6V29.2z"/>
	<path class="st1" d="M20.1,70.8h4.7l12.7,29.1h-5.4l-2.9-7H15.5l-3,7H7.4L20.1,70.8z M27.4,88.4l-5-11.6l-5,11.6H27.4z"/>
	<path class="st1" d="M42.5,71h10.8c9.1,0,15.4,6.2,15.4,14.4v0.1c0,8.1-6.3,14.4-15.4,14.4H42.5V71z M53.2,95.3
		c6.1,0,10-4.1,10-9.7v-0.1c0-5.7-4-9.8-10-9.8h-5.7v19.6H53.2z"/>
	<path class="st1" d="M74.7,71h5.4l8.8,13.7L97.7,71h5.4v28.9h-5.1V79.2l-9.1,13.6h-0.2l-9-13.5v20.6h-5V71z"/>
	<path class="st1" d="M110.9,71h5.1v28.9h-5.1V71z"/>
	<path class="st1" d="M123.7,71h4.7l15.5,20V71h5v28.9h-4.3l-15.9-20.6v20.6h-5V71z"/>
	<path class="st1" d="M156.6,71h5.1v28.9h-5.1V71z"/>
	<path class="st1" d="M167.4,95.7l3.1-3.6c2.8,2.4,5.5,3.8,9.1,3.8c3.1,0,5.1-1.4,5.1-3.6v-0.1c0-2.1-1.2-3.2-6.5-4.4
		c-6.2-1.5-9.6-3.3-9.6-8.6V79c0-5,4.1-8.4,9.9-8.4c4.2,0,7.6,1.3,10.5,3.6l-2.7,3.8c-2.6-1.9-5.2-3-7.8-3c-3,0-4.7,1.5-4.7,3.4v0.1
		c0,2.2,1.3,3.2,6.9,4.5c6.1,1.5,9.3,3.7,9.3,8.5v0.1c0,5.4-4.3,8.6-10.3,8.6C175,100.3,170.9,98.8,167.4,95.7z"/>
	<path class="st1" d="M202.2,75.7h-9.2V71h23.4v4.7h-9.2v24.2h-5.1V75.7z"/>
	<path class="st1" d="M221.9,71h12.9c3.6,0,6.5,1.1,8.3,2.9c1.5,1.6,2.4,3.7,2.4,6.2v0.1c0,4.7-2.8,7.6-6.9,8.7l7.8,10.9h-6
		l-7.1-10.1H227v10.1h-5.1V71z M234.4,85.3c3.6,0,5.9-1.9,5.9-4.8v-0.1c0-3.1-2.2-4.8-6-4.8H227v9.7H234.4z"/>
	<path class="st1" d="M262,70.8h4.7l12.7,29.1H274l-2.9-7h-13.7l-3,7h-5.2L262,70.8z M269.2,88.4l-5-11.6l-5,11.6H269.2z"/>
	<path class="st1" d="M281.3,85.5L281.3,85.5c0-8.3,6.1-15,14.9-15c5.3,0,8.5,1.9,11.3,4.5l-3.3,3.8c-2.3-2.1-4.8-3.6-8.1-3.6
		c-5.5,0-9.5,4.5-9.5,10.2v0.1c0,5.7,4,10.3,9.5,10.3c3.5,0,5.8-1.4,8.3-3.8l3.3,3.3c-3,3.1-6.3,5.1-11.7,5.1
		C287.6,100.4,281.3,93.8,281.3,85.5z"/>
	<path class="st1" d="M313.3,71h5.1v28.9h-5.1V71z"/>
	<path class="st1" d="M324.8,85.5L324.8,85.5c0-8.2,6.3-15,15.1-15S355,77.2,355,85.4v0.1c0,8.1-6.3,14.9-15.1,14.9
		C331,100.4,324.8,93.7,324.8,85.5z M349.7,85.5L349.7,85.5c0-5.7-4.1-10.4-9.8-10.4c-5.7,0-9.7,4.6-9.7,10.2v0.1
		c0,5.6,4.1,10.3,9.8,10.3S349.7,91.1,349.7,85.5z M342.5,62.2l4.5,2l-5.3,4h-3.9L342.5,62.2z"/>
	<path class="st1" d="M361.2,71h4.7l15.5,20V71h5v28.9h-4.3l-15.9-20.6v20.6h-5V71z"/>
</g>
</svg>
