<svg id="Layer_1" data-name="Layer 1" xmlns="http://www.w3.org/2000/svg" viewBox="0 0 124 45.6"><defs><style>.cls-1,.cls-2{fill:#1c1665;}.cls-1{fill-rule:evenodd;}</style></defs><title>web--moott</title><path class="cls-1" d="M37.32,42.09a1.6,1.6,0,0,1-.27.68,2.33,2.33,0,0,1-2.38.94,2.05,2.05,0,0,1-1.86-1.32,11.37,11.37,0,0,1-.53-2.63,63.22,63.22,0,0,0-1.87-9.55,13.63,13.63,0,0,0-1.75-3.89l-.06-.07a8.78,8.78,0,0,0-.85-1,2.38,2.38,0,0,0-3.22,0,5.37,5.37,0,0,0-1.3,1.9c-.11.27-.22.55-.31.82A24.05,24.05,0,0,0,22,31.69a60.61,60.61,0,0,0-.65,8.72c0,.49,0,1-.09,1.48a2,2,0,0,1-1.64,1.8,1.91,1.91,0,0,1-2.17-.86c-.09-.13-.17-.26-.25-.39a9.45,9.45,0,0,1-.93-2.82c-.32-1.7-.53-3.42-.8-5.14-.36-2.22-.71-4.46-1.14-6.68a7.87,7.87,0,0,0-.78-2.07,1.69,1.69,0,0,0-2-1.06,2.22,2.22,0,0,0-1.35.93,9.25,9.25,0,0,0-1.46,3.19,43.08,43.08,0,0,0-1.18,6.57c-.21,2-.33,4-.36,6a2.34,2.34,0,0,1-1.56,2.28,2.52,2.52,0,0,1-2.09-.28,2.55,2.55,0,0,1-1.18-2.3c0-.46,0-.92,0-1.38v0c0-2.56.06-5.12.14-7.68,0-1.71.14-3.41.23-5.11S3,23.8,3,22.25c.06-1.37.11-2.75.09-4.12,0-2,.79-2.57,2.12-3a3.28,3.28,0,0,1,2.56.32A2.24,2.24,0,0,1,9,17.65c0,1-.11,1.89-.19,2.83l.08-.05a5.66,5.66,0,0,1,1.6-.57,5.82,5.82,0,0,1,5.08,1.29,8.82,8.82,0,0,1,1.89,2.51c.06.27.13.57.23,1l.12-.32c.16.35.3.71.43,1.07s.21.59.32.87c0,.06.08.1.1.13.59-1.21,1.09-2.44,1.77-3.58a6.22,6.22,0,0,1,4.31-3.14,7,7,0,0,1,3.16.07A6.49,6.49,0,0,1,30.19,21a12.38,12.38,0,0,1,3.25,4.14A34.64,34.64,0,0,1,37,35.91c.23,1.5.38,3,.5,4.52A7.81,7.81,0,0,1,37.32,42.09Z"/><path class="cls-1" d="M17.82,24.38l-.12.32c-.1-.47-.17-.77-.23-1C17.6,23.9,17.71,24.13,17.82,24.38Z"/><path class="cls-2" d="M96.19,21.46c.57,0,1.44-.06,2.63-.16s2.05-.15,2.63-.15c3.29,0,4.93.79,4.93,2.35s-1.63,2.35-4.91,2.35c-.6,0-1.49-.06-2.67-.17a25,25,0,0,0-2.61-.18L96,41.81c0,1.35-.71,2-2.14,2a2.13,2.13,0,0,1-1.53-.58,1.9,1.9,0,0,1-.62-1.44L92,5c0-1.35.69-2,2.09-2a2.05,2.05,0,0,1,1.49.58A1.9,1.9,0,0,1,96.19,5Z"/><path class="cls-2" d="M112.09,21.46c.57,0,1.45-.06,2.63-.16s2.06-.15,2.63-.15c3.29,0,4.94.79,4.94,2.35s-1.64,2.35-4.91,2.35c-.61,0-1.5-.06-2.68-.17a25,25,0,0,0-2.61-.18l-.16,16.31c0,1.35-.72,2-2.15,2a2.13,2.13,0,0,1-1.53-.58,1.89,1.89,0,0,1-.61-1.44L107.9,5c0-1.35.69-2,2.09-2a2.06,2.06,0,0,1,1.5.58,1.93,1.93,0,0,1,.6,1.44Z"/><path class="cls-1" d="M62,28.75c-1-.67-1.78.36-2.23,1.11A9.32,9.32,0,0,0,59.22,31,6.67,6.67,0,0,0,59,32.24l-.38,1.87a7.66,7.66,0,0,1-8.17,5.36A8.54,8.54,0,0,1,45.27,25a9.06,9.06,0,0,1,7.27-2.71,7.59,7.59,0,0,1,3.79.95s-2.79-2.52-7.94-1c0,0-7.49,1.76-6,11.74,0,0-1.24-1.5-.21-6a10.25,10.25,0,0,1,6.2-6.16s5.39-1.91,9.83,1.44a12.1,12.1,0,0,1,3.63,4.56,9.91,9.91,0,0,0-7.21-6.54,10.54,10.54,0,0,0-13.49,10S40,27.7,44.12,23.68a10.6,10.6,0,0,1,6.67-3.05,12.69,12.69,0,0,1,6.64,1.55,12,12,0,0,1,3.7,3.3,10.72,10.72,0,0,0-5-4.12A12.11,12.11,0,0,0,48,21a11.09,11.09,0,0,0-3.67,18.94s-4.91-3.83-4.17-9.74A11.23,11.23,0,0,1,45.17,22s3.9-2.63,8.22-1.72c0,0,6,1,8.54,6.12,0,0-1.22-3.67-6.16-5.72a11.23,11.23,0,0,0-8.64,0l-.12,0a11.3,11.3,0,0,0-7,7.74s-1.71,6.25,2.3,10.74c0,0-4.4-3.73-2.36-11.22a11.34,11.34,0,0,1,5.94-7s3.31-2.22,8.67-.9a12,12,0,0,1,6.63,4.48,11.65,11.65,0,0,0-10.62-5.11,12.46,12.46,0,0,0-9,4.77,12.8,12.8,0,0,0-2,10.86S41.7,42,48.26,43.61c0,0,6.25,1.64,10.78-2.1a14.17,14.17,0,0,0,4.74-6.89,6.45,6.45,0,0,0,0-3.51A7.07,7.07,0,0,0,62,28.75Z"/><path class="cls-1" d="M88.27,28.75c-1-.67-1.77.36-2.23,1.11A9.27,9.27,0,0,0,85.48,31a6,6,0,0,0-.27,1.24l-.38,1.87a7.65,7.65,0,0,1-8.17,5.36A8.54,8.54,0,0,1,71.52,25a9.06,9.06,0,0,1,7.27-2.71,7.59,7.59,0,0,1,3.79.95s-2.79-2.52-7.93-1c0,0-7.5,1.76-6,11.74,0,0-1.24-1.5-.2-6a10.25,10.25,0,0,1,6.2-6.16s5.39-1.91,9.82,1.44a12.1,12.1,0,0,1,3.63,4.56,9.91,9.91,0,0,0-7.2-6.54,10.48,10.48,0,0,0-10.4,2.65,10.34,10.34,0,0,0-3.09,7.3s-1.15-3.54,2.93-7.56a10.61,10.61,0,0,1,6.68-3.05,12.66,12.66,0,0,1,6.63,1.55,12,12,0,0,1,3.7,3.3,10.73,10.73,0,0,0-4.95-4.12A12.14,12.14,0,0,0,74.2,21a11.09,11.09,0,0,0-3.67,18.94s-4.91-3.83-4.18-9.74A11.3,11.3,0,0,1,71.42,22s3.91-2.63,8.22-1.72c0,0,6,1,8.54,6.12,0,0-1.22-3.67-6.15-5.72a11.26,11.26,0,0,0-8.65,0l-.12,0a11.3,11.3,0,0,0-7,7.74s-1.71,6.25,2.31,10.74c0,0-4.4-3.73-2.36-11.22a11.31,11.31,0,0,1,5.93-7s3.31-2.22,8.67-.9a12,12,0,0,1,6.63,4.48,11.64,11.64,0,0,0-10.61-5.11,12.47,12.47,0,0,0-9,4.77,12.8,12.8,0,0,0-2,10.86S68,42,74.52,43.61c0,0,6.25,1.64,10.78-2.1A14.24,14.24,0,0,0,90,34.62a6.55,6.55,0,0,0,0-3.51A7.16,7.16,0,0,0,88.27,28.75Z"/><path class="cls-2" d="M117.24,43.72a4.42,4.42,0,1,1,4.43-4.42A4.43,4.43,0,0,1,117.24,43.72Zm0-8.08a3.67,3.67,0,1,0,3.67,3.66A3.67,3.67,0,0,0,117.24,35.64Z"/><path class="cls-2" d="M115.54,41.59V37h2a3,3,0,0,1,.92.13,1,1,0,0,1,.51.43,1.35,1.35,0,0,1,.2.7,1.16,1.16,0,0,1-.32.82,1.63,1.63,0,0,1-1,.43,1.5,1.5,0,0,1,.37.22,3,3,0,0,1,.5.62l.8,1.24h-.76l-.61-1c-.18-.28-.32-.49-.43-.63a1.28,1.28,0,0,0-.32-.31.8.8,0,0,0-.27-.12l-.34,0h-.71v2Zm.59-2.56h1.31a1.84,1.84,0,0,0,.65-.09.67.67,0,0,0,.36-.27.73.73,0,0,0,.12-.41.68.68,0,0,0-.24-.54,1.06,1.06,0,0,0-.74-.21h-1.46Z"/></svg>